<svg width="24" height="24" viewBox="0 0 24 24" fill="none" xmlns="http://www.w3.org/2000/svg">
<g clip-path="url(#clip0_507_518)">
<path fill-rule="evenodd" clip-rule="evenodd" d="M22.0001 12.2316C22.0001 11.5077 21.9347 10.8127 21.8145 10.1446H12.2043V14.0917H17.6963C17.4598 15.3674 16.7408 16.4479 15.6602 17.1717V19.7317H18.9585C20.8878 17.9552 22.001 15.3395 22.001 12.2316H22.0001Z" fill="#4285F4"/>
<path fill-rule="evenodd" clip-rule="evenodd" d="M12.2044 22.2042C14.9595 22.2042 17.2695 21.29 18.9576 19.7317L15.6593 17.1717C14.7451 17.7841 13.5772 18.1456 12.2034 18.1456C9.54543 18.1456 7.29598 16.3508 6.49328 13.9389H3.08545V16.5825C4.76485 19.9172 8.21499 22.2042 12.2044 22.2042Z" fill="#34A853"/>
<path fill-rule="evenodd" clip-rule="evenodd" d="M6.49411 13.9389C6.29031 13.3265 6.174 12.6729 6.174 11.9999C6.174 11.327 6.29031 10.6733 6.49411 10.061V7.41739H3.08532C2.39414 8.79494 2 10.3532 2 11.9999C2 13.6467 2.39414 15.2049 3.08532 16.5825L6.49411 13.9389Z" fill="#FBBC05"/>
<path fill-rule="evenodd" clip-rule="evenodd" d="M12.2044 5.85429C13.7021 5.85429 15.048 6.36955 16.1054 7.37989L19.0326 4.45271C17.2647 2.80695 14.9547 1.79565 12.2044 1.79565C8.21499 1.79565 4.76485 4.0826 3.08545 7.41738L6.49425 10.061C7.29694 7.64906 9.5464 5.85429 12.2044 5.85429Z" fill="#E93528"/>
</g>
<defs>
<clipPath id="clip0_507_518">
<rect width="20" height="20.4086" fill="white" transform="translate(2 1.79572)"/>
</clipPath>
</defs>
</svg>
