<svg width="24" height="25" viewBox="0 0 24 25" fill="none" xmlns="http://www.w3.org/2000/svg">
<path fill-rule="evenodd" clip-rule="evenodd" d="M16.6665 5.16671C16.6665 4.24619 17.4127 3.5 18.3332 3.5C19.2536 3.5 19.9998 4.24619 19.9998 5.16671C19.9998 6.08723 19.2536 6.83342 18.3332 6.83342C17.4127 6.83342 16.6665 6.08723 16.6665 5.16671ZM18.3332 1.5C16.3081 1.5 14.6665 3.14166 14.6665 5.16671C14.6665 5.54931 14.7251 5.91823 14.8338 6.26498L8.25215 9.89977C7.5892 9.24045 6.67551 8.83301 5.66665 8.83301C3.6416 8.83301 2 10.4747 2 12.4997C2 14.5248 3.6416 16.1664 5.66665 16.1664C6.69499 16.1664 7.62444 15.7431 8.29027 15.0612L8.5166 15.1862L14.8503 18.6841C14.7311 19.0457 14.6665 19.4321 14.6665 19.8337C14.6665 21.8588 16.3081 23.5004 18.3332 23.5004C20.3582 23.5004 21.9998 21.8588 21.9998 19.8337C21.9998 17.8087 20.3582 16.167 18.3332 16.167C17.4369 16.167 16.6158 16.4885 15.9788 17.0226L9.48347 13.4354L9.2449 13.3037C9.30277 13.045 9.33331 12.7759 9.33331 12.4997C9.33331 12.2047 9.29847 11.9178 9.23268 11.643L15.9358 7.94115C16.5786 8.4971 17.4166 8.83342 18.3332 8.83342C20.3582 8.83342 21.9998 7.19176 21.9998 5.16671C21.9998 3.14166 20.3582 1.5 18.3332 1.5ZM16.6665 19.8337C16.6665 18.9132 17.4127 18.167 18.3332 18.167C19.2536 18.167 19.9998 18.9132 19.9998 19.8337C19.9998 20.7542 19.2536 21.5004 18.3332 21.5004C17.4127 21.5004 16.6665 20.7542 16.6665 19.8337ZM5.66665 10.833C4.74621 10.833 4 11.5792 4 12.4997C4 13.4202 4.74621 14.1664 5.66665 14.1664C6.5871 14.1664 7.33331 13.4202 7.33331 12.4997C7.33331 11.5792 6.5871 10.833 5.66665 10.833Z" fill="#1E1E1E"/>
</svg>
