<svg width="76" height="76" viewBox="0 0 76 76" fill="none" xmlns="http://www.w3.org/2000/svg">
<rect width="76" height="76" rx="38" fill="#FFF0E6"/>
<rect x="12" y="12" width="52" height="52" rx="26" fill="#FF6A00"/>
<path fill-rule="evenodd" clip-rule="evenodd" d="M41.3333 27.9858L46.4992 28.8576C47.943 29.1012 49 30.3515 49 31.8158V44.6342C49 46.4905 47.3312 47.9013 45.5008 47.5924L41.3333 46.8891L34.6667 48.0141L29.5008 47.1424C28.057 46.8987 27 45.6484 27 44.1842V31.3658C27 29.5095 28.6688 28.0987 30.4992 28.4076L34.6667 29.1108L41.3333 27.9858ZM33.6667 30.9704L30.1664 30.3797C29.5563 30.2767 29 30.747 29 31.3658V44.1842C29 44.6723 29.3523 45.089 29.8336 45.1703L33.6667 45.8171V30.9704ZM35.6667 45.8171L40.3333 45.0296V30.1829L35.6667 30.9704V45.8171ZM42.3333 30.1829V45.0296L45.8336 45.6203C46.4437 45.7232 47 45.253 47 44.6342V31.8158C47 31.3277 46.6477 30.9109 46.1664 30.8297L42.3333 30.1829Z" fill="white"/>
</svg>
