<svg width="16" height="16" viewBox="0 0 16 16" fill="none" xmlns="http://www.w3.org/2000/svg">
<path fill-rule="evenodd" clip-rule="evenodd" d="M3.41507 3.45056C3.66039 2.59196 4.44516 2 5.33812 2H10.66C11.5529 2 12.3377 2.59195 12.583 3.45056L13.504 6.6739C14.5284 6.7608 15.3327 7.6198 15.3327 8.66667V11C15.3327 11.7364 14.7357 12.3333 13.9993 12.3333H13.2189C12.9443 13.1101 12.2035 13.6667 11.3327 13.6667C10.4619 13.6667 9.72104 13.1101 9.44649 12.3333H6.55221C6.27766 13.1101 5.53683 13.6667 4.66602 13.6667C3.7952 13.6667 3.05438 13.1101 2.77982 12.3333H1.99935C1.26297 12.3333 0.666016 11.7364 0.666016 11V8.66667C0.666016 7.62001 1.47001 6.76113 2.49411 6.67395L3.41507 3.45056ZM6.55221 11H9.44649C9.72104 10.2232 10.4619 9.66667 11.3327 9.66667C12.2035 9.66667 12.9443 10.2232 13.2189 11H13.9993V8.66667C13.9993 8.29848 13.7009 8 13.3327 8H2.66602C2.29783 8 1.99935 8.29848 1.99935 8.66667V11H2.77982C3.05438 10.2232 3.7952 9.66667 4.66602 9.66667C5.53683 9.66667 6.27765 10.2232 6.55221 11ZM11.301 3.81685L12.1152 6.66667H3.88287L4.69711 3.81685C4.77888 3.53065 5.04047 3.33333 5.33812 3.33333H10.66C10.9576 3.33333 11.2192 3.53065 11.301 3.81685ZM3.99935 11.6667C3.99935 11.2985 4.29783 11 4.66602 11C5.03421 11 5.33268 11.2985 5.33268 11.6667C5.33268 12.0349 5.03421 12.3333 4.66602 12.3333C4.29783 12.3333 3.99935 12.0349 3.99935 11.6667ZM11.3327 11C10.9645 11 10.666 11.2985 10.666 11.6667C10.666 12.0349 10.9645 12.3333 11.3327 12.3333C11.7009 12.3333 11.9993 12.0349 11.9993 11.6667C11.9993 11.2985 11.7009 11 11.3327 11Z" fill="#797979"/>
</svg>
