<svg width="16" height="16" viewBox="0 0 16 16" fill="none" xmlns="http://www.w3.org/2000/svg">
<path fill-rule="evenodd" clip-rule="evenodd" d="M0.667969 4.29606C0.667969 3.10969 1.62971 2.14795 2.81608 2.14795H13.1865C14.3729 2.14795 15.3346 3.10969 15.3346 4.29606V13.1844C15.3346 14.3708 14.3729 15.3325 13.1865 15.3325H2.81608C1.62971 15.3325 0.667969 14.3708 0.667969 13.1844V4.29606ZM2.81608 3.48128C2.36609 3.48128 2.0013 3.84607 2.0013 4.29606V13.1844C2.0013 13.6344 2.36609 13.9992 2.81608 13.9992H13.1865C13.6365 13.9992 14.0013 13.6344 14.0013 13.1844V4.29606C14.0013 3.84607 13.6365 3.48128 13.1865 3.48128H2.81608Z" fill="#797979"/>
<path fill-rule="evenodd" clip-rule="evenodd" d="M0.667969 7.25993C0.667969 6.89174 0.966446 6.59326 1.33464 6.59326H14.668C15.0362 6.59326 15.3346 6.89174 15.3346 7.25993C15.3346 7.62812 15.0362 7.9266 14.668 7.9266H1.33464C0.966446 7.9266 0.667969 7.62812 0.667969 7.25993Z" fill="#797979"/>
<path fill-rule="evenodd" clip-rule="evenodd" d="M4.22135 0.666016C4.58954 0.666016 4.88802 0.964492 4.88802 1.33268V4.29549C4.88802 4.66368 4.58954 4.96215 4.22135 4.96215C3.85316 4.96215 3.55469 4.66368 3.55469 4.29549V1.33268C3.55469 0.964492 3.85316 0.666016 4.22135 0.666016Z" fill="#797979"/>
<path fill-rule="evenodd" clip-rule="evenodd" d="M11.779 0.666016C12.1472 0.666016 12.4456 0.964492 12.4456 1.33268V4.29549C12.4456 4.66368 12.1472 4.96215 11.779 4.96215C11.4108 4.96215 11.1123 4.66368 11.1123 4.29549V1.33268C11.1123 0.964492 11.4108 0.666016 11.779 0.666016Z" fill="#797979"/>
</svg>
