<svg width="36" height="36" viewBox="0 0 36 36" fill="none" xmlns="http://www.w3.org/2000/svg">
<rect width="36" height="36" rx="18" fill="#CFCFCF"/>
<path fill-rule="evenodd" clip-rule="evenodd" d="M23.1319 14.6997C23.1319 16.4447 22.2607 17.9862 20.9296 18.913C23.6162 19.9607 25.6026 22.4077 25.9933 25.3584C26.0709 25.9447 25.584 26.4268 24.9925 26.4268H11.0104C10.4189 26.4268 9.93199 25.9447 10.0096 25.3584C10.4003 22.4077 12.3868 19.9607 15.0734 18.913C13.7423 17.9861 12.8712 16.4447 12.8712 14.6997C12.8712 11.8663 15.1681 9.56934 18.0015 9.56934C20.835 9.56934 23.1319 11.8663 23.1319 14.6997ZM16.4408 15.8982C16.2748 15.6113 15.9078 15.5133 15.621 15.6792C15.3341 15.8452 15.2361 16.2122 15.402 16.499C15.9198 17.3942 16.8891 17.9986 18.0003 17.9986C19.1115 17.9986 20.0808 17.3942 20.5986 16.499C20.7645 16.2122 20.6665 15.8452 20.3797 15.6792C20.0928 15.5133 19.7258 15.6113 19.5599 15.8982C19.2477 16.4378 18.6658 16.7986 18.0003 16.7986C17.3348 16.7986 16.7529 16.4378 16.4408 15.8982Z" fill="white"/>
</svg>
