<svg width="16" height="17" viewBox="0 0 16 17" fill="none" xmlns="http://www.w3.org/2000/svg">
<path fill-rule="evenodd" clip-rule="evenodd" d="M9.89074 2.48785C9.61962 3.27094 8.87564 3.83325 8.00033 3.83325C7.12501 3.83325 6.38103 3.27094 6.10991 2.48785C5.98945 2.13992 5.70185 1.83325 5.33366 1.83325H4.00033C3.26395 1.83325 2.66699 2.43021 2.66699 3.16659V9.83325H4.33366C4.70185 9.83325 5.00033 10.1317 5.00033 10.4999C5.00033 10.8681 4.70185 11.1666 4.33366 11.1666H2.66699V13.8333C2.66699 14.5696 3.26395 15.1666 4.00033 15.1666H5.33366C5.70185 15.1666 5.98945 14.8599 6.10991 14.512C6.38103 13.7289 7.12501 13.1666 8.00033 13.1666C8.87564 13.1666 9.61962 13.7289 9.89074 14.512C10.0112 14.8599 10.2988 15.1666 10.667 15.1666H12.0003C12.7367 15.1666 13.3337 14.5696 13.3337 13.8333V11.1666H11.667C11.2988 11.1666 11.0003 10.8681 11.0003 10.4999C11.0003 10.1317 11.2988 9.83325 11.667 9.83325H13.3337V3.16659C13.3337 2.43021 12.7367 1.83325 12.0003 1.83325H10.667C10.2988 1.83325 10.0112 2.13992 9.89074 2.48785ZM7.00033 9.83325C6.63214 9.83325 6.33366 10.1317 6.33366 10.4999C6.33366 10.8681 6.63214 11.1666 7.00033 11.1666H9.00033C9.36852 11.1666 9.66699 10.8681 9.66699 10.4999C9.66699 10.1317 9.36852 9.83325 9.00033 9.83325H7.00033Z" fill="#FF6A00"/>
</svg>
