<svg width="335" height="280" viewBox="0 0 335 280" fill="none" xmlns="http://www.w3.org/2000/svg">
<g clip-path="url(#clip0_1976_11756)">
<rect width="335" height="280" rx="12" fill="url(#paint0_linear_1976_11756)"/>
<rect x="147.5" y="40" width="40" height="40" rx="20" fill="#FF6A00"/>
<path fill-rule="evenodd" clip-rule="evenodd" d="M162.963 55.3705C162.963 52.8648 164.995 50.8335 167.5 50.8335C170.006 50.8335 172.037 52.8648 172.037 55.3705V57.6239H172.439C173.581 57.6239 174.506 58.5497 174.506 59.6918V67.0992C174.506 68.2412 173.581 69.1671 172.439 69.1671H162.562C161.42 69.1671 160.494 68.2412 160.494 67.0992V59.6918C160.494 58.5497 161.42 57.6239 162.562 57.6239H162.963V55.3705ZM170.371 55.3705V57.6239H164.63V55.3705C164.63 53.7853 165.915 52.5002 167.5 52.5002C169.086 52.5002 170.371 53.7853 170.371 55.3705ZM162.562 59.2905C162.34 59.2905 162.161 59.4702 162.161 59.6918V67.0992C162.161 67.3208 162.34 67.5004 162.562 67.5004H172.439C172.66 67.5004 172.84 67.3208 172.84 67.0992V59.6918C172.84 59.4702 172.66 59.2905 172.439 59.2905H162.562ZM168.333 63.3794C168.58 63.1537 168.735 62.8291 168.735 62.4685C168.735 61.7866 168.182 61.2339 167.5 61.2339C166.818 61.2339 166.266 61.7866 166.266 62.4685C166.266 62.8291 166.42 63.1536 166.667 63.3793V65.5557C166.667 66.0159 167.04 66.389 167.5 66.389C167.96 66.389 168.333 66.0159 168.333 65.5557V63.3794Z" fill="white"/>
<path d="M52.5918 107.106C54.1152 107.112 55.3896 107.083 56.415 107.019C57.4463 106.948 58.4746 106.816 59.5 106.623L59.7109 108.205C58.6445 108.41 57.584 108.551 56.5293 108.627C55.4746 108.697 54.1621 108.729 52.5918 108.724H51.3262V107.106H52.5918ZM58.5771 99.7148H53.2861V107.713H51.3262V98.1152H58.5771V99.7148ZM63.8857 112.591H61.9346V96.6738H63.8857V112.591ZM62.7607 103.863H57.7422V102.264H62.7607V103.863ZM75.6719 99.0205C75.6719 100.075 75.5049 101.057 75.1709 101.965C74.8369 102.873 74.3389 103.664 73.6768 104.338C73.0146 105.006 72.2148 105.507 71.2773 105.841L70.2227 104.303C71.0547 104.016 71.7578 103.603 72.332 103.063C72.9121 102.524 73.3457 101.912 73.6328 101.227C73.9258 100.535 74.0723 99.7998 74.0723 99.0205V97.5088H75.6719V99.0205ZM76.0234 99.2051C76.0234 99.8848 76.167 100.532 76.4541 101.147C76.7471 101.757 77.1719 102.302 77.7285 102.782C78.291 103.257 78.9678 103.62 79.7588 103.872L78.7129 105.393C77.8105 105.088 77.04 104.631 76.4014 104.021C75.7627 103.406 75.2764 102.688 74.9424 101.868C74.6084 101.042 74.4414 100.154 74.4414 99.2051V97.5088H76.0234V99.2051ZM82.9316 106.175H80.9805V96.6738H82.9316V106.175ZM85.1553 102.158H82.3779V100.532H85.1553V102.158ZM77.7637 106.526C78.8535 106.526 79.7969 106.644 80.5938 106.878C81.3965 107.112 82.0117 107.455 82.4395 107.906C82.8672 108.357 83.0811 108.896 83.0811 109.523C83.0811 110.156 82.8672 110.698 82.4395 111.149C82.0117 111.601 81.3965 111.943 80.5938 112.178C79.7969 112.418 78.8535 112.538 77.7637 112.538C76.6562 112.538 75.6982 112.418 74.8896 112.178C74.0869 111.943 73.4658 111.601 73.0264 111.149C72.5928 110.698 72.376 110.156 72.376 109.523C72.376 108.896 72.5928 108.357 73.0264 107.906C73.4658 107.455 74.0898 107.112 74.8984 106.878C75.707 106.644 76.6621 106.526 77.7637 106.526ZM77.7637 108.064C77.0371 108.064 76.4189 108.123 75.9092 108.24C75.3994 108.352 75.0098 108.516 74.7402 108.732C74.4707 108.949 74.3389 109.213 74.3447 109.523C74.3389 109.846 74.4678 110.118 74.7314 110.341C75.001 110.558 75.3906 110.725 75.9004 110.842C76.4102 110.953 77.0312 111.009 77.7637 111.009C78.4902 111.009 79.1084 110.953 79.6182 110.842C80.1279 110.725 80.5117 110.558 80.7695 110.341C81.0273 110.118 81.1562 109.846 81.1562 109.523C81.1562 109.213 81.0244 108.949 80.7607 108.732C80.5029 108.51 80.1191 108.343 79.6094 108.231C79.0996 108.12 78.4844 108.064 77.7637 108.064ZM95.1045 103.758H92.2568V102.149H95.1045V103.758ZM90.5342 100.928C90.5342 102.123 90.3994 103.263 90.1299 104.347C89.8662 105.431 89.4619 106.406 88.917 107.273C88.3721 108.135 87.7012 108.806 86.9043 109.286L85.7002 107.836C86.4385 107.385 87.0566 106.796 87.5547 106.069C88.0527 105.337 88.4219 104.534 88.6621 103.661C88.9023 102.788 89.0254 101.877 89.0312 100.928V98.0889H90.5342V100.928ZM90.9209 100.849C90.9209 101.757 91.0264 102.624 91.2373 103.45C91.4541 104.276 91.7881 105.038 92.2393 105.735C92.6904 106.427 93.2617 106.989 93.9531 107.423L92.8809 108.935C92.0898 108.46 91.4365 107.801 90.9209 106.957C90.4053 106.113 90.0273 105.176 89.7871 104.145C89.5527 103.113 89.4385 102.015 89.4443 100.849V98.0889H90.9209V100.849ZM99.666 112.547H97.7852V96.6738H99.666V112.547ZM96.3525 111.8H94.5244V96.9463H96.3525V111.8ZM114.045 108.565H112.094V96.6914H114.045V108.565ZM116.269 103.292H113.465V101.684H116.269V103.292ZM110.951 100.005H101.521V98.4492H110.951V100.005ZM106.24 100.664C106.996 100.664 107.667 100.79 108.253 101.042C108.845 101.294 109.302 101.651 109.624 102.114C109.952 102.571 110.119 103.102 110.125 103.705C110.119 104.303 109.952 104.83 109.624 105.287C109.302 105.738 108.845 106.087 108.253 106.333C107.667 106.579 106.996 106.702 106.24 106.702C105.479 106.702 104.802 106.579 104.21 106.333C103.624 106.087 103.167 105.738 102.839 105.287C102.511 104.83 102.347 104.303 102.347 103.705C102.347 103.102 102.511 102.571 102.839 102.114C103.167 101.651 103.624 101.294 104.21 101.042C104.802 100.79 105.479 100.664 106.24 100.664ZM106.24 102.176C105.842 102.176 105.49 102.234 105.186 102.352C104.881 102.469 104.646 102.645 104.482 102.879C104.318 103.113 104.236 103.389 104.236 103.705C104.236 104.021 104.318 104.291 104.482 104.514C104.646 104.736 104.881 104.909 105.186 105.032C105.49 105.149 105.842 105.205 106.24 105.199C106.639 105.205 106.99 105.149 107.295 105.032C107.605 104.909 107.846 104.736 108.016 104.514C108.186 104.291 108.271 104.021 108.271 103.705C108.271 103.389 108.186 103.113 108.016 102.879C107.846 102.645 107.605 102.469 107.295 102.352C106.99 102.234 106.639 102.176 106.24 102.176ZM107.225 99.2227H105.265V96.6826H107.225V99.2227ZM114.669 112.266H103.867V110.666H114.669V112.266ZM105.81 111.334H103.867V107.634H105.81V111.334ZM134.585 108.17H132.625V96.6914H134.585V108.17ZM135.033 112.266H124.073V110.666H135.033V112.266ZM126.042 111.29H124.073V107.01H126.042V111.29ZM125.928 97.7285C126.725 97.7285 127.448 97.9014 128.099 98.2471C128.755 98.5869 129.271 99.0586 129.646 99.6621C130.021 100.26 130.208 100.937 130.208 101.692C130.208 102.466 130.021 103.157 129.646 103.767C129.271 104.37 128.758 104.842 128.107 105.182C127.457 105.521 126.73 105.691 125.928 105.691C125.125 105.691 124.398 105.521 123.748 105.182C123.104 104.842 122.591 104.37 122.21 103.767C121.835 103.157 121.647 102.466 121.647 101.692C121.647 100.937 121.835 100.26 122.21 99.6621C122.591 99.0586 123.104 98.5869 123.748 98.2471C124.398 97.9014 125.125 97.7285 125.928 97.7285ZM125.928 99.4424C125.477 99.4424 125.069 99.5361 124.706 99.7236C124.349 99.9053 124.067 100.169 123.862 100.515C123.657 100.854 123.555 101.247 123.555 101.692C123.555 102.155 123.657 102.56 123.862 102.905C124.067 103.251 124.349 103.518 124.706 103.705C125.069 103.893 125.477 103.983 125.928 103.978C126.373 103.983 126.774 103.893 127.132 103.705C127.489 103.518 127.768 103.251 127.967 102.905C128.172 102.56 128.274 102.155 128.274 101.692C128.274 101.247 128.172 100.854 127.967 100.515C127.768 100.169 127.489 99.9053 127.132 99.7236C126.774 99.5361 126.373 99.4424 125.928 99.4424ZM142.231 100.488C142.226 101.766 142.05 102.981 141.704 104.136C141.364 105.284 140.86 106.307 140.192 107.203C139.53 108.1 138.739 108.782 137.819 109.251L136.606 107.669C137.438 107.276 138.156 106.705 138.76 105.955C139.369 105.199 139.832 104.35 140.148 103.406C140.471 102.463 140.635 101.49 140.641 100.488V97.9482H142.231V100.488ZM142.583 100.488C142.583 101.455 142.735 102.39 143.04 103.292C143.351 104.194 143.796 105.006 144.376 105.727C144.962 106.447 145.653 107.001 146.45 107.388L145.272 108.943C144.376 108.492 143.608 107.836 142.97 106.975C142.331 106.113 141.845 105.129 141.511 104.021C141.183 102.908 141.021 101.73 141.027 100.488V97.9482H142.583V100.488ZM149.359 112.547H147.408V96.6738H149.359V112.547ZM151.812 104.566H148.92V102.905H151.812V104.566ZM165.689 112.591H163.712V96.6738H165.689V112.591ZM157.129 97.834C157.926 97.834 158.638 98.0625 159.265 98.5195C159.892 98.9766 160.381 99.6328 160.732 100.488C161.084 101.338 161.26 102.322 161.26 103.441C161.26 104.572 161.084 105.562 160.732 106.412C160.381 107.262 159.892 107.918 159.265 108.381C158.638 108.838 157.926 109.066 157.129 109.066C156.326 109.066 155.611 108.838 154.984 108.381C154.357 107.918 153.865 107.262 153.508 106.412C153.15 105.562 152.975 104.572 152.98 103.441C152.975 102.322 153.15 101.338 153.508 100.488C153.865 99.6328 154.357 98.9766 154.984 98.5195C155.611 98.0625 156.326 97.834 157.129 97.834ZM157.129 99.5918C156.678 99.5918 156.279 99.7441 155.934 100.049C155.594 100.354 155.33 100.799 155.143 101.385C154.961 101.965 154.87 102.65 154.87 103.441C154.87 104.244 154.961 104.936 155.143 105.516C155.33 106.096 155.594 106.538 155.934 106.843C156.279 107.147 156.678 107.297 157.129 107.291C157.574 107.297 157.967 107.147 158.307 106.843C158.646 106.538 158.91 106.096 159.098 105.516C159.285 104.936 159.379 104.244 159.379 103.441C159.379 102.645 159.285 101.959 159.098 101.385C158.91 100.805 158.646 100.362 158.307 100.058C157.967 99.7471 157.574 99.5918 157.129 99.5918ZM180.938 106.562H169.794V105.015H180.938V106.562ZM182.556 110.631H168.036V109.04H182.556V110.631ZM180.798 99.5127H171.78V105.437H169.794V97.9131H180.798V99.5127ZM180.438 102.949H171.191V101.411H180.438V102.949ZM198.095 105.349H183.575V103.881H198.095V105.349ZM196.337 109.919H187.223V111.483H185.263V108.662H194.395V107.687H185.254V106.298H196.337V109.919ZM196.812 112.389H185.263V111.035H196.812V112.389ZM196.302 100.611H187.354V102.079H185.412V99.3457H194.333V98.3789H185.368V97.0254H196.302V100.611ZM196.574 102.984H185.412V101.648H196.574V102.984ZM217.958 110.648H203.438V109.049H217.958V110.648ZM211.621 109.471H209.696V105.48H211.621V109.471ZM206.989 100.33H214.346V97.7285H216.288V105.946H205.029V97.7285H206.989V100.33ZM214.346 104.382V101.886H206.989V104.382H214.346ZM230.711 99.6973H220.489V98.124H230.711V99.6973ZM233.462 110.508H218.995V108.917H233.462V110.508ZM226.264 109.734H224.339V103.38H226.264V109.734ZM231.95 99.8467C231.944 101.153 231.906 102.346 231.836 103.424C231.766 104.496 231.599 105.744 231.335 107.168L229.357 106.957C229.545 106.014 229.683 105.123 229.771 104.285C229.864 103.441 229.923 102.7 229.946 102.062C229.97 101.423 229.981 100.658 229.981 99.7676V99.6621V98.124H231.95V99.6621V99.8467ZM252.06 105.498H250.1V96.6914H252.06V105.498ZM244.378 98.8008C244.372 99.7852 244.19 100.708 243.833 101.569C243.476 102.431 242.951 103.181 242.26 103.819C241.574 104.458 240.751 104.93 239.79 105.234L238.823 103.696C239.661 103.433 240.373 103.049 240.959 102.545C241.551 102.035 241.996 101.461 242.295 100.822C242.594 100.178 242.743 99.5039 242.743 98.8008V97.2451H244.378V98.8008ZM244.765 98.8008C244.759 99.4746 244.902 100.116 245.195 100.726C245.494 101.335 245.931 101.877 246.505 102.352C247.085 102.826 247.788 103.181 248.614 103.415L247.674 104.962C246.713 104.663 245.893 104.212 245.213 103.608C244.533 102.999 244.015 102.287 243.657 101.473C243.306 100.652 243.13 99.7617 243.13 98.8008V97.2451H244.765V98.8008ZM252.156 107.836H241.337V106.289H252.156V107.836ZM252.306 112.362H241.196V110.789H252.306V112.362ZM245.274 111.738H243.35V106.878H245.274V111.738ZM250.161 111.738H248.228V106.878H250.161V111.738ZM266.834 112.591H264.883V96.6738H266.834V112.591ZM269.286 104.312H266.395V102.703H269.286V104.312ZM256.349 107.071C257.825 107.071 259.12 107.036 260.233 106.966C261.347 106.89 262.472 106.749 263.608 106.544L263.828 108.196C262.668 108.401 261.525 108.536 260.4 108.601C259.275 108.665 257.925 108.694 256.349 108.688H255.039V107.071H256.349ZM262.475 99.7676H256.99V107.862H255.039V98.1768H262.475V99.7676ZM281.854 100.866H277.662V99.2754H281.854V100.866ZM281.907 104.259H277.662V102.694H281.907V104.259ZM278.093 105.63H270.64V98.001H278.093V105.63ZM272.582 104.101H276.177V99.5654H272.582V104.101ZM283.252 108.258H281.301V96.6914H283.252V108.258ZM283.595 112.266H272.775V110.666H283.595V112.266ZM274.762 111.457H272.775V107.186H274.762V111.457ZM105.062 124.697H94.8848V123.124H105.062V124.697ZM107.901 135.508H93.4346V133.917H107.901V135.508ZM98.6201 134.462H96.6689V128.846H98.6201V134.462ZM106.451 124.838C106.451 125.705 106.439 126.461 106.416 127.105C106.398 127.744 106.346 128.479 106.258 129.312C106.176 130.138 106.047 131.025 105.871 131.975L103.946 131.79C104.116 130.894 104.239 130.047 104.315 129.25C104.397 128.447 104.447 127.741 104.465 127.132C104.488 126.517 104.5 125.758 104.5 124.855V124.75V123.124H106.451V124.75V124.838ZM102.566 134.462H100.642V128.846H102.566V134.462ZM121.577 134.084H119.617V121.674H121.577V134.084ZM123.722 128.626H120.856V127.009H123.722V128.626ZM122.131 137.266H111.118V135.666H122.131V137.266ZM113.087 136.149H111.118V133.258H113.087V136.149ZM114.792 131.614H112.841V129.347H114.792V131.614ZM108.842 130.911C110.717 130.905 112.48 130.867 114.133 130.797C115.791 130.727 117.347 130.58 118.8 130.357L118.949 131.72C117.549 131.983 116.096 132.162 114.59 132.256C113.09 132.35 111.391 132.411 109.492 132.44C109.404 132.44 109.331 132.44 109.272 132.44C109.214 132.44 109.141 132.44 109.053 132.44L108.842 130.911ZM118.369 124.478H109.246V123.062H118.369V124.478ZM113.799 124.996C114.566 125.002 115.24 125.102 115.82 125.295C116.4 125.488 116.849 125.772 117.165 126.147C117.481 126.517 117.64 126.959 117.64 127.475C117.64 127.967 117.481 128.395 117.165 128.758C116.849 129.121 116.4 129.402 115.82 129.602C115.24 129.801 114.566 129.9 113.799 129.9C113.031 129.9 112.36 129.801 111.786 129.602C111.212 129.402 110.764 129.121 110.441 128.758C110.125 128.395 109.967 127.967 109.967 127.475C109.967 126.965 110.125 126.522 110.441 126.147C110.764 125.772 111.212 125.488 111.786 125.295C112.36 125.102 113.031 125.002 113.799 124.996ZM113.799 126.332C113.389 126.332 113.034 126.376 112.735 126.464C112.442 126.546 112.22 126.675 112.067 126.851C111.915 127.021 111.839 127.229 111.839 127.475C111.839 127.697 111.915 127.891 112.067 128.055C112.22 128.219 112.442 128.348 112.735 128.441C113.034 128.529 113.389 128.573 113.799 128.573C114.209 128.573 114.561 128.529 114.854 128.441C115.152 128.348 115.378 128.219 115.53 128.055C115.688 127.891 115.768 127.697 115.768 127.475C115.768 127.229 115.691 127.021 115.539 126.851C115.387 126.675 115.161 126.546 114.862 126.464C114.563 126.376 114.209 126.332 113.799 126.332ZM114.792 123.704H112.841V121.63H114.792V123.704ZM131.781 121.929C132.977 121.929 134.002 122.031 134.857 122.236C135.719 122.441 136.372 122.749 136.817 123.159C137.263 123.563 137.485 124.056 137.485 124.636C137.485 125.228 137.263 125.729 136.817 126.139C136.372 126.549 135.722 126.859 134.866 127.07C134.011 127.275 132.982 127.381 131.781 127.387C130.568 127.381 129.534 127.275 128.679 127.07C127.823 126.859 127.17 126.549 126.719 126.139C126.268 125.729 126.042 125.228 126.042 124.636C126.042 124.056 126.268 123.563 126.719 123.159C127.17 122.749 127.823 122.441 128.679 122.236C129.54 122.031 130.574 121.929 131.781 121.929ZM131.781 123.361C130.967 123.361 130.284 123.411 129.733 123.511C129.188 123.61 128.775 123.757 128.494 123.95C128.219 124.138 128.084 124.366 128.09 124.636C128.084 124.929 128.219 125.172 128.494 125.365C128.775 125.553 129.183 125.693 129.716 125.787C130.255 125.881 130.943 125.928 131.781 125.928C132.613 125.928 133.299 125.881 133.838 125.787C134.383 125.693 134.793 125.553 135.068 125.365C135.344 125.172 135.481 124.929 135.481 124.636C135.481 124.366 135.344 124.138 135.068 123.95C134.793 123.757 134.377 123.61 133.82 123.511C133.27 123.411 132.59 123.361 131.781 123.361ZM139.015 129.804H124.548V128.239H139.015V129.804ZM137.222 134.752H128.187V136.343H126.253V133.372H135.288V132.309H126.244V130.867H137.222V134.752ZM137.652 137.424H126.253V135.93H137.652V137.424ZM152.321 123.001C152.321 123.997 152.043 124.92 151.486 125.77C150.936 126.613 150.165 127.319 149.175 127.888C148.185 128.456 147.054 128.837 145.782 129.03L145.009 127.448C146.104 127.308 147.08 127.012 147.936 126.561C148.791 126.109 149.45 125.573 149.913 124.952C150.376 124.325 150.607 123.675 150.607 123.001V122.184H152.321V123.001ZM152.655 123.001C152.655 123.675 152.893 124.325 153.367 124.952C153.842 125.573 154.504 126.109 155.354 126.561C156.203 127.012 157.179 127.308 158.28 127.448L157.507 129.03C156.235 128.837 155.102 128.456 154.105 127.888C153.115 127.313 152.342 126.604 151.785 125.761C151.229 124.917 150.95 123.997 150.95 123.001V122.184H152.655V123.001ZM152.55 137.547H150.625V131.641H152.55V137.547ZM158.86 132.019H144.394V130.41H158.86V132.019ZM161.866 129.074C163.519 129.068 164.881 129.033 165.953 128.969C167.031 128.904 168.121 128.778 169.223 128.591L169.425 130.155C168.288 130.36 167.151 130.501 166.015 130.577C164.884 130.647 163.501 130.68 161.866 130.674H160.565V129.074H161.866ZM167.808 127.299H162.508V129.856H160.565V125.796H165.892V124.161H160.539V122.597H167.808V127.299ZM172.475 131.333H170.523V121.691H172.475V131.333ZM174.716 127.185H171.886V125.585H174.716V127.185ZM172.475 137.547H170.523V133.662H161.884V132.089H172.475V137.547ZM183.241 125.77H175.472V124.205H183.241V125.77ZM179.374 126.604C180.042 126.604 180.64 126.763 181.167 127.079C181.694 127.396 182.104 127.835 182.397 128.397C182.696 128.96 182.849 129.599 182.854 130.313C182.849 131.034 182.696 131.679 182.397 132.247C182.104 132.81 181.694 133.252 181.167 133.574C180.64 133.896 180.042 134.058 179.374 134.058C178.718 134.058 178.123 133.896 177.59 133.574C177.062 133.252 176.649 132.81 176.351 132.247C176.058 131.679 175.911 131.034 175.911 130.313C175.911 129.604 176.061 128.969 176.359 128.406C176.658 127.838 177.071 127.396 177.599 127.079C178.126 126.763 178.718 126.604 179.374 126.604ZM179.374 128.23C179.034 128.23 178.732 128.318 178.469 128.494C178.211 128.664 178.006 128.907 177.854 129.224C177.707 129.534 177.637 129.897 177.643 130.313C177.637 130.735 177.707 131.102 177.854 131.412C178.006 131.717 178.211 131.954 178.469 132.124C178.732 132.294 179.034 132.379 179.374 132.379C179.714 132.379 180.016 132.294 180.279 132.124C180.549 131.954 180.757 131.717 180.903 131.412C181.056 131.102 181.132 130.735 181.132 130.313C181.132 129.897 181.056 129.534 180.903 129.224C180.757 128.907 180.549 128.664 180.279 128.494C180.016 128.318 179.714 128.23 179.374 128.23ZM189.156 137.547H187.293V121.674H189.156V137.547ZM187.908 129.786H185.122V128.213H187.908V129.786ZM185.746 136.835H183.909V122.017H185.746V136.835ZM180.341 125.181H178.416V122.131H180.341V125.181ZM198.877 123.924C198.877 124.855 198.61 125.708 198.077 126.481C197.55 127.249 196.806 127.894 195.845 128.415C194.884 128.937 193.785 129.288 192.549 129.47L191.811 127.94C192.865 127.8 193.8 127.527 194.614 127.123C195.429 126.719 196.059 126.238 196.504 125.682C196.949 125.119 197.172 124.533 197.172 123.924V123.379H198.877V123.924ZM199.422 123.924C199.422 124.533 199.642 125.119 200.081 125.682C200.526 126.238 201.156 126.719 201.971 127.123C202.785 127.527 203.723 127.8 204.783 127.94L204.08 129.47C202.832 129.288 201.725 128.937 200.758 128.415C199.797 127.894 199.05 127.249 198.517 126.481C197.983 125.708 197.717 124.855 197.717 123.924V123.379H199.422V123.924ZM199.22 137.556H197.295V131.632H199.22V137.556ZM205.53 132.106H191.063V130.533H205.53V132.106ZM204.203 124.108H192.373V122.57H204.203V124.108ZM215.761 128.758H212.913V127.149H215.761V128.758ZM211.19 125.928C211.19 127.123 211.056 128.263 210.786 129.347C210.522 130.431 210.118 131.406 209.573 132.273C209.028 133.135 208.357 133.806 207.561 134.286L206.356 132.836C207.095 132.385 207.713 131.796 208.211 131.069C208.709 130.337 209.078 129.534 209.318 128.661C209.559 127.788 209.682 126.877 209.688 125.928V123.089H211.19V125.928ZM211.577 125.849C211.577 126.757 211.683 127.624 211.894 128.45C212.11 129.276 212.444 130.038 212.896 130.735C213.347 131.427 213.918 131.989 214.609 132.423L213.537 133.935C212.746 133.46 212.093 132.801 211.577 131.957C211.062 131.113 210.684 130.176 210.443 129.145C210.209 128.113 210.095 127.015 210.101 125.849V123.089H211.577V125.849ZM220.322 137.547H218.441V121.674H220.322V137.547ZM217.009 136.8H215.181V121.946H217.009V136.8ZM227.459 134.348H225.534V129.795H227.459V134.348ZM233.339 134.348H231.37V129.795H233.339V134.348ZM236.696 135.64H222.177V134.031H236.696V135.64ZM229.41 122.526C230.541 122.526 231.555 122.702 232.451 123.054C233.348 123.399 234.051 123.892 234.561 124.53C235.07 125.169 235.325 125.901 235.325 126.728C235.325 127.56 235.07 128.292 234.561 128.925C234.057 129.558 233.354 130.05 232.451 130.401C231.555 130.747 230.541 130.92 229.41 130.92C228.268 130.92 227.248 130.747 226.352 130.401C225.461 130.05 224.761 129.558 224.251 128.925C223.747 128.292 223.495 127.56 223.495 126.728C223.495 125.901 223.747 125.169 224.251 124.53C224.761 123.892 225.461 123.399 226.352 123.054C227.248 122.702 228.268 122.526 229.41 122.526ZM229.41 124.091C228.613 124.085 227.913 124.188 227.31 124.398C226.706 124.609 226.237 124.917 225.903 125.321C225.575 125.72 225.411 126.188 225.411 126.728C225.411 127.267 225.575 127.738 225.903 128.143C226.237 128.541 226.706 128.852 227.31 129.074C227.913 129.291 228.613 129.399 229.41 129.399C230.189 129.399 230.881 129.288 231.484 129.065C232.088 128.843 232.557 128.532 232.891 128.134C233.23 127.735 233.4 127.267 233.4 126.728C233.4 126.188 233.23 125.72 232.891 125.321C232.557 124.917 232.088 124.609 231.484 124.398C230.881 124.188 230.189 124.085 229.41 124.091ZM239.658 136.141C239.406 136.141 239.175 136.079 238.964 135.956C238.759 135.833 238.595 135.666 238.472 135.455C238.349 135.244 238.29 135.016 238.296 134.77C238.29 134.529 238.349 134.307 238.472 134.102C238.595 133.891 238.759 133.727 238.964 133.609C239.175 133.486 239.406 133.425 239.658 133.425C239.898 133.425 240.121 133.486 240.326 133.609C240.537 133.727 240.704 133.891 240.827 134.102C240.95 134.307 241.012 134.529 241.012 134.77C241.012 135.016 240.95 135.244 240.827 135.455C240.704 135.666 240.537 135.833 240.326 135.956C240.121 136.079 239.898 136.141 239.658 136.141Z" fill="white"/>
<g filter="url(#filter0_d_1976_11756)">
<rect x="-36" y="166" width="53" height="33" rx="16.5" fill="white" fill-opacity="0.05" shape-rendering="crispEdges"/>
<rect x="-35.5" y="166.5" width="52" height="32" rx="16" stroke="white" stroke-opacity="0.08" shape-rendering="crispEdges"/>
<path d="M-13.3555 179.5H-19.6426V178.469H-13.3555V179.5ZM-16.4961 179.904C-15.9883 179.908 -15.5391 179.99 -15.1484 180.15C-14.7578 180.311 -14.4551 180.537 -14.2402 180.83C-14.0215 181.123 -13.9102 181.461 -13.9062 181.844C-13.9102 182.227 -14.0215 182.564 -14.2402 182.857C-14.4551 183.15 -14.7598 183.379 -15.1543 183.543C-15.5449 183.703 -15.9922 183.783 -16.4961 183.783C-17 183.783 -17.4492 183.703 -17.8438 183.543C-18.2383 183.379 -18.5449 183.15 -18.7637 182.857C-18.9824 182.564 -19.0918 182.227 -19.0918 181.844C-19.0918 181.461 -18.9824 181.123 -18.7637 180.83C-18.5449 180.537 -18.2402 180.311 -17.8496 180.15C-17.4551 179.99 -17.0039 179.908 -16.4961 179.904ZM-16.4961 180.889C-16.7617 180.893 -16.9961 180.934 -17.1992 181.012C-17.4023 181.086 -17.5586 181.195 -17.668 181.34C-17.7773 181.48 -17.832 181.648 -17.832 181.844C-17.832 182.039 -17.7773 182.207 -17.668 182.348C-17.5586 182.484 -17.4043 182.59 -17.2051 182.664C-17.002 182.738 -16.7656 182.775 -16.4961 182.775C-16.2266 182.775 -15.9902 182.738 -15.7871 182.664C-15.584 182.59 -15.4258 182.484 -15.3125 182.348C-15.1992 182.207 -15.1426 182.039 -15.1426 181.844C-15.1426 181.648 -15.1992 181.48 -15.3125 181.34C-15.4258 181.195 -15.584 181.086 -15.7871 181.012C-15.9902 180.934 -16.2266 180.893 -16.4961 180.889ZM-11.293 184.088H-12.5938V177.449H-11.293V184.088ZM-9.81055 181.334H-11.6621V180.262H-9.81055V181.334ZM-11.293 188.031H-12.5938V185.617H-18.3535V184.574H-11.293V188.031ZM-15.8398 179.043H-17.1465V177.402H-15.8398V179.043ZM-1.31445 179.025H-8.08203V177.971H-1.31445V179.025ZM0.408203 183.039H-9.27148V182.008H0.408203V183.039ZM-3.73438 185.4H-5.0293V182.623H-3.73438V185.4ZM-0.78125 178.855C-0.78125 179.543 -0.800781 180.154 -0.839844 180.689C-0.875 181.221 -0.966797 181.83 -1.11523 182.518L-2.42188 182.377C-2.31641 181.932 -2.24023 181.512 -2.19336 181.117C-2.14258 180.719 -2.11133 180.365 -2.09961 180.057C-2.08789 179.748 -2.08203 179.379 -2.08203 178.949V178.855V177.971H-0.78125V178.855ZM-0.599609 187.844H-8.11719V186.777H-0.599609V187.844ZM-6.81055 187.041H-8.11719V184.445H-6.81055V187.041Z" fill="#FF8833"/>
</g>
<g filter="url(#filter1_d_1976_11756)">
<rect x="25" y="166" width="100" height="33" rx="16.5" fill="white" fill-opacity="0.05" shape-rendering="crispEdges"/>
<rect x="25.5" y="166.5" width="99" height="32" rx="16" stroke="white" stroke-opacity="0.08" shape-rendering="crispEdges"/>
<path d="M44.4277 179.412C44.4277 179.998 44.3359 180.564 44.1523 181.111C43.9688 181.654 43.6914 182.143 43.3203 182.576C42.9492 183.006 42.498 183.334 41.9668 183.561L41.2578 182.553C41.7227 182.35 42.1172 182.078 42.4414 181.738C42.7656 181.398 43.0059 181.029 43.1621 180.631C43.3184 180.229 43.3984 179.822 43.4023 179.412V178.105H44.4277V179.412ZM44.6621 179.412C44.6621 179.807 44.7383 180.188 44.8906 180.555C45.0469 180.918 45.2773 181.248 45.582 181.545C45.8906 181.838 46.2695 182.07 46.7188 182.242L46.0273 183.232C45.5 183.033 45.0566 182.74 44.6973 182.354C44.3418 181.967 44.0742 181.521 43.8945 181.018C43.7188 180.514 43.6328 179.979 43.6367 179.412V178.105H44.6621V179.412ZM50.4102 183.959H49.168V177.461H50.4102V183.959ZM49.5312 181.193H47.7207V180.133H49.5312V181.193ZM48.1133 183.625H46.9004V177.654H48.1133V183.625ZM46.8359 184.129C47.5664 184.129 48.2051 184.207 48.752 184.363C49.2988 184.516 49.7207 184.738 50.0176 185.031C50.3145 185.324 50.4629 185.674 50.4629 186.08C50.4629 186.482 50.3145 186.828 50.0176 187.117C49.7207 187.41 49.2988 187.635 48.752 187.791C48.2051 187.947 47.5664 188.025 46.8359 188.025C46.0938 188.025 45.4492 187.947 44.9023 187.791C44.3555 187.635 43.9355 187.41 43.6426 187.117C43.3496 186.828 43.2051 186.482 43.209 186.08C43.2051 185.674 43.3496 185.324 43.6426 185.031C43.9355 184.738 44.3555 184.516 44.9023 184.363C45.4492 184.207 46.0938 184.129 46.8359 184.129ZM46.8359 185.107C46.3438 185.107 45.9238 185.145 45.5762 185.219C45.2285 185.293 44.9629 185.404 44.7793 185.553C44.5996 185.697 44.5098 185.873 44.5098 186.08C44.5098 186.287 44.5996 186.463 44.7793 186.607C44.9629 186.748 45.2285 186.855 45.5762 186.93C45.9238 187.004 46.3438 187.041 46.8359 187.041C47.3203 187.041 47.7363 187.004 48.084 186.93C48.4316 186.855 48.6973 186.748 48.8809 186.607C49.0645 186.463 49.1582 186.287 49.1621 186.08C49.1582 185.873 49.0645 185.697 48.8809 185.553C48.6973 185.404 48.4297 185.293 48.0781 185.219C47.7305 185.145 47.3164 185.107 46.8359 185.107ZM60.1191 183.689H58.8125V177.449H60.1191V183.689ZM61.5488 181.117H59.6387V180.021H61.5488V181.117ZM60.1191 186.391H54.3594V187.352H53.0586V185.576H58.8184V184.979H53.041V184.1H60.1191V186.391ZM60.4883 187.949H53.0586V187.064H60.4883V187.949ZM55.5957 183.162H54.2949V181.715H55.5957V183.162ZM51.6289 182.617C52.9609 182.617 54.1602 182.6 55.2266 182.564C56.293 182.525 57.3066 182.441 58.2676 182.312L58.3672 183.139C57.3672 183.307 56.3379 183.414 55.2793 183.461C54.2207 183.508 53.0508 183.531 51.7695 183.531L51.6289 182.617ZM57.9805 179.055H51.8984V178.164H57.9805V179.055ZM54.9336 179.312C55.4492 179.312 55.9004 179.367 56.2871 179.477C56.6738 179.582 56.9707 179.738 57.1777 179.945C57.3887 180.148 57.4941 180.393 57.4941 180.678C57.4941 180.975 57.3887 181.229 57.1777 181.439C56.9707 181.65 56.6738 181.812 56.2871 181.926C55.9043 182.039 55.4531 182.098 54.9336 182.102C54.4141 182.098 53.9629 182.039 53.5801 181.926C53.1973 181.812 52.9004 181.65 52.6895 181.439C52.4824 181.229 52.3789 180.975 52.3789 180.678C52.3789 180.393 52.4824 180.148 52.6895 179.945C52.9004 179.738 53.1973 179.582 53.5801 179.477C53.9668 179.367 54.418 179.312 54.9336 179.312ZM54.9336 180.133C54.6523 180.133 54.4141 180.154 54.2188 180.197C54.0273 180.236 53.8809 180.297 53.7793 180.379C53.6777 180.461 53.627 180.561 53.627 180.678C53.627 180.803 53.6777 180.908 53.7793 180.994C53.8809 181.076 54.0293 181.143 54.2246 181.193C54.4238 181.24 54.6602 181.264 54.9336 181.264C55.207 181.264 55.4414 181.24 55.6367 181.193C55.8359 181.143 55.9863 181.076 56.0879 180.994C56.1934 180.908 56.2461 180.803 56.2461 180.678C56.2461 180.561 56.1953 180.461 56.0938 180.379C55.9922 180.297 55.8438 180.236 55.6484 180.197C55.4531 180.154 55.2148 180.133 54.9336 180.133ZM55.5957 178.662H54.2949V177.361H55.5957V178.662ZM73.8242 185.277H72.5234V177.449H73.8242V185.277ZM70.8711 179.289H65.2402V178.246H70.8711V179.289ZM65.0176 182.811C66.2129 182.807 67.3066 182.789 68.2988 182.758C69.2949 182.727 70.2266 182.662 71.0938 182.564L71.1465 183.525C70.252 183.666 69.2969 183.762 68.2812 183.812C67.2656 183.859 66.207 183.885 65.1055 183.889L64.959 182.811H65.0176ZM67.4258 182.975H66.166V179.16H67.4258V182.975ZM69.9277 182.975H68.6797V179.16H69.9277V182.975ZM73.2148 180.42H71.0293V179.371H73.2148V180.42ZM73.2148 182.512H71.0293V181.439H73.2148V182.512ZM74.0879 187.844H66.8574V186.777H74.0879V187.844ZM68.1699 187.545H66.8574V184.668H68.1699V187.545ZM78.7637 178.176C79.3145 178.176 79.8105 178.285 80.252 178.504C80.6973 178.723 81.0449 179.027 81.2949 179.418C81.5449 179.809 81.6699 180.25 81.6699 180.742C81.6699 181.238 81.5449 181.682 81.2949 182.072C81.0449 182.459 80.6973 182.762 80.252 182.98C79.8105 183.199 79.3145 183.309 78.7637 183.309C78.2129 183.309 77.7148 183.199 77.2695 182.98C76.8281 182.762 76.4805 182.459 76.2266 182.072C75.9766 181.682 75.8516 181.238 75.8516 180.742C75.8516 180.25 75.9766 179.809 76.2266 179.418C76.4805 179.027 76.8281 178.723 77.2695 178.504C77.7148 178.285 78.2129 178.176 78.7637 178.176ZM78.7637 179.307C78.4551 179.311 78.1777 179.371 77.9316 179.488C77.6855 179.602 77.4922 179.768 77.3516 179.986C77.2109 180.205 77.1406 180.457 77.1406 180.742C77.1406 181.031 77.2109 181.283 77.3516 181.498C77.4922 181.713 77.6855 181.879 77.9316 181.996C78.1777 182.113 78.4551 182.174 78.7637 182.178C79.0762 182.174 79.3555 182.113 79.6016 181.996C79.8516 181.879 80.0449 181.713 80.1816 181.498C80.3223 181.283 80.3926 181.031 80.3926 180.742C80.3926 180.457 80.3223 180.205 80.1816 179.986C80.0449 179.768 79.8516 179.602 79.6016 179.488C79.3555 179.371 79.0762 179.311 78.7637 179.307ZM84.1426 188.061H82.8535V177.449H84.1426V188.061ZM75.3711 184.773C76.6562 184.773 77.8652 184.752 78.998 184.709C80.1309 184.662 81.2031 184.566 82.2148 184.422L82.3145 185.371C81.584 185.508 80.8242 185.611 80.0352 185.682C79.2461 185.748 78.5039 185.791 77.8086 185.811C77.1172 185.83 76.3594 185.84 75.5352 185.84L75.3711 184.773ZM92.3164 179.992C92.3164 180.875 92.1953 181.707 91.9531 182.488C91.7148 183.27 91.3633 183.959 90.8984 184.557C90.4375 185.154 89.8848 185.605 89.2402 185.91L88.4434 184.82C89.0176 184.574 89.5156 184.203 89.9375 183.707C90.3594 183.207 90.6816 182.637 90.9043 181.996C91.127 181.352 91.2402 180.684 91.2441 179.992V178.299H92.3164V179.992ZM92.5566 179.992C92.5566 180.648 92.666 181.283 92.8848 181.896C93.1035 182.51 93.4199 183.059 93.834 183.543C94.248 184.023 94.7363 184.383 95.2988 184.621L94.5254 185.664C93.8926 185.371 93.3477 184.939 92.8906 184.369C92.4336 183.795 92.084 183.133 91.8418 182.383C91.5996 181.633 91.4785 180.836 91.4785 179.992V178.299H92.5566V179.992ZM97.3672 188.061H96.0488V177.449H97.3672V188.061ZM107.064 180.197H104.387V179.154H107.064V180.197ZM107.797 182.869H106.496V177.449H107.797V182.869ZM107.797 186.068H102.125V187.504H100.842V185.107H106.502V184.352H100.818V183.332H107.797V186.068ZM108.131 187.908H100.842V186.883H108.131V187.908ZM102.512 178.645C102.512 179.312 102.398 179.932 102.172 180.502C101.945 181.068 101.609 181.562 101.164 181.984C100.723 182.406 100.186 182.723 99.5527 182.934L98.8672 181.891C99.4219 181.723 99.8926 181.475 100.279 181.146C100.67 180.818 100.963 180.441 101.158 180.016C101.357 179.586 101.459 179.129 101.463 178.645V177.801H102.512V178.645ZM102.77 178.645C102.77 179.09 102.863 179.512 103.051 179.91C103.242 180.309 103.525 180.664 103.9 180.977C104.275 181.289 104.729 181.527 105.26 181.691L104.574 182.699C103.965 182.496 103.445 182.195 103.016 181.797C102.586 181.398 102.258 180.93 102.031 180.391C101.809 179.852 101.699 179.27 101.703 178.645V177.801H102.77V178.645Z" fill="#FF8833"/>
</g>
<g filter="url(#filter2_d_1976_11756)">
<rect x="133" y="166" width="74" height="33" rx="16.5" fill="white" fill-opacity="0.05" shape-rendering="crispEdges"/>
<rect x="133.5" y="166.5" width="73" height="32" rx="16" stroke="white" stroke-opacity="0.08" shape-rendering="crispEdges"/>
<path d="M158.199 188.031H156.881V177.449H158.199V188.031ZM155.041 178.574C155.037 179.68 154.877 180.693 154.561 181.615C154.244 182.533 153.721 183.379 152.99 184.152C152.264 184.926 151.303 185.596 150.107 186.162L149.416 185.119C150.436 184.635 151.264 184.084 151.9 183.467C152.537 182.846 153.004 182.152 153.301 181.387C153.598 180.621 153.746 179.758 153.746 178.797V178.574H155.041ZM154.332 179.605H149.955V178.574H154.332V179.605ZM168.57 188.031H167.252V177.449H168.57V188.031ZM165.992 179.547H159.986V178.486H165.992V179.547ZM159.705 184.469C160.936 184.465 162.119 184.441 163.256 184.398C164.396 184.355 165.465 184.275 166.461 184.158L166.537 185.125C165.525 185.289 164.479 185.398 163.396 185.453C162.314 185.504 161.127 185.533 159.834 185.541L159.705 184.469ZM162.271 184.75H161.006V179.295H162.271V184.75ZM164.973 184.75H163.695V179.295H164.973V184.75ZM173.855 179.992C173.855 180.875 173.734 181.707 173.492 182.488C173.254 183.27 172.902 183.959 172.438 184.557C171.977 185.154 171.424 185.605 170.779 185.91L169.982 184.82C170.557 184.574 171.055 184.203 171.477 183.707C171.898 183.207 172.221 182.637 172.443 181.996C172.666 181.352 172.779 180.684 172.783 179.992V178.299H173.855V179.992ZM174.096 179.992C174.096 180.648 174.205 181.283 174.424 181.896C174.643 182.51 174.959 183.059 175.373 183.543C175.787 184.023 176.275 184.383 176.838 184.621L176.064 185.664C175.432 185.371 174.887 184.939 174.43 184.369C173.973 183.795 173.623 183.133 173.381 182.383C173.139 181.633 173.018 180.836 173.018 179.992V178.299H174.096V179.992ZM178.906 188.061H177.588V177.449H178.906V188.061ZM188.604 180.197H185.926V179.154H188.604V180.197ZM189.336 182.869H188.035V177.449H189.336V182.869ZM189.336 186.068H183.664V187.504H182.381V185.107H188.041V184.352H182.357V183.332H189.336V186.068ZM189.67 187.908H182.381V186.883H189.67V187.908ZM184.051 178.645C184.051 179.312 183.938 179.932 183.711 180.502C183.484 181.068 183.148 181.562 182.703 181.984C182.262 182.406 181.725 182.723 181.092 182.934L180.406 181.891C180.961 181.723 181.432 181.475 181.818 181.146C182.209 180.818 182.502 180.441 182.697 180.016C182.896 179.586 182.998 179.129 183.002 178.645V177.801H184.051V178.645ZM184.309 178.645C184.309 179.09 184.402 179.512 184.59 179.91C184.781 180.309 185.064 180.664 185.439 180.977C185.814 181.289 186.268 181.527 186.799 181.691L186.113 182.699C185.504 182.496 184.984 182.195 184.555 181.797C184.125 181.398 183.797 180.93 183.57 180.391C183.348 179.852 183.238 179.27 183.242 178.645V177.801H184.309V178.645Z" fill="#FF8833"/>
</g>
<g filter="url(#filter3_d_1976_11756)">
<rect x="215" y="166" width="74" height="33" rx="16.5" fill="white" fill-opacity="0.05" shape-rendering="crispEdges"/>
<rect x="215.5" y="166.5" width="73" height="32" rx="16" stroke="white" stroke-opacity="0.08" shape-rendering="crispEdges"/>
<path d="M234.885 180.449C234.885 181.234 234.762 181.998 234.516 182.74C234.273 183.482 233.926 184.145 233.473 184.727C233.02 185.309 232.494 185.742 231.896 186.027L231.129 185.002C231.672 184.744 232.15 184.371 232.564 183.883C232.979 183.391 233.295 182.846 233.514 182.248C233.736 181.65 233.85 181.051 233.854 180.449V179.055H234.885V180.449ZM235.154 180.449C235.15 181.012 235.254 181.574 235.465 182.137C235.676 182.695 235.98 183.205 236.379 183.666C236.781 184.127 237.254 184.484 237.797 184.738L237.064 185.764C236.467 185.482 235.945 185.066 235.5 184.516C235.055 183.961 234.713 183.33 234.475 182.623C234.236 181.916 234.117 181.191 234.117 180.449V179.055H235.154V180.449ZM237.369 179.564H231.539V178.498H237.369V179.564ZM239.648 188.031H238.348V177.449H239.648V188.031ZM241.283 182.67H239.355V181.574H241.283V182.67ZM249.756 180.051H246.592V179.002H249.756V180.051ZM249.756 182.605H246.592V181.551H249.756V182.605ZM250.594 185.23H249.293V177.461H250.594V185.23ZM250.863 187.844H243.645V186.777H250.863V187.844ZM244.951 187.293H243.645V184.434H244.951V187.293ZM244.664 178.094C245.176 178.094 245.643 178.211 246.064 178.445C246.49 178.676 246.824 178.998 247.066 179.412C247.312 179.826 247.438 180.293 247.441 180.812C247.438 181.324 247.312 181.785 247.066 182.195C246.82 182.605 246.486 182.928 246.064 183.162C245.643 183.396 245.176 183.514 244.664 183.514C244.137 183.514 243.66 183.396 243.234 183.162C242.809 182.928 242.475 182.605 242.232 182.195C241.99 181.785 241.869 181.324 241.869 180.812C241.869 180.293 241.99 179.826 242.232 179.412C242.475 178.998 242.809 178.676 243.234 178.445C243.66 178.211 244.137 178.094 244.664 178.094ZM244.664 179.254C244.359 179.254 244.09 179.318 243.855 179.447C243.621 179.572 243.438 179.754 243.305 179.992C243.172 180.23 243.105 180.504 243.105 180.812C243.105 181.121 243.172 181.393 243.305 181.627C243.438 181.857 243.621 182.037 243.855 182.166C244.09 182.295 244.359 182.359 244.664 182.359C244.953 182.359 245.213 182.295 245.443 182.166C245.678 182.037 245.861 181.857 245.994 181.627C246.127 181.393 246.193 181.121 246.193 180.812C246.193 180.504 246.127 180.232 245.994 179.998C245.861 179.76 245.678 179.576 245.443 179.447C245.213 179.318 244.953 179.254 244.664 179.254ZM260.49 185.723H259.184V177.449H260.49V185.723ZM261.92 182.084H260.01V181.006H261.92V182.084ZM260.859 187.844H253.518V186.777H260.859V187.844ZM254.83 187.1H253.518V185.172H254.83V187.1ZM255.967 184.076H254.666V182.564H255.967V184.076ZM252 183.607C253.25 183.604 254.426 183.578 255.527 183.531C256.633 183.484 257.67 183.387 258.639 183.238L258.738 184.146C257.805 184.322 256.836 184.441 255.832 184.504C254.832 184.566 253.699 184.607 252.434 184.627C252.375 184.627 252.326 184.627 252.287 184.627C252.248 184.627 252.199 184.627 252.141 184.627L252 183.607ZM258.352 179.318H252.27V178.375H258.352V179.318ZM255.305 179.664C255.816 179.668 256.266 179.734 256.652 179.863C257.039 179.992 257.338 180.182 257.549 180.432C257.76 180.678 257.865 180.973 257.865 181.316C257.865 181.645 257.76 181.93 257.549 182.172C257.338 182.414 257.039 182.602 256.652 182.734C256.266 182.867 255.816 182.934 255.305 182.934C254.793 182.934 254.346 182.867 253.963 182.734C253.58 182.602 253.281 182.414 253.066 182.172C252.855 181.93 252.75 181.645 252.75 181.316C252.75 180.977 252.855 180.682 253.066 180.432C253.281 180.182 253.58 179.992 253.963 179.863C254.346 179.734 254.793 179.668 255.305 179.664ZM255.305 180.555C255.031 180.555 254.795 180.584 254.596 180.643C254.4 180.697 254.252 180.783 254.15 180.9C254.049 181.014 253.998 181.152 253.998 181.316C253.998 181.465 254.049 181.594 254.15 181.703C254.252 181.812 254.4 181.898 254.596 181.961C254.795 182.02 255.031 182.049 255.305 182.049C255.578 182.049 255.812 182.02 256.008 181.961C256.207 181.898 256.357 181.812 256.459 181.703C256.564 181.594 256.617 181.465 256.617 181.316C256.617 181.152 256.566 181.014 256.465 180.9C256.363 180.783 256.213 180.697 256.014 180.643C255.814 180.584 255.578 180.555 255.305 180.555ZM255.967 178.803H254.666V177.42H255.967V178.803ZM270.252 180.285H267.592V179.254H270.252V180.285ZM270.17 182.482H267.516V181.428H270.17V182.482ZM271.336 183.648H270.035V177.461H271.336V183.648ZM267.996 178.199C267.992 179.133 267.803 179.967 267.428 180.701C267.053 181.432 266.502 182.055 265.775 182.57C265.049 183.086 264.154 183.492 263.092 183.789L262.576 182.764C263.467 182.518 264.211 182.199 264.809 181.809C265.41 181.418 265.859 180.973 266.156 180.473C266.453 179.969 266.602 179.416 266.602 178.814V178.199H267.996ZM267.504 179.26H263.127V178.199H267.504V179.26ZM267.826 183.766C268.541 183.766 269.168 183.852 269.707 184.023C270.25 184.195 270.668 184.439 270.961 184.756C271.258 185.072 271.406 185.443 271.406 185.869C271.406 186.299 271.258 186.674 270.961 186.994C270.668 187.311 270.25 187.555 269.707 187.727C269.168 187.898 268.541 187.984 267.826 187.984C267.111 187.984 266.482 187.898 265.939 187.727C265.396 187.555 264.977 187.311 264.68 186.994C264.387 186.674 264.24 186.299 264.24 185.869C264.24 185.443 264.387 185.072 264.68 184.756C264.977 184.439 265.395 184.195 265.934 184.023C266.477 183.852 267.107 183.766 267.826 183.766ZM267.826 184.791C267.354 184.791 266.945 184.832 266.602 184.914C266.258 184.996 265.994 185.119 265.811 185.283C265.627 185.447 265.535 185.643 265.535 185.869C265.535 186.1 265.627 186.295 265.811 186.455C265.994 186.615 266.258 186.738 266.602 186.824C266.945 186.906 267.354 186.947 267.826 186.947C268.295 186.947 268.699 186.906 269.039 186.824C269.383 186.738 269.646 186.615 269.83 186.455C270.014 186.295 270.105 186.1 270.105 185.869C270.105 185.643 270.014 185.447 269.83 185.283C269.646 185.119 269.383 184.996 269.039 184.914C268.699 184.832 268.295 184.791 267.826 184.791Z" fill="#FF8833"/>
</g>
<g filter="url(#filter4_d_1976_11756)">
<rect x="297" y="166" width="74" height="33" rx="16.5" fill="white" fill-opacity="0.05" shape-rendering="crispEdges"/>
<rect x="297.5" y="166.5" width="73" height="32" rx="16" stroke="white" stroke-opacity="0.08" shape-rendering="crispEdges"/>
<path d="M318.566 178.949C318.566 179.57 318.389 180.139 318.033 180.654C317.682 181.166 317.186 181.596 316.545 181.943C315.904 182.291 315.172 182.525 314.348 182.646L313.855 181.627C314.559 181.533 315.182 181.352 315.725 181.082C316.268 180.812 316.688 180.492 316.984 180.121C317.281 179.746 317.43 179.355 317.43 178.949V178.586H318.566V178.949ZM318.93 178.949C318.93 179.355 319.076 179.746 319.369 180.121C319.666 180.492 320.086 180.812 320.629 181.082C321.172 181.352 321.797 181.533 322.504 181.627L322.035 182.646C321.203 182.525 320.465 182.291 319.82 181.943C319.18 181.596 318.682 181.166 318.326 180.654C317.971 180.139 317.793 179.57 317.793 178.949V178.586H318.93V178.949ZM318.795 188.037H317.512V184.088H318.795V188.037ZM323.002 184.404H313.357V183.355H323.002V184.404ZM322.117 179.072H314.23V178.047H322.117V179.072ZM331.756 180.35H328.908V179.283H331.756V180.35ZM331.797 182.605H328.908V181.557H331.797V182.605ZM332.594 185.277H331.293V177.461H332.594V185.277ZM332.822 187.844H325.609V186.777H332.822V187.844ZM326.934 187.357H325.609V184.504H326.934V187.357ZM325.51 179.863H327.877V178.158H329.16V183.561H324.203V178.158H325.51V179.863ZM327.877 182.523V180.865H325.51V182.523H327.877ZM342.49 185.723H341.184V177.449H342.49V185.723ZM343.92 182.084H342.01V181.006H343.92V182.084ZM342.859 187.844H335.518V186.777H342.859V187.844ZM336.83 187.1H335.518V185.172H336.83V187.1ZM337.967 184.076H336.666V182.564H337.967V184.076ZM334 183.607C335.25 183.604 336.426 183.578 337.527 183.531C338.633 183.484 339.67 183.387 340.639 183.238L340.738 184.146C339.805 184.322 338.836 184.441 337.832 184.504C336.832 184.566 335.699 184.607 334.434 184.627C334.375 184.627 334.326 184.627 334.287 184.627C334.248 184.627 334.199 184.627 334.141 184.627L334 183.607ZM340.352 179.318H334.27V178.375H340.352V179.318ZM337.305 179.664C337.816 179.668 338.266 179.734 338.652 179.863C339.039 179.992 339.338 180.182 339.549 180.432C339.76 180.678 339.865 180.973 339.865 181.316C339.865 181.645 339.76 181.93 339.549 182.172C339.338 182.414 339.039 182.602 338.652 182.734C338.266 182.867 337.816 182.934 337.305 182.934C336.793 182.934 336.346 182.867 335.963 182.734C335.58 182.602 335.281 182.414 335.066 182.172C334.855 181.93 334.75 181.645 334.75 181.316C334.75 180.977 334.855 180.682 335.066 180.432C335.281 180.182 335.58 179.992 335.963 179.863C336.346 179.734 336.793 179.668 337.305 179.664ZM337.305 180.555C337.031 180.555 336.795 180.584 336.596 180.643C336.4 180.697 336.252 180.783 336.15 180.9C336.049 181.014 335.998 181.152 335.998 181.316C335.998 181.465 336.049 181.594 336.15 181.703C336.252 181.812 336.4 181.898 336.596 181.961C336.795 182.02 337.031 182.049 337.305 182.049C337.578 182.049 337.812 182.02 338.008 181.961C338.207 181.898 338.357 181.812 338.459 181.703C338.564 181.594 338.617 181.465 338.617 181.316C338.617 181.152 338.566 181.014 338.465 180.9C338.363 180.783 338.213 180.697 338.014 180.643C337.814 180.584 337.578 180.555 337.305 180.555ZM337.967 178.803H336.666V177.42H337.967V178.803ZM352.252 180.285H349.592V179.254H352.252V180.285ZM352.17 182.482H349.516V181.428H352.17V182.482ZM353.336 183.648H352.035V177.461H353.336V183.648ZM349.996 178.199C349.992 179.133 349.803 179.967 349.428 180.701C349.053 181.432 348.502 182.055 347.775 182.57C347.049 183.086 346.154 183.492 345.092 183.789L344.576 182.764C345.467 182.518 346.211 182.199 346.809 181.809C347.41 181.418 347.859 180.973 348.156 180.473C348.453 179.969 348.602 179.416 348.602 178.814V178.199H349.996ZM349.504 179.26H345.127V178.199H349.504V179.26ZM349.826 183.766C350.541 183.766 351.168 183.852 351.707 184.023C352.25 184.195 352.668 184.439 352.961 184.756C353.258 185.072 353.406 185.443 353.406 185.869C353.406 186.299 353.258 186.674 352.961 186.994C352.668 187.311 352.25 187.555 351.707 187.727C351.168 187.898 350.541 187.984 349.826 187.984C349.111 187.984 348.482 187.898 347.939 187.727C347.396 187.555 346.977 187.311 346.68 186.994C346.387 186.674 346.24 186.299 346.24 185.869C346.24 185.443 346.387 185.072 346.68 184.756C346.977 184.439 347.395 184.195 347.934 184.023C348.477 183.852 349.107 183.766 349.826 183.766ZM349.826 184.791C349.354 184.791 348.945 184.832 348.602 184.914C348.258 184.996 347.994 185.119 347.811 185.283C347.627 185.447 347.535 185.643 347.535 185.869C347.535 186.1 347.627 186.295 347.811 186.455C347.994 186.615 348.258 186.738 348.602 186.824C348.945 186.906 349.354 186.947 349.826 186.947C350.295 186.947 350.699 186.906 351.039 186.824C351.383 186.738 351.646 186.615 351.83 186.455C352.014 186.295 352.105 186.1 352.105 185.869C352.105 185.643 352.014 185.447 351.83 185.283C351.646 185.119 351.383 184.996 351.039 184.914C350.699 184.832 350.295 184.791 349.826 184.791Z" fill="#FF8833"/>
</g>
<g filter="url(#filter5_d_1976_11756)">
<rect x="8.5" y="207" width="74" height="33" rx="16.5" fill="white" fill-opacity="0.05" shape-rendering="crispEdges"/>
<rect x="9" y="207.5" width="73" height="32" rx="16" stroke="white" stroke-opacity="0.08" shape-rendering="crispEdges"/>
<path d="M33.9102 226.33H32.668V218.461H33.9102V226.33ZM33.0254 222.586H31.1973V221.525H33.0254V222.586ZM31.5605 226.078H30.3535V218.654H31.5605V226.078ZM34.1973 228.844H26.8145V227.777H34.1973V228.844ZM28.1152 228.182H26.8145V225.586H28.1152V228.182ZM26.0176 223.799C26.8535 223.795 27.5488 223.775 28.1035 223.74C28.6621 223.701 29.2285 223.627 29.8027 223.518L29.9316 224.549C29.3262 224.658 28.7344 224.732 28.1562 224.771C27.582 224.807 26.8691 224.824 26.0176 224.824H25.3027V223.799H26.0176ZM29.3164 222.539H26.5625V224.361H25.3027V221.555H28.0625V220.359H25.2793V219.328H29.3164V222.539ZM43.8242 224.467H36.3945V223.418H43.8242V224.467ZM44.9082 227.701H35.2285V226.623H44.9082V227.701ZM43.7363 220.43H37.6895V223.863H36.3945V219.369H43.7363V220.43ZM50.9844 226.418H45.9629V219.475H50.9844V226.418ZM47.2402 225.381H49.6895V220.5H47.2402V225.381ZM53.8906 229.031H52.5898V218.449H53.8906V229.031ZM55.5254 223.617H53.5977V222.521H55.5254V223.617ZM63.8164 220.488H57.0898V219.428H63.8164V220.488ZM65.6152 227.689H55.9707V226.623H65.6152V227.689ZM64.5488 220.746C64.5527 221.406 64.5469 221.971 64.5312 222.439C64.5156 222.908 64.4727 223.436 64.4023 224.021C64.3359 224.607 64.2285 225.246 64.0801 225.938L62.7793 225.82C62.9316 225.184 63.043 224.58 63.1133 224.01C63.1875 223.436 63.2324 222.92 63.248 222.463C63.2637 222.006 63.2734 221.436 63.2773 220.752V220.693V219.428H64.5488V220.693V220.746ZM56.9492 223.652L56.7852 222.604L63.5645 222.346V223.312L56.9492 223.652Z" fill="#FF8833"/>
</g>
<g filter="url(#filter6_d_1976_11756)">
<rect x="90.5" y="207" width="53" height="33" rx="16.5" fill="white" fill-opacity="0.05" shape-rendering="crispEdges"/>
<rect x="91" y="207.5" width="52" height="32" rx="16" stroke="white" stroke-opacity="0.08" shape-rendering="crispEdges"/>
<path d="M114.609 220.465H107.824V219.416H114.609V220.465ZM116.502 227.672H106.857V226.611H116.502V227.672ZM110.314 226.975H109.014V223.23H110.314V226.975ZM115.535 220.559C115.535 221.137 115.527 221.641 115.512 222.07C115.5 222.496 115.465 222.986 115.406 223.541C115.352 224.092 115.266 224.684 115.148 225.316L113.865 225.193C113.979 224.596 114.061 224.031 114.111 223.5C114.166 222.965 114.199 222.494 114.211 222.088C114.227 221.678 114.234 221.172 114.234 220.57V220.5V219.416H115.535V220.5V220.559ZM112.945 226.975H111.662V223.23H112.945V226.975ZM126.873 224.994H117.205V223.963H126.873V224.994ZM122.684 224.355H121.383V222.721H122.684V224.355ZM125.795 223.184H118.441V222.17H125.795V223.184ZM125.719 219.744H119.748V222.727H118.441V218.725H125.719V219.744ZM125.455 221.42H119.367V220.465H125.455V221.42ZM122.039 225.58C122.812 225.576 123.473 225.641 124.02 225.773C124.57 225.906 124.988 226.104 125.273 226.365C125.562 226.623 125.707 226.936 125.707 227.303C125.707 227.678 125.562 227.992 125.273 228.246C124.988 228.504 124.572 228.697 124.025 228.826C123.479 228.959 122.816 229.025 122.039 229.025C121.25 229.025 120.58 228.959 120.029 228.826C119.482 228.697 119.064 228.504 118.775 228.246C118.49 227.992 118.348 227.678 118.348 227.303C118.348 226.936 118.49 226.623 118.775 226.365C119.064 226.104 119.484 225.906 120.035 225.773C120.586 225.641 121.254 225.576 122.039 225.58ZM122.039 226.547C121.5 226.543 121.055 226.568 120.703 226.623C120.352 226.678 120.088 226.764 119.912 226.881C119.736 226.994 119.65 227.135 119.654 227.303C119.65 227.475 119.736 227.615 119.912 227.725C120.088 227.834 120.352 227.916 120.703 227.971C121.055 228.025 121.5 228.053 122.039 228.053C122.566 228.053 123.004 228.025 123.352 227.971C123.699 227.916 123.961 227.834 124.137 227.725C124.312 227.615 124.4 227.475 124.4 227.303C124.4 227.135 124.312 226.994 124.137 226.881C123.961 226.764 123.699 226.678 123.352 226.623C123.004 226.568 122.566 226.543 122.039 226.547Z" fill="#FF8833"/>
</g>
<g filter="url(#filter7_d_1976_11756)">
<rect x="151.5" y="207" width="114" height="33" rx="16.5" fill="white" fill-opacity="0.05" shape-rendering="crispEdges"/>
<rect x="152" y="207.5" width="113" height="32" rx="16" stroke="white" stroke-opacity="0.08" shape-rendering="crispEdges"/>
<path d="M177.525 224.795H167.846V223.746H177.525V224.795ZM173.436 226.729H172.146V224.396H173.436V226.729ZM176.283 222.762H169.07V218.936H176.283V222.762ZM170.342 221.742H174.994V219.949H170.342V221.742ZM176.453 228.844H169.012V227.777H176.453V228.844ZM170.318 228.135H169.012V225.768H170.318V228.135ZM182.113 226.453H180.807V224.725H182.113V226.453ZM186.602 229.031H185.289V218.449H186.602V229.031ZM188.09 223.904H186.168V222.826H188.09V223.904ZM178.1 226.102C179.467 226.102 180.674 226.084 181.721 226.049C182.768 226.014 183.77 225.928 184.727 225.791L184.814 226.752C184.111 226.881 183.381 226.975 182.623 227.033C181.869 227.092 181.158 227.131 180.49 227.15C179.822 227.17 179.086 227.18 178.281 227.18L178.1 226.102ZM184.604 220.699H178.293V219.668H184.604V220.699ZM181.475 221.186C181.967 221.186 182.408 221.268 182.799 221.432C183.189 221.596 183.494 221.828 183.713 222.129C183.932 222.43 184.041 222.775 184.041 223.166C184.041 223.557 183.932 223.9 183.713 224.197C183.494 224.494 183.189 224.725 182.799 224.889C182.408 225.053 181.967 225.135 181.475 225.135C180.971 225.135 180.523 225.053 180.133 224.889C179.742 224.725 179.438 224.494 179.219 224.197C179.004 223.9 178.898 223.557 178.902 223.166C178.898 222.775 179.004 222.43 179.219 222.129C179.438 221.828 179.742 221.596 180.133 221.432C180.523 221.268 180.971 221.186 181.475 221.186ZM181.475 222.182C181.205 222.182 180.969 222.221 180.766 222.299C180.566 222.377 180.41 222.492 180.297 222.645C180.188 222.793 180.133 222.967 180.133 223.166C180.133 223.369 180.188 223.543 180.297 223.688C180.41 223.832 180.566 223.943 180.766 224.021C180.965 224.1 181.201 224.137 181.475 224.133C181.736 224.137 181.967 224.1 182.166 224.021C182.365 223.943 182.52 223.832 182.629 223.688C182.742 223.543 182.799 223.369 182.799 223.166C182.799 222.967 182.742 222.793 182.629 222.645C182.52 222.492 182.365 222.377 182.166 222.299C181.967 222.221 181.736 222.182 181.475 222.182ZM182.113 220.406H180.807V218.496H182.113V220.406ZM197.096 223.518H191.998V219.105H197.096V223.518ZM193.275 222.498H195.812V220.137H193.275V222.498ZM200.26 224.479H198.965V218.449H200.26V224.479ZM197.219 225.961C197.215 226.469 197.041 226.938 196.697 227.367C196.357 227.797 195.873 228.154 195.244 228.439C194.615 228.729 193.891 228.918 193.07 229.008L192.625 228.018C193.309 227.955 193.914 227.816 194.441 227.602C194.973 227.387 195.379 227.135 195.66 226.846C195.945 226.553 196.088 226.258 196.088 225.961V225.791H197.219V225.961ZM197.441 225.961C197.441 226.25 197.58 226.541 197.857 226.834C198.139 227.123 198.541 227.375 199.064 227.59C199.588 227.805 200.189 227.947 200.869 228.018L200.436 229.008C199.615 228.918 198.893 228.725 198.268 228.428C197.643 228.135 197.16 227.773 196.82 227.344C196.48 226.914 196.312 226.453 196.316 225.961V225.791H197.441V225.961ZM200.477 226.084H193.059V225.111H200.477V226.084ZM197.412 225.574H196.105V224.186H197.412V225.574ZM212.512 221.754H209.459V220.693H212.512V221.754ZM212.512 225.047H209.459V223.998H212.512V225.047ZM207.578 219.223C208.102 219.223 208.568 219.375 208.979 219.68C209.393 219.984 209.713 220.42 209.939 220.986C210.17 221.553 210.285 222.211 210.285 222.961C210.285 223.719 210.17 224.381 209.939 224.947C209.713 225.51 209.393 225.945 208.979 226.254C208.568 226.559 208.102 226.711 207.578 226.711C207.047 226.711 206.576 226.559 206.166 226.254C205.756 225.945 205.436 225.51 205.205 224.947C204.975 224.381 204.859 223.719 204.859 222.961C204.859 222.211 204.975 221.553 205.205 220.986C205.436 220.42 205.756 219.984 206.166 219.68C206.576 219.375 207.047 219.223 207.578 219.223ZM207.578 220.395C207.285 220.395 207.029 220.498 206.811 220.705C206.592 220.908 206.42 221.203 206.295 221.59C206.17 221.977 206.107 222.434 206.107 222.961C206.107 223.496 206.17 223.957 206.295 224.344C206.42 224.73 206.592 225.025 206.811 225.229C207.029 225.432 207.285 225.531 207.578 225.527C207.867 225.531 208.123 225.432 208.346 225.229C208.572 225.025 208.746 224.73 208.867 224.344C208.988 223.957 209.049 223.496 209.049 222.961C209.049 222.434 208.988 221.977 208.867 221.59C208.746 221.199 208.572 220.902 208.346 220.699C208.123 220.496 207.867 220.395 207.578 220.395ZM213.561 229.061H212.271V218.449H213.561V229.061ZM223.352 229.025H222.051V218.449H223.352V229.025ZM224.922 223.67H223.018V222.592H224.922V223.67ZM220.557 219.557C220.553 220.635 220.391 221.639 220.07 222.568C219.75 223.494 219.232 224.346 218.518 225.123C217.803 225.9 216.877 226.57 215.74 227.133L215.008 226.125C215.961 225.645 216.754 225.094 217.387 224.473C218.02 223.848 218.492 223.148 218.805 222.375C219.117 221.598 219.273 220.734 219.273 219.785V219.557H220.557ZM219.936 220.629H215.559V219.557H219.936V220.629ZM232.047 220.992C232.047 221.875 231.926 222.707 231.684 223.488C231.445 224.27 231.094 224.959 230.629 225.557C230.168 226.154 229.615 226.605 228.971 226.91L228.174 225.82C228.748 225.574 229.246 225.203 229.668 224.707C230.09 224.207 230.412 223.637 230.635 222.996C230.857 222.352 230.971 221.684 230.975 220.992V219.299H232.047V220.992ZM232.287 220.992C232.287 221.648 232.396 222.283 232.615 222.896C232.834 223.51 233.15 224.059 233.564 224.543C233.979 225.023 234.467 225.383 235.029 225.621L234.256 226.664C233.623 226.371 233.078 225.939 232.621 225.369C232.164 224.795 231.814 224.133 231.572 223.383C231.33 222.633 231.209 221.836 231.209 220.992V219.299H232.287V220.992ZM237.098 229.061H235.779V218.449H237.098V229.061ZM246.795 221.197H244.117V220.154H246.795V221.197ZM247.527 223.869H246.227V218.449H247.527V223.869ZM247.527 227.068H241.855V228.504H240.572V226.107H246.232V225.352H240.549V224.332H247.527V227.068ZM247.861 228.908H240.572V227.883H247.861V228.908ZM242.242 219.645C242.242 220.312 242.129 220.932 241.902 221.502C241.676 222.068 241.34 222.562 240.895 222.984C240.453 223.406 239.916 223.723 239.283 223.934L238.598 222.891C239.152 222.723 239.623 222.475 240.01 222.146C240.4 221.818 240.693 221.441 240.889 221.016C241.088 220.586 241.189 220.129 241.193 219.645V218.801H242.242V219.645ZM242.5 219.645C242.5 220.09 242.594 220.512 242.781 220.91C242.973 221.309 243.256 221.664 243.631 221.977C244.006 222.289 244.459 222.527 244.99 222.691L244.305 223.699C243.695 223.496 243.176 223.195 242.746 222.797C242.316 222.398 241.988 221.93 241.762 221.391C241.539 220.852 241.43 220.27 241.434 219.645V218.801H242.5V219.645Z" fill="#FF8833"/>
</g>
<g filter="url(#filter8_d_1976_11756)">
<rect x="273.5" y="207" width="53" height="33" rx="16.5" fill="white" fill-opacity="0.05" shape-rendering="crispEdges"/>
<rect x="274" y="207.5" width="52" height="32" rx="16" stroke="white" stroke-opacity="0.08" shape-rendering="crispEdges"/>
<path d="M298.207 226.195H296.906V218.455H298.207V226.195ZM299.689 222.633H297.82V221.555H299.689V222.633ZM298.623 228.844H291.422V227.777H298.623V228.844ZM292.717 228.24H291.422V225.387H292.717V228.24ZM292.822 219.152C293.357 219.152 293.842 219.268 294.275 219.498C294.713 219.725 295.055 220.041 295.301 220.447C295.551 220.85 295.678 221.307 295.682 221.818C295.678 222.326 295.551 222.783 295.301 223.189C295.055 223.592 294.713 223.908 294.275 224.139C293.842 224.369 293.357 224.484 292.822 224.484C292.295 224.484 291.812 224.369 291.375 224.139C290.938 223.908 290.594 223.59 290.344 223.184C290.094 222.777 289.969 222.322 289.969 221.818C289.969 221.307 290.094 220.85 290.344 220.447C290.594 220.041 290.936 219.725 291.369 219.498C291.807 219.268 292.291 219.152 292.822 219.152ZM292.822 220.295C292.529 220.295 292.262 220.357 292.02 220.482C291.781 220.604 291.592 220.781 291.451 221.016C291.314 221.246 291.246 221.514 291.246 221.818C291.246 222.119 291.314 222.385 291.451 222.615C291.592 222.842 291.781 223.02 292.02 223.148C292.262 223.277 292.529 223.342 292.822 223.342C293.123 223.342 293.393 223.279 293.631 223.154C293.873 223.025 294.062 222.846 294.199 222.615C294.34 222.385 294.41 222.119 294.41 221.818C294.41 221.514 294.34 221.246 294.199 221.016C294.062 220.781 293.873 220.604 293.631 220.482C293.393 220.357 293.123 220.295 292.822 220.295ZM308.49 222.322H305.912V221.262H308.49V222.322ZM309.094 226.201H307.793V218.461H309.094V226.201ZM309.363 228.844H302.145V227.777H309.363V228.844ZM303.451 228.375H302.145V225.516H303.451V228.375ZM303.855 220.559C303.855 221.227 303.74 221.854 303.51 222.439C303.279 223.021 302.939 223.533 302.49 223.975C302.045 224.416 301.506 224.746 300.873 224.965L300.199 223.91C300.746 223.73 301.215 223.469 301.605 223.125C301.996 222.777 302.291 222.383 302.49 221.941C302.689 221.5 302.789 221.039 302.789 220.559V219.814H303.855V220.559ZM304.113 220.57C304.113 221.004 304.209 221.426 304.4 221.836C304.596 222.246 304.879 222.615 305.25 222.943C305.625 223.271 306.076 223.523 306.604 223.699L305.953 224.736C305.336 224.529 304.811 224.215 304.377 223.793C303.943 223.371 303.613 222.885 303.387 222.334C303.164 221.779 303.053 221.191 303.053 220.57V219.814H304.113V220.57ZM306.311 220.277H300.58V219.223H306.311V220.277Z" fill="#FF8833"/>
</g>
</g>
<defs>
<filter id="filter0_d_1976_11756" x="-46" y="156" width="73" height="53" filterUnits="userSpaceOnUse" color-interpolation-filters="sRGB">
<feFlood flood-opacity="0" result="BackgroundImageFix"/>
<feColorMatrix in="SourceAlpha" type="matrix" values="0 0 0 0 0 0 0 0 0 0 0 0 0 0 0 0 0 0 127 0" result="hardAlpha"/>
<feOffset/>
<feGaussianBlur stdDeviation="5"/>
<feComposite in2="hardAlpha" operator="out"/>
<feColorMatrix type="matrix" values="0 0 0 0 0 0 0 0 0 0 0 0 0 0 0 0 0 0 0.1 0"/>
<feBlend mode="normal" in2="BackgroundImageFix" result="effect1_dropShadow_1976_11756"/>
<feBlend mode="normal" in="SourceGraphic" in2="effect1_dropShadow_1976_11756" result="shape"/>
</filter>
<filter id="filter1_d_1976_11756" x="15" y="156" width="120" height="53" filterUnits="userSpaceOnUse" color-interpolation-filters="sRGB">
<feFlood flood-opacity="0" result="BackgroundImageFix"/>
<feColorMatrix in="SourceAlpha" type="matrix" values="0 0 0 0 0 0 0 0 0 0 0 0 0 0 0 0 0 0 127 0" result="hardAlpha"/>
<feOffset/>
<feGaussianBlur stdDeviation="5"/>
<feComposite in2="hardAlpha" operator="out"/>
<feColorMatrix type="matrix" values="0 0 0 0 0 0 0 0 0 0 0 0 0 0 0 0 0 0 0.1 0"/>
<feBlend mode="normal" in2="BackgroundImageFix" result="effect1_dropShadow_1976_11756"/>
<feBlend mode="normal" in="SourceGraphic" in2="effect1_dropShadow_1976_11756" result="shape"/>
</filter>
<filter id="filter2_d_1976_11756" x="123" y="156" width="94" height="53" filterUnits="userSpaceOnUse" color-interpolation-filters="sRGB">
<feFlood flood-opacity="0" result="BackgroundImageFix"/>
<feColorMatrix in="SourceAlpha" type="matrix" values="0 0 0 0 0 0 0 0 0 0 0 0 0 0 0 0 0 0 127 0" result="hardAlpha"/>
<feOffset/>
<feGaussianBlur stdDeviation="5"/>
<feComposite in2="hardAlpha" operator="out"/>
<feColorMatrix type="matrix" values="0 0 0 0 0 0 0 0 0 0 0 0 0 0 0 0 0 0 0.1 0"/>
<feBlend mode="normal" in2="BackgroundImageFix" result="effect1_dropShadow_1976_11756"/>
<feBlend mode="normal" in="SourceGraphic" in2="effect1_dropShadow_1976_11756" result="shape"/>
</filter>
<filter id="filter3_d_1976_11756" x="205" y="156" width="94" height="53" filterUnits="userSpaceOnUse" color-interpolation-filters="sRGB">
<feFlood flood-opacity="0" result="BackgroundImageFix"/>
<feColorMatrix in="SourceAlpha" type="matrix" values="0 0 0 0 0 0 0 0 0 0 0 0 0 0 0 0 0 0 127 0" result="hardAlpha"/>
<feOffset/>
<feGaussianBlur stdDeviation="5"/>
<feComposite in2="hardAlpha" operator="out"/>
<feColorMatrix type="matrix" values="0 0 0 0 0 0 0 0 0 0 0 0 0 0 0 0 0 0 0.1 0"/>
<feBlend mode="normal" in2="BackgroundImageFix" result="effect1_dropShadow_1976_11756"/>
<feBlend mode="normal" in="SourceGraphic" in2="effect1_dropShadow_1976_11756" result="shape"/>
</filter>
<filter id="filter4_d_1976_11756" x="287" y="156" width="94" height="53" filterUnits="userSpaceOnUse" color-interpolation-filters="sRGB">
<feFlood flood-opacity="0" result="BackgroundImageFix"/>
<feColorMatrix in="SourceAlpha" type="matrix" values="0 0 0 0 0 0 0 0 0 0 0 0 0 0 0 0 0 0 127 0" result="hardAlpha"/>
<feOffset/>
<feGaussianBlur stdDeviation="5"/>
<feComposite in2="hardAlpha" operator="out"/>
<feColorMatrix type="matrix" values="0 0 0 0 0 0 0 0 0 0 0 0 0 0 0 0 0 0 0.1 0"/>
<feBlend mode="normal" in2="BackgroundImageFix" result="effect1_dropShadow_1976_11756"/>
<feBlend mode="normal" in="SourceGraphic" in2="effect1_dropShadow_1976_11756" result="shape"/>
</filter>
<filter id="filter5_d_1976_11756" x="-1.5" y="197" width="94" height="53" filterUnits="userSpaceOnUse" color-interpolation-filters="sRGB">
<feFlood flood-opacity="0" result="BackgroundImageFix"/>
<feColorMatrix in="SourceAlpha" type="matrix" values="0 0 0 0 0 0 0 0 0 0 0 0 0 0 0 0 0 0 127 0" result="hardAlpha"/>
<feOffset/>
<feGaussianBlur stdDeviation="5"/>
<feComposite in2="hardAlpha" operator="out"/>
<feColorMatrix type="matrix" values="0 0 0 0 0 0 0 0 0 0 0 0 0 0 0 0 0 0 0.1 0"/>
<feBlend mode="normal" in2="BackgroundImageFix" result="effect1_dropShadow_1976_11756"/>
<feBlend mode="normal" in="SourceGraphic" in2="effect1_dropShadow_1976_11756" result="shape"/>
</filter>
<filter id="filter6_d_1976_11756" x="80.5" y="197" width="73" height="53" filterUnits="userSpaceOnUse" color-interpolation-filters="sRGB">
<feFlood flood-opacity="0" result="BackgroundImageFix"/>
<feColorMatrix in="SourceAlpha" type="matrix" values="0 0 0 0 0 0 0 0 0 0 0 0 0 0 0 0 0 0 127 0" result="hardAlpha"/>
<feOffset/>
<feGaussianBlur stdDeviation="5"/>
<feComposite in2="hardAlpha" operator="out"/>
<feColorMatrix type="matrix" values="0 0 0 0 0 0 0 0 0 0 0 0 0 0 0 0 0 0 0.1 0"/>
<feBlend mode="normal" in2="BackgroundImageFix" result="effect1_dropShadow_1976_11756"/>
<feBlend mode="normal" in="SourceGraphic" in2="effect1_dropShadow_1976_11756" result="shape"/>
</filter>
<filter id="filter7_d_1976_11756" x="141.5" y="197" width="134" height="53" filterUnits="userSpaceOnUse" color-interpolation-filters="sRGB">
<feFlood flood-opacity="0" result="BackgroundImageFix"/>
<feColorMatrix in="SourceAlpha" type="matrix" values="0 0 0 0 0 0 0 0 0 0 0 0 0 0 0 0 0 0 127 0" result="hardAlpha"/>
<feOffset/>
<feGaussianBlur stdDeviation="5"/>
<feComposite in2="hardAlpha" operator="out"/>
<feColorMatrix type="matrix" values="0 0 0 0 0 0 0 0 0 0 0 0 0 0 0 0 0 0 0.1 0"/>
<feBlend mode="normal" in2="BackgroundImageFix" result="effect1_dropShadow_1976_11756"/>
<feBlend mode="normal" in="SourceGraphic" in2="effect1_dropShadow_1976_11756" result="shape"/>
</filter>
<filter id="filter8_d_1976_11756" x="263.5" y="197" width="73" height="53" filterUnits="userSpaceOnUse" color-interpolation-filters="sRGB">
<feFlood flood-opacity="0" result="BackgroundImageFix"/>
<feColorMatrix in="SourceAlpha" type="matrix" values="0 0 0 0 0 0 0 0 0 0 0 0 0 0 0 0 0 0 127 0" result="hardAlpha"/>
<feOffset/>
<feGaussianBlur stdDeviation="5"/>
<feComposite in2="hardAlpha" operator="out"/>
<feColorMatrix type="matrix" values="0 0 0 0 0 0 0 0 0 0 0 0 0 0 0 0 0 0 0.1 0"/>
<feBlend mode="normal" in2="BackgroundImageFix" result="effect1_dropShadow_1976_11756"/>
<feBlend mode="normal" in="SourceGraphic" in2="effect1_dropShadow_1976_11756" result="shape"/>
</filter>
<linearGradient id="paint0_linear_1976_11756" x1="167.5" y1="0" x2="167.5" y2="280" gradientUnits="userSpaceOnUse">
<stop stop-color="#642E07"/>
<stop offset="1" stop-color="#222222"/>
</linearGradient>
<clipPath id="clip0_1976_11756">
<rect width="335" height="280" rx="12" fill="white"/>
</clipPath>
</defs>
</svg>
