<svg width="24" height="25" viewBox="0 0 24 25" fill="none" xmlns="http://www.w3.org/2000/svg">
<path fill-rule="evenodd" clip-rule="evenodd" d="M11.9999 2C7.1993 2 3.30762 5.89169 3.30762 10.6923V17.3178C2.52775 17.751 2 18.5831 2 19.5385V20.4615C2 21.8635 3.1365 23 4.53845 23H19.4615C20.8635 23 22 21.8635 22 20.4615V19.5385C22 18.583 21.4722 17.7509 20.6922 17.3178V10.6923C20.6922 5.89168 16.8006 2 11.9999 2ZM18.6922 17V10.6923C18.6922 6.99625 15.696 4 11.9999 4C8.30387 4 5.30762 6.99625 5.30762 10.6923V17H18.6922ZM4 19.5385C4 19.2411 4.24107 19 4.53845 19H19.4615C19.7589 19 20 19.2411 20 19.5385V20.4615C20 20.7589 19.7589 21 19.4615 21H4.53845C4.24107 21 4 20.7589 4 20.4615V19.5385ZM12 6.5C12.5523 6.5 13 6.94772 13 7.5V11.5C13 12.0523 12.5523 12.5 12 12.5C11.4477 12.5 11 12.0523 11 11.5V7.5C11 6.94772 11.4477 6.5 12 6.5ZM13 14.5C13 13.9477 12.5523 13.5 12 13.5C11.4477 13.5 11 13.9477 11 14.5V14.6C11 15.1523 11.4477 15.6 12 15.6C12.5523 15.6 13 15.1523 13 14.6V14.5Z" fill="#1E1E1E"/>
</svg>
