<svg width="375" height="96" viewBox="0 0 375 96" fill="none" xmlns="http://www.w3.org/2000/svg">
<rect width="375" height="96" fill="#FFF0E6"/>
<path d="M24.2656 31.2969C24.9688 31.2969 25.5964 31.5 26.1484 31.9062C26.7057 32.3125 27.1406 32.8958 27.4531 33.6562C27.7708 34.4115 27.9323 35.2865 27.9375 36.2812C27.9323 37.2865 27.7708 38.1667 27.4531 38.9219C27.1406 39.6771 26.7057 40.2604 26.1484 40.6719C25.5964 41.0781 24.9688 41.2812 24.2656 41.2812C23.5521 41.2812 22.9167 41.0781 22.3594 40.6719C21.8073 40.2604 21.375 39.6797 21.0625 38.9297C20.75 38.1745 20.5938 37.2917 20.5938 36.2812C20.5938 35.2865 20.75 34.4115 21.0625 33.6562C21.375 32.8958 21.8073 32.3125 22.3594 31.9062C22.9167 31.5 23.5521 31.2969 24.2656 31.2969ZM24.2656 32.8594C23.8698 32.8594 23.5208 32.9974 23.2188 33.2734C22.9219 33.5443 22.6875 33.9375 22.5156 34.4531C22.3438 34.9635 22.2604 35.5729 22.2656 36.2812C22.2604 36.9948 22.3438 37.6094 22.5156 38.125C22.6875 38.6406 22.9219 39.0339 23.2188 39.3047C23.5208 39.5755 23.8698 39.7083 24.2656 39.7031C24.6615 39.7083 25.0104 39.5755 25.3125 39.3047C25.6198 39.0339 25.8542 38.6406 26.0156 38.125C26.1771 37.6094 26.2578 36.9948 26.2578 36.2812C26.2578 35.5729 26.1771 34.9609 26.0156 34.4453C25.8542 33.9297 25.6198 33.5365 25.3125 33.2656C25.0104 32.9948 24.6615 32.8594 24.2656 32.8594ZM31.5312 44.375H29.7969V30.2656H31.5312V44.375ZM33.7109 37.1562H31.1406V35.6953H33.7109V37.1562ZM42.3594 33.0625H34.4766V31.6484H42.3594V33.0625ZM34.1172 39.625C35.8203 39.6198 37.388 39.5938 38.8203 39.5469C40.2578 39.4948 41.6094 39.3906 42.875 39.2344L42.9531 40.4922C41.6615 40.7161 40.3125 40.8646 38.9062 40.9375C37.5 41.0052 35.9688 41.0443 34.3125 41.0547L34.1172 39.625ZM37.5 40.0078H35.8203V32.7422H37.5V40.0078ZM41 40.0078H39.3281V32.7422H41V40.0078ZM45.3594 44.375H43.625V30.2656H45.3594V44.375ZM47.5391 37.1641H44.9688V35.7422H47.5391V37.1641ZM59.6016 39.0547H49.6953V37.6797H59.6016V39.0547ZM61.0391 42.6719H48.1328V41.2578H61.0391V42.6719ZM59.4766 32.7891H51.4609V38.0547H49.6953V31.3672H59.4766V32.7891ZM59.1562 35.8438H50.9375V34.4766H59.1562V35.8438ZM73.7109 38.2891H71.9688V30.2812H73.7109V38.2891ZM73.7109 44.2109H64.3516V38.9688H73.7109V44.2109ZM66.0625 42.8125H72.0078V40.3516H66.0625V42.8125ZM66.0156 30.9609C66.7344 30.9609 67.3828 31.1016 67.9609 31.3828C68.5391 31.6641 68.9922 32.0625 69.3203 32.5781C69.6536 33.0938 69.8203 33.6771 69.8203 34.3281C69.8203 34.9635 69.6536 35.5365 69.3203 36.0469C68.9922 36.5521 68.5391 36.9505 67.9609 37.2422C67.3828 37.5286 66.7344 37.6719 66.0156 37.6719C65.2917 37.6719 64.6406 37.5286 64.0625 37.2422C63.4896 36.9505 63.0365 36.5521 62.7031 36.0469C62.375 35.5365 62.2109 34.9635 62.2109 34.3281C62.2109 33.6771 62.375 33.0938 62.7031 32.5781C63.0365 32.0625 63.4896 31.6641 64.0625 31.3828C64.6406 31.1016 65.2917 30.9609 66.0156 30.9609ZM66.0156 32.4219C65.6042 32.4219 65.2396 32.4974 64.9219 32.6484C64.6042 32.7995 64.3542 33.0208 64.1719 33.3125C63.9948 33.6042 63.9062 33.9427 63.9062 34.3281C63.9062 34.7031 63.9948 35.0312 64.1719 35.3125C64.3542 35.5938 64.6042 35.8125 64.9219 35.9688C65.2396 36.125 65.6042 36.2031 66.0156 36.2031C66.4167 36.2031 66.776 36.125 67.0938 35.9688C67.4115 35.8125 67.6589 35.5938 67.8359 35.3125C68.013 35.0312 68.1016 34.7031 68.1016 34.3281C68.1016 33.9427 68.013 33.6042 67.8359 33.3125C67.6641 33.0208 67.4167 32.7995 67.0938 32.6484C66.776 32.4974 66.4167 32.4219 66.0156 32.4219ZM86.9453 38.5234H85.1875V30.2656H86.9453V38.5234ZM88.8984 35.1562H86.4297V33.7266H88.8984V35.1562ZM82.3281 38.7812C83.2917 38.7812 84.1302 38.8906 84.8438 39.1094C85.5573 39.3281 86.1042 39.6484 86.4844 40.0703C86.8646 40.487 87.0547 40.9844 87.0547 41.5625C87.0547 42.1458 86.8646 42.6484 86.4844 43.0703C86.1042 43.4922 85.5573 43.8125 84.8438 44.0312C84.1302 44.2552 83.2917 44.3672 82.3281 44.3672C81.3542 44.3672 80.5078 44.2552 79.7891 44.0312C79.0703 43.8125 78.5156 43.4922 78.125 43.0703C77.7344 42.6484 77.5391 42.1458 77.5391 41.5625C77.5391 40.9844 77.7344 40.487 78.125 40.0703C78.5156 39.6484 79.0703 39.3281 79.7891 39.1094C80.5078 38.8906 81.3542 38.7812 82.3281 38.7812ZM82.3281 40.1719C81.6823 40.1719 81.1302 40.224 80.6719 40.3281C80.2188 40.4323 79.8698 40.5885 79.625 40.7969C79.3802 41.0052 79.2578 41.2604 79.2578 41.5625C79.2578 41.8646 79.3776 42.1224 79.6172 42.3359C79.8568 42.5495 80.2057 42.7135 80.6641 42.8281C81.1276 42.9375 81.6823 42.9922 82.3281 42.9922C82.9583 42.9922 83.5026 42.9375 83.9609 42.8281C84.4245 42.7135 84.7734 42.5495 85.0078 42.3359C85.2474 42.1224 85.3698 41.8646 85.375 41.5625C85.3698 41.2604 85.2474 41.0052 85.0078 40.7969C84.7734 40.5885 84.4245 40.4323 83.9609 40.3281C83.5026 40.224 82.9583 40.1719 82.3281 40.1719ZM77.4844 36.2344C79.099 36.2292 80.362 36.1979 81.2734 36.1406C82.1849 36.0781 83.0703 35.9557 83.9297 35.7734L84.0938 37.1719C83.224 37.3594 82.3203 37.4818 81.3828 37.5391C80.4505 37.5964 79.151 37.6276 77.4844 37.6328H76.3281V36.2344H77.4844ZM82.6484 32.6641H78.0469V37.1797H76.3281V31.2578H82.6484V32.6641ZM102.477 38.9531H89.6172V37.5625H102.477V38.9531ZM101.023 44.125H91.2031V42.7031H101.023V44.125ZM92.9453 43.1484H91.2031V39.9922H92.9453V43.1484ZM96.0469 30.7266C97.0625 30.7266 97.9531 30.8411 98.7188 31.0703C99.4844 31.2943 100.076 31.6224 100.492 32.0547C100.909 32.487 101.117 32.9974 101.117 33.5859C101.117 34.1693 100.909 34.6771 100.492 35.1094C100.076 35.5417 99.4844 35.8776 98.7188 36.1172C97.9531 36.3516 97.0625 36.4688 96.0469 36.4688C95.0156 36.4688 94.1172 36.3516 93.3516 36.1172C92.5859 35.8776 91.9922 35.5417 91.5703 35.1094C91.1536 34.6771 90.9453 34.1693 90.9453 33.5859C90.9453 32.9974 91.1536 32.487 91.5703 32.0547C91.9922 31.6224 92.5859 31.2943 93.3516 31.0703C94.1172 30.8411 95.0156 30.7266 96.0469 30.7266ZM96.0469 32.1016C95.3594 32.1016 94.7682 32.1589 94.2734 32.2734C93.7786 32.388 93.401 32.5573 93.1406 32.7812C92.8802 33.0052 92.75 33.2734 92.75 33.5859C92.75 33.8984 92.8802 34.1667 93.1406 34.3906C93.401 34.6094 93.776 34.776 94.2656 34.8906C94.7552 35 95.349 35.0547 96.0469 35.0547C96.7292 35.0547 97.3177 35 97.8125 34.8906C98.3073 34.776 98.6849 34.6094 98.9453 34.3906C99.2057 34.1667 99.3359 33.8984 99.3359 33.5859C99.3359 33.2734 99.2031 33.0052 98.9375 32.7812C98.6771 32.5573 98.2995 32.388 97.8047 32.2734C97.3099 32.1589 96.724 32.1016 96.0469 32.1016ZM24.7344 62.2109H23.0938V59.2969H24.7344V62.2109ZM20.2891 61.8359C21.5651 61.8359 22.8281 61.8125 24.0781 61.7656C25.3281 61.7188 26.4401 61.6276 27.4141 61.4922L27.5391 62.7578C26.5182 62.9401 25.3802 63.0677 24.125 63.1406C22.8698 63.2135 21.6615 63.25 20.5 63.25L20.2891 61.8359ZM32.625 66.375H30.9844V52.2656H32.625V66.375ZM31.4609 59.4219H29.0859V57.9688H31.4609V59.4219ZM29.6641 65.7031H28.0391V52.5312H29.6641V65.7031ZM23.8984 53.5391C24.5286 53.5391 25.0911 53.6667 25.5859 53.9219C26.0859 54.1771 26.474 54.5365 26.75 55C27.0312 55.4635 27.1719 55.9948 27.1719 56.5938C27.1719 57.1979 27.0312 57.7344 26.75 58.2031C26.474 58.6667 26.0859 59.0312 25.5859 59.2969C25.0911 59.5573 24.5286 59.6875 23.8984 59.6875C23.263 59.6875 22.6979 59.5573 22.2031 59.2969C21.7135 59.0312 21.3307 58.6667 21.0547 58.2031C20.7839 57.7344 20.6484 57.1979 20.6484 56.5938C20.6484 55.9948 20.7839 55.4635 21.0547 55C21.3307 54.5365 21.7161 54.1771 22.2109 53.9219C22.7057 53.6667 23.2682 53.5391 23.8984 53.5391ZM23.8984 54.9375C23.5755 54.9375 23.2865 55.0078 23.0312 55.1484C22.776 55.2839 22.5755 55.4766 22.4297 55.7266C22.2891 55.9766 22.2214 56.2656 22.2266 56.5938C22.2214 56.9323 22.2891 57.2292 22.4297 57.4844C22.5755 57.7344 22.7734 57.9271 23.0234 58.0625C23.2786 58.1927 23.5703 58.2578 23.8984 58.2578C24.2214 58.2578 24.5104 58.1927 24.7656 58.0625C25.026 57.9271 25.2266 57.7344 25.3672 57.4844C25.513 57.2292 25.5859 56.9323 25.5859 56.5938C25.5859 56.2656 25.513 55.9766 25.3672 55.7266C25.2266 55.4766 25.026 55.2839 24.7656 55.1484C24.5104 55.0078 24.2214 54.9375 23.8984 54.9375ZM43.1719 65H41.125V55.6719H41.0625L38.4141 57.3672V55.5L41.2188 53.6875H43.1719V65ZM47.1719 65.125C46.9479 65.125 46.7422 65.0703 46.5547 64.9609C46.3724 64.8516 46.2266 64.7031 46.1172 64.5156C46.0078 64.3281 45.9557 64.125 45.9609 63.9062C45.9557 63.6927 46.0078 63.4948 46.1172 63.3125C46.2266 63.125 46.3724 62.9792 46.5547 62.875C46.7422 62.7656 46.9479 62.7109 47.1719 62.7109C47.3854 62.7109 47.5833 62.7656 47.7656 62.875C47.9531 62.9792 48.1016 63.125 48.2109 63.3125C48.3203 63.4948 48.375 63.6927 48.375 63.9062C48.375 64.125 48.3203 64.3281 48.2109 64.5156C48.1016 64.7031 47.9531 64.8516 47.7656 64.9609C47.5833 65.0703 47.3854 65.125 47.1719 65.125ZM47.1719 59.0625C46.9479 59.0625 46.7422 59.0078 46.5547 58.8984C46.3724 58.7891 46.2266 58.6406 46.1172 58.4531C46.0078 58.2656 45.9557 58.0625 45.9609 57.8438C45.9557 57.6302 46.0078 57.4323 46.1172 57.25C46.2266 57.0625 46.3724 56.9167 46.5547 56.8125C46.7422 56.7031 46.9479 56.6484 47.1719 56.6484C47.3854 56.6484 47.5833 56.7031 47.7656 56.8125C47.9531 56.9167 48.1016 57.0625 48.2109 57.25C48.3203 57.4323 48.375 57.6302 48.375 57.8438C48.375 58.0625 48.3203 58.2656 48.2109 58.4531C48.1016 58.6406 47.9531 58.7891 47.7656 58.8984C47.5833 59.0078 47.3854 59.0625 47.1719 59.0625ZM54.875 65H52.8281V55.6719H52.7656L50.1172 57.3672V55.5L52.9219 53.6875H54.875V65ZM71.3125 54.9531H62.2656V53.5547H71.3125V54.9531ZM73.8359 64.5625H60.9766V63.1484H73.8359V64.5625ZM65.5859 63.6328H63.8516V58.6406H65.5859V63.6328ZM72.5469 55.0781C72.5469 55.849 72.5365 56.5208 72.5156 57.0938C72.5 57.6615 72.4531 58.3151 72.375 59.0547C72.3021 59.7891 72.1875 60.5781 72.0312 61.4219L70.3203 61.2578C70.4714 60.4609 70.5807 59.7083 70.6484 59C70.7214 58.2865 70.7656 57.6589 70.7812 57.1172C70.8021 56.5703 70.8125 55.8958 70.8125 55.0938V55V53.5547H72.5469V55V55.0781ZM69.0938 63.6328H67.3828V58.6406H69.0938V63.6328ZM85.9922 63.2969H84.25V52.2656H85.9922V63.2969ZM87.8984 58.4453H85.3516V57.0078H87.8984V58.4453ZM86.4844 66.125H76.6953V64.7031H86.4844V66.125ZM78.4453 65.1328H76.6953V62.5625H78.4453V65.1328ZM79.9609 61.1016H78.2266V59.0859H79.9609V61.1016ZM74.6719 60.4766C76.3385 60.4714 77.9062 60.4375 79.375 60.375C80.849 60.3125 82.2318 60.1823 83.5234 59.9844L83.6562 61.1953C82.4115 61.4297 81.1198 61.5885 79.7812 61.6719C78.4479 61.7552 76.9375 61.8099 75.25 61.8359C75.1719 61.8359 75.1068 61.8359 75.0547 61.8359C75.0026 61.8359 74.9375 61.8359 74.8594 61.8359L74.6719 60.4766ZM83.1406 54.7578H75.0312V53.5H83.1406V54.7578ZM79.0781 55.2188C79.7604 55.224 80.3594 55.3125 80.875 55.4844C81.3906 55.6562 81.7891 55.9089 82.0703 56.2422C82.3516 56.5703 82.4922 56.9635 82.4922 57.4219C82.4922 57.8594 82.3516 58.2396 82.0703 58.5625C81.7891 58.8854 81.3906 59.1354 80.875 59.3125C80.3594 59.4896 79.7604 59.5781 79.0781 59.5781C78.3958 59.5781 77.7995 59.4896 77.2891 59.3125C76.7786 59.1354 76.3802 58.8854 76.0938 58.5625C75.8125 58.2396 75.6719 57.8594 75.6719 57.4219C75.6719 56.9688 75.8125 56.5755 76.0938 56.2422C76.3802 55.9089 76.7786 55.6562 77.2891 55.4844C77.7995 55.3125 78.3958 55.224 79.0781 55.2188ZM79.0781 56.4062C78.7135 56.4062 78.3984 56.4453 78.1328 56.5234C77.8724 56.5964 77.6745 56.7109 77.5391 56.8672C77.4036 57.0182 77.3359 57.2031 77.3359 57.4219C77.3359 57.6198 77.4036 57.7917 77.5391 57.9375C77.6745 58.0833 77.8724 58.1979 78.1328 58.2812C78.3984 58.3594 78.7135 58.3984 79.0781 58.3984C79.4427 58.3984 79.7552 58.3594 80.0156 58.2812C80.2812 58.1979 80.4818 58.0833 80.6172 57.9375C80.7578 57.7917 80.8281 57.6198 80.8281 57.4219C80.8281 57.2031 80.7604 57.0182 80.625 56.8672C80.4896 56.7109 80.2891 56.5964 80.0234 56.5234C79.7578 56.4453 79.4427 56.4062 79.0781 56.4062ZM79.9609 54.0703H78.2266V52.2266H79.9609V54.0703ZM93.6406 55.6562C93.6406 56.8333 93.4792 57.9427 93.1562 58.9844C92.8385 60.026 92.3698 60.9453 91.75 61.7422C91.1354 62.5391 90.3984 63.1406 89.5391 63.5469L88.4766 62.0938C89.2422 61.7656 89.9062 61.2708 90.4688 60.6094C91.0312 59.9427 91.4609 59.1823 91.7578 58.3281C92.0547 57.4688 92.2057 56.5781 92.2109 55.6562V53.3984H93.6406V55.6562ZM93.9609 55.6562C93.9609 56.5312 94.1068 57.3776 94.3984 58.1953C94.6901 59.013 95.112 59.7448 95.6641 60.3906C96.2161 61.0312 96.8672 61.5104 97.6172 61.8281L96.5859 63.2188C95.7422 62.8281 95.0156 62.2526 94.4062 61.4922C93.7969 60.7266 93.3307 59.8438 93.0078 58.8438C92.6849 57.8438 92.5234 56.7812 92.5234 55.6562V53.3984H93.9609V55.6562ZM100.375 66.4141H98.6172V52.2656H100.375V66.4141ZM109.43 54.1953C109.435 55.2057 109.185 56.151 108.68 57.0312C108.18 57.9062 107.487 58.651 106.602 59.2656C105.716 59.8802 104.716 60.3047 103.602 60.5391L102.852 59.0938C103.799 58.9219 104.659 58.5859 105.43 58.0859C106.201 57.5859 106.805 56.9948 107.242 56.3125C107.68 55.6302 107.901 54.9245 107.906 54.1953V53.1641H109.43V54.1953ZM109.742 54.1953C109.742 54.9297 109.961 55.638 110.398 56.3203C110.841 57.0026 111.451 57.5938 112.227 58.0938C113.003 58.5938 113.872 58.9271 114.836 59.0938L114.062 60.5391C112.953 60.3099 111.956 59.888 111.07 59.2734C110.19 58.6589 109.5 57.9141 109 57.0391C108.5 56.1641 108.253 55.2161 108.258 54.1953V53.1641H109.742V54.1953ZM115.367 64.5859H102.461V63.1562H115.367V64.5859ZM124.609 57.1172H122.328V55.7188H124.609V57.1172ZM117.812 58.6797C118.927 58.6745 119.846 58.651 120.57 58.6094C121.299 58.5677 122.039 58.4818 122.789 58.3516L122.961 59.7109C122.19 59.8516 121.432 59.9453 120.688 59.9922C119.943 60.0391 118.984 60.0625 117.812 60.0625H116.875V58.6797H117.812ZM122.258 54.5469H118.539V59.4766H116.875V53.1328H122.258V54.5469ZM121.711 57.2188H118.031V55.875H121.711V57.2188ZM128.359 60.7188H126.703V52.2656H128.359V60.7188ZM125.578 60.6094H123.914V52.5H125.578V60.6094ZM128.359 66.2109H118.828V61.3047H128.359V66.2109ZM120.555 64.8125H126.641V62.6875H120.555V64.8125ZM136.547 52.4922C137.609 52.4922 138.521 52.5833 139.281 52.7656C140.047 52.9479 140.628 53.2214 141.023 53.5859C141.419 53.9453 141.617 54.3828 141.617 54.8984C141.617 55.4245 141.419 55.8698 141.023 56.2344C140.628 56.599 140.049 56.875 139.289 57.0625C138.529 57.2448 137.615 57.3385 136.547 57.3438C135.469 57.3385 134.549 57.2448 133.789 57.0625C133.029 56.875 132.448 56.599 132.047 56.2344C131.646 55.8698 131.445 55.4245 131.445 54.8984C131.445 54.3828 131.646 53.9453 132.047 53.5859C132.448 53.2214 133.029 52.9479 133.789 52.7656C134.555 52.5833 135.474 52.4922 136.547 52.4922ZM136.547 53.7656C135.823 53.7656 135.216 53.8099 134.727 53.8984C134.242 53.987 133.875 54.1172 133.625 54.2891C133.38 54.4557 133.26 54.6589 133.266 54.8984C133.26 55.1589 133.38 55.375 133.625 55.5469C133.875 55.7135 134.237 55.8385 134.711 55.9219C135.19 56.0052 135.802 56.0469 136.547 56.0469C137.286 56.0469 137.896 56.0052 138.375 55.9219C138.859 55.8385 139.224 55.7135 139.469 55.5469C139.714 55.375 139.836 55.1589 139.836 54.8984C139.836 54.6589 139.714 54.4557 139.469 54.2891C139.224 54.1172 138.854 53.987 138.359 53.8984C137.87 53.8099 137.266 53.7656 136.547 53.7656ZM142.977 59.4922H130.117V58.1016H142.977V59.4922ZM141.383 63.8906H133.352V65.3047H131.633V62.6641H139.664V61.7188H131.625V60.4375H141.383V63.8906ZM141.766 66.2656H131.633V64.9375H141.766V66.2656ZM159.219 60.0703H149.312V58.6875H159.219V60.0703ZM160.664 64.7188H147.758V63.2891H160.664V64.7188ZM155.031 63.7812H153.32V59.3125H155.031V63.7812ZM159.102 54.7109H151.055V59.3203H149.312V53.3203H159.102V54.7109ZM173.336 59.8516H171.594V52.2656H173.336V59.8516ZM165.711 61.9453H171.602V60.5H173.336V66.2109H164V60.5H165.711V61.9453ZM171.602 64.8047V63.3047H165.711V64.8047H171.602ZM165.641 52.8906C166.359 52.8854 167.008 53.0234 167.586 53.3047C168.164 53.5859 168.617 53.9792 168.945 54.4844C169.279 54.9896 169.445 55.5625 169.445 56.2031C169.445 56.8333 169.279 57.3984 168.945 57.8984C168.617 58.3932 168.164 58.7839 167.586 59.0703C167.008 59.3516 166.359 59.4922 165.641 59.4922C164.917 59.4922 164.266 59.3516 163.688 59.0703C163.115 58.7839 162.661 58.3932 162.328 57.8984C162 57.3984 161.836 56.8333 161.836 56.2031C161.836 55.5573 162 54.9844 162.328 54.4844C162.661 53.9792 163.115 53.5859 163.688 53.3047C164.266 53.0234 164.917 52.8854 165.641 52.8906ZM165.641 54.3438C165.229 54.3438 164.865 54.4193 164.547 54.5703C164.229 54.7214 163.979 54.9401 163.797 55.2266C163.62 55.5078 163.531 55.8333 163.531 56.2031C163.531 56.5729 163.62 56.8984 163.797 57.1797C163.979 57.4557 164.229 57.6719 164.547 57.8281C164.865 57.9844 165.229 58.0625 165.641 58.0625C166.047 58.0625 166.409 57.9844 166.727 57.8281C167.044 57.6719 167.289 57.4557 167.461 57.1797C167.638 56.8984 167.727 56.5729 167.727 56.2031C167.727 55.8333 167.638 55.5078 167.461 55.2266C167.289 54.9401 167.044 54.7214 166.727 54.5703C166.409 54.4193 166.047 54.3438 165.641 54.3438ZM187.484 60.9922H185.828V52.2812H187.484V60.9922ZM186.281 57.4062H183.836V55.9922H186.281V57.4062ZM184.484 60.8203H182.859V52.4844H184.484V60.8203ZM182.359 55.1016H175.336V53.7109H182.359V55.1016ZM178.867 55.6328C179.461 55.6328 179.99 55.7344 180.453 55.9375C180.917 56.1406 181.279 56.4271 181.539 56.7969C181.799 57.1667 181.93 57.5938 181.93 58.0781C181.93 58.5573 181.799 58.9818 181.539 59.3516C181.279 59.7214 180.914 60.0104 180.445 60.2188C179.982 60.4219 179.456 60.5234 178.867 60.5234C178.284 60.5234 177.76 60.4219 177.297 60.2188C176.833 60.0104 176.471 59.7214 176.211 59.3516C175.956 58.9818 175.828 58.5573 175.828 58.0781C175.828 57.5938 175.956 57.1667 176.211 56.7969C176.471 56.4271 176.831 56.1406 177.289 55.9375C177.753 55.7344 178.279 55.6328 178.867 55.6328ZM178.867 56.8906C178.57 56.8906 178.31 56.9375 178.086 57.0312C177.862 57.1198 177.688 57.2552 177.562 57.4375C177.438 57.6146 177.375 57.8281 177.375 58.0781C177.375 58.3229 177.438 58.5339 177.562 58.7109C177.688 58.8828 177.862 59.0182 178.086 59.1172C178.31 59.2161 178.57 59.2656 178.867 59.2656C179.164 59.2656 179.424 59.2161 179.648 59.1172C179.872 59.0182 180.047 58.8828 180.172 58.7109C180.297 58.5339 180.359 58.3229 180.359 58.0781C180.359 57.8281 180.297 57.6146 180.172 57.4375C180.047 57.2552 179.872 57.1198 179.648 57.0312C179.424 56.9375 179.164 56.8906 178.867 56.8906ZM179.719 54.6562H177.992V52.3438H179.719V54.6562ZM180.297 61.7734C180.292 62.4193 180.167 63.0365 179.922 63.625C179.682 64.2135 179.318 64.7318 178.828 65.1797C178.344 65.6328 177.753 65.9792 177.055 66.2188L176.234 64.9141C176.812 64.7318 177.307 64.4766 177.719 64.1484C178.13 63.8151 178.44 63.4453 178.648 63.0391C178.857 62.6276 178.964 62.2057 178.969 61.7734V61.4141H180.297V61.7734ZM180.68 61.7734C180.674 62.2214 180.758 62.6562 180.93 63.0781C181.107 63.4948 181.378 63.8776 181.742 64.2266C182.107 64.5755 182.565 64.8516 183.117 65.0547L182.406 66.3438C181.714 66.099 181.143 65.7396 180.695 65.2656C180.247 64.7969 179.917 64.263 179.703 63.6641C179.495 63.0651 179.393 62.4349 179.398 61.7734V61.4141H180.68V61.7734ZM185.406 61.7734C185.401 62.3776 185.292 62.9818 185.078 63.5859C184.87 64.1901 184.539 64.737 184.086 65.2266C183.638 65.7214 183.078 66.0938 182.406 66.3438L181.688 65.0547C182.224 64.8307 182.674 64.5365 183.039 64.1719C183.409 63.8073 183.682 63.4167 183.859 63C184.042 62.5833 184.135 62.1745 184.141 61.7734V61.4141H185.406V61.7734ZM185.867 61.7734C185.862 62.2318 185.961 62.6693 186.164 63.0859C186.367 63.4974 186.672 63.8646 187.078 64.1875C187.49 64.5104 187.992 64.7526 188.586 64.9141L187.789 66.2188C187.076 65.9896 186.477 65.6536 185.992 65.2109C185.513 64.7682 185.154 64.2552 184.914 63.6719C184.674 63.0833 184.555 62.4505 184.555 61.7734V61.4141H185.867V61.7734ZM195.672 52.4922C196.734 52.4922 197.646 52.5833 198.406 52.7656C199.172 52.9479 199.753 53.2214 200.148 53.5859C200.544 53.9453 200.742 54.3828 200.742 54.8984C200.742 55.4245 200.544 55.8698 200.148 56.2344C199.753 56.599 199.174 56.875 198.414 57.0625C197.654 57.2448 196.74 57.3385 195.672 57.3438C194.594 57.3385 193.674 57.2448 192.914 57.0625C192.154 56.875 191.573 56.599 191.172 56.2344C190.771 55.8698 190.57 55.4245 190.57 54.8984C190.57 54.3828 190.771 53.9453 191.172 53.5859C191.573 53.2214 192.154 52.9479 192.914 52.7656C193.68 52.5833 194.599 52.4922 195.672 52.4922ZM195.672 53.7656C194.948 53.7656 194.341 53.8099 193.852 53.8984C193.367 53.987 193 54.1172 192.75 54.2891C192.505 54.4557 192.385 54.6589 192.391 54.8984C192.385 55.1589 192.505 55.375 192.75 55.5469C193 55.7135 193.362 55.8385 193.836 55.9219C194.315 56.0052 194.927 56.0469 195.672 56.0469C196.411 56.0469 197.021 56.0052 197.5 55.9219C197.984 55.8385 198.349 55.7135 198.594 55.5469C198.839 55.375 198.961 55.1589 198.961 54.8984C198.961 54.6589 198.839 54.4557 198.594 54.2891C198.349 54.1172 197.979 53.987 197.484 53.8984C196.995 53.8099 196.391 53.7656 195.672 53.7656ZM202.102 59.4922H189.242V58.1016H202.102V59.4922ZM200.508 63.8906H192.477V65.3047H190.758V62.6641H198.789V61.7188H190.75V60.4375H200.508V63.8906ZM200.891 66.2656H190.758V64.9375H200.891V66.2656ZM214.328 66.375H212.578V52.2656H214.328V66.375ZM216.281 59.3359H213.773V57.8984H216.281V59.3359ZM207.297 53.75C207.297 55.125 207.211 56.349 207.039 57.4219C206.872 58.4896 206.565 59.5208 206.117 60.5156C205.669 61.5104 205.039 62.4479 204.227 63.3281L202.859 62.3438C203.589 61.5677 204.156 60.7552 204.562 59.9062C204.974 59.0521 205.26 58.1589 205.422 57.2266C205.583 56.2943 205.667 55.2057 205.672 53.9609V53.75H207.297ZM206.32 55.1719H203.422V53.75H206.32V55.1719ZM211.203 53.75C211.198 55.2031 211.12 56.513 210.969 57.6797C210.823 58.8464 210.534 59.9896 210.102 61.1094C209.669 62.2292 209.052 63.2734 208.25 64.2422L206.867 63.2734C207.596 62.4036 208.159 61.487 208.555 60.5234C208.951 59.5547 209.219 58.5469 209.359 57.5C209.5 56.4531 209.573 55.263 209.578 53.9297V53.75H211.203ZM210.281 55.1719H207.766V53.75H210.281V55.1719ZM221.594 63.5312H219.883V59.4844H221.594V63.5312ZM226.82 63.5312H225.07V59.4844H226.82V63.5312ZM229.805 64.6797H216.898V63.25H229.805V64.6797ZM223.328 53.0234C224.333 53.0234 225.234 53.1797 226.031 53.4922C226.828 53.7995 227.453 54.237 227.906 54.8047C228.359 55.3724 228.586 56.0234 228.586 56.7578C228.586 57.4974 228.359 58.1484 227.906 58.7109C227.458 59.2734 226.833 59.7109 226.031 60.0234C225.234 60.3307 224.333 60.4844 223.328 60.4844C222.312 60.4844 221.406 60.3307 220.609 60.0234C219.818 59.7109 219.195 59.2734 218.742 58.7109C218.294 58.1484 218.07 57.4974 218.07 56.7578C218.07 56.0234 218.294 55.3724 218.742 54.8047C219.195 54.237 219.818 53.7995 220.609 53.4922C221.406 53.1797 222.312 53.0234 223.328 53.0234ZM223.328 54.4141C222.62 54.4089 221.997 54.5 221.461 54.6875C220.924 54.875 220.508 55.1484 220.211 55.5078C219.919 55.862 219.773 56.2786 219.773 56.7578C219.773 57.237 219.919 57.6562 220.211 58.0156C220.508 58.3698 220.924 58.6458 221.461 58.8438C221.997 59.0365 222.62 59.1328 223.328 59.1328C224.021 59.1328 224.635 59.0339 225.172 58.8359C225.708 58.638 226.125 58.362 226.422 58.0078C226.724 57.6536 226.875 57.237 226.875 56.7578C226.875 56.2786 226.724 55.862 226.422 55.5078C226.125 55.1484 225.708 54.875 225.172 54.6875C224.635 54.5 224.021 54.4089 223.328 54.4141ZM233.117 61.5312C233.117 60.8906 233.177 60.3724 233.297 59.9766C233.417 59.5807 233.583 59.263 233.797 59.0234C234.01 58.7839 234.302 58.5495 234.672 58.3203C234.917 58.1641 235.125 58.0026 235.297 57.8359C235.474 57.6693 235.609 57.4844 235.703 57.2812C235.797 57.0729 235.844 56.8438 235.844 56.5938C235.844 56.3125 235.779 56.0625 235.648 55.8438C235.518 55.625 235.333 55.4557 235.094 55.3359C234.859 55.2161 234.602 55.1589 234.32 55.1641C234.049 55.1589 233.797 55.2135 233.562 55.3281C233.328 55.4427 233.135 55.6172 232.984 55.8516C232.833 56.0859 232.75 56.3698 232.734 56.7031H230.781C230.797 56.026 230.964 55.4505 231.281 54.9766C231.599 54.4974 232.021 54.138 232.547 53.8984C233.078 53.6536 233.669 53.5312 234.32 53.5312C235.023 53.5312 235.646 53.6562 236.188 53.9062C236.729 54.151 237.148 54.5026 237.445 54.9609C237.742 55.4193 237.891 55.9531 237.891 56.5625C237.891 57.1719 237.747 57.6953 237.461 58.1328C237.18 58.5703 236.773 58.9505 236.242 59.2734C235.93 59.4609 235.682 59.6536 235.5 59.8516C235.318 60.0443 235.18 60.276 235.086 60.5469C234.992 60.8125 234.943 61.1406 234.938 61.5312V61.6797H233.117V61.5312ZM234.078 65.125C233.854 65.125 233.648 65.0703 233.461 64.9609C233.279 64.8516 233.133 64.7031 233.023 64.5156C232.914 64.3281 232.862 64.125 232.867 63.9062C232.862 63.6927 232.914 63.4948 233.023 63.3125C233.133 63.125 233.279 62.9792 233.461 62.875C233.648 62.7656 233.854 62.7109 234.078 62.7109C234.292 62.7109 234.49 62.7656 234.672 62.875C234.859 62.9792 235.008 63.125 235.117 63.3125C235.227 63.4948 235.281 63.6927 235.281 63.9062C235.281 64.125 235.227 64.3281 235.117 64.5156C235.008 64.7031 234.859 64.8516 234.672 64.9609C234.49 65.0703 234.292 65.125 234.078 65.125Z" fill="#1E1E1E"/>
<path d="M320.428 38.6343H351.352C352.4 38.6343 353.25 39.4844 353.25 40.5319V49.3521V55.083V58.8707C353.25 59.9182 352.4 60.7683 351.352 60.7683H345.386C345.227 60.7683 345.075 60.8139 344.953 60.905L339.503 64.7306C339.002 65.0874 338.312 64.7306 338.312 64.1082V61.072C338.312 60.905 338.175 60.7683 338.008 60.7683H321.567C320.519 60.7683 319.669 59.9182 319.669 58.8707V39.3933C319.669 38.9759 320.011 38.6343 320.428 38.6343Z" fill="#FFC499"/>
<path d="M332.466 31.1277H302.65C301.601 31.1277 300.75 31.9778 300.75 33.0253V51.3641C300.75 52.4116 301.601 53.2618 302.65 53.2618H308.622C308.782 53.2618 308.933 53.3073 309.055 53.3984L314.511 57.224C315.012 57.5808 315.704 57.224 315.704 56.6016V53.5654C315.704 53.3984 315.84 53.2618 316.008 53.2618H332.466C333.514 53.2618 334.365 52.4116 334.365 51.3641V33.0253C334.365 31.9778 333.514 31.1277 332.466 31.1277Z" fill="#FF6A00"/>
<circle cx="311.051" cy="42.4132" r="1.62655" fill="white"/>
<circle cx="317.558" cy="42.4132" r="1.62655" fill="white"/>
<circle cx="324.064" cy="42.4132" r="1.62655" fill="white"/>
</svg>
