<svg width="16" height="18" viewBox="0 0 16 18" fill="none" xmlns="http://www.w3.org/2000/svg">
<g clip-path="url(#clip0_2707_8248)">
<path fill-rule="evenodd" clip-rule="evenodd" d="M8.00002 3.99984C4.68631 3.99984 2.00002 6.68613 2.00002 9.99984C2.00002 13.3135 4.68631 15.9998 8.00002 15.9998C11.3137 15.9998 14 13.3135 14 9.99984C14 6.68613 11.3137 3.99984 8.00002 3.99984ZM0.666687 9.99984C0.666687 5.94975 3.94993 2.6665 8.00002 2.6665C12.0501 2.6665 15.3334 5.94975 15.3334 9.99984C15.3334 14.0499 12.0501 17.3332 8.00002 17.3332C3.94993 17.3332 0.666687 14.0499 0.666687 9.99984Z" fill="#797979"/>
<path fill-rule="evenodd" clip-rule="evenodd" d="M7.99998 6C8.36817 6 8.66665 6.29848 8.66665 6.66667V11.3333C8.66665 11.7015 8.36817 12 7.99998 12C7.63179 12 7.33331 11.7015 7.33331 11.3333V6.66667C7.33331 6.29848 7.63179 6 7.99998 6Z" fill="#797979"/>
<path fill-rule="evenodd" clip-rule="evenodd" d="M7.99998 12.6665C8.36817 12.6665 8.66665 12.965 8.66665 13.3332L8.66665 13.4665C8.66665 13.8347 8.36817 14.1332 7.99998 14.1332C7.63179 14.1332 7.33331 13.8347 7.33331 13.4665L7.33331 13.3332C7.33331 12.965 7.63179 12.6665 7.99998 12.6665Z" fill="#797979"/>
</g>
<defs>
<clipPath id="clip0_2707_8248">
<rect width="16" height="16" fill="white" transform="translate(0 2)"/>
</clipPath>
</defs>
</svg>
