<svg width="56" height="56" viewBox="0 0 56 56" fill="none" xmlns="http://www.w3.org/2000/svg">
<path d="M21.4284 18.6343H52.3523C53.3998 18.6343 54.2499 19.4844 54.2499 20.5319V29.3521V35.083V38.8707C54.2499 39.9182 53.3998 40.7683 52.3523 40.7683H46.3861C46.2267 40.7683 46.0749 40.8139 45.9535 40.905L40.5034 44.7306C40.0025 45.0874 39.3117 44.7306 39.3117 44.1082V41.072C39.3117 40.905 39.1751 40.7683 39.0081 40.7683H22.567C21.5195 40.7683 20.6693 39.9182 20.6693 38.8707V19.3933C20.6693 18.9759 21.0109 18.6343 21.4284 18.6343Z" fill="#FFC499"/>
<path d="M33.4657 11.1277H3.6496C2.60102 11.1277 1.75 11.9778 1.75 13.0253V31.3641C1.75 32.4116 2.60102 33.2618 3.6496 33.2618H9.62194C9.78151 33.2618 9.93348 33.3073 10.0551 33.3984L15.5107 37.224C16.0122 37.5808 16.7037 37.224 16.7037 36.6016V33.5654C16.7037 33.3984 16.8404 33.2618 17.0076 33.2618H33.4657C34.5143 33.2618 35.3653 32.4116 35.3653 31.3641V13.0253C35.3653 11.9778 34.5143 11.1277 33.4657 11.1277Z" fill="#FF6A00"/>
<circle cx="12.0514" cy="22.4132" r="1.62655" fill="white"/>
<circle cx="18.5576" cy="22.4132" r="1.62655" fill="white"/>
<circle cx="25.0636" cy="22.4132" r="1.62655" fill="white"/>
</svg>
