<svg width="335" height="280" viewBox="0 0 335 280" fill="none" xmlns="http://www.w3.org/2000/svg">
<g clip-path="url(#clip0_1976_11686)">
<rect width="335" height="280" rx="12" fill="url(#paint0_linear_1976_11686)"/>
<rect x="147.5" y="40" width="40" height="40" rx="20" fill="#FF6A00"/>
<path fill-rule="evenodd" clip-rule="evenodd" d="M162.963 55.3705C162.963 52.8648 164.995 50.8335 167.5 50.8335C170.006 50.8335 172.037 52.8648 172.037 55.3705V57.6239H172.439C173.581 57.6239 174.506 58.5497 174.506 59.6918V67.0992C174.506 68.2412 173.581 69.1671 172.439 69.1671H162.562C161.42 69.1671 160.494 68.2412 160.494 67.0992V59.6918C160.494 58.5497 161.42 57.6239 162.562 57.6239H162.963V55.3705ZM170.371 55.3705V57.6239H164.63V55.3705C164.63 53.7853 165.915 52.5002 167.5 52.5002C169.086 52.5002 170.371 53.7853 170.371 55.3705ZM162.562 59.2905C162.34 59.2905 162.161 59.4702 162.161 59.6918V67.0992C162.161 67.3208 162.34 67.5004 162.562 67.5004H172.439C172.66 67.5004 172.84 67.3208 172.84 67.0992V59.6918C172.84 59.4702 172.66 59.2905 172.439 59.2905H162.562ZM168.333 63.3794C168.58 63.1537 168.735 62.8291 168.735 62.4685C168.735 61.7866 168.182 61.2339 167.5 61.2339C166.818 61.2339 166.266 61.7866 166.266 62.4685C166.266 62.8291 166.42 63.1536 166.667 63.3793V65.5557C166.667 66.0159 167.04 66.389 167.5 66.389C167.96 66.389 168.333 66.0159 168.333 65.5557V63.3794Z" fill="white"/>
<path d="M63.4639 112.591H61.4863V96.6738H63.4639V112.591ZM54.9033 97.834C55.7002 97.834 56.4121 98.0625 57.0391 98.5195C57.666 98.9766 58.1553 99.6328 58.5068 100.488C58.8584 101.338 59.0342 102.322 59.0342 103.441C59.0342 104.572 58.8584 105.562 58.5068 106.412C58.1553 107.262 57.666 107.918 57.0391 108.381C56.4121 108.838 55.7002 109.066 54.9033 109.066C54.1006 109.066 53.3857 108.838 52.7588 108.381C52.1318 107.918 51.6396 107.262 51.2822 106.412C50.9248 105.562 50.749 104.572 50.7549 103.441C50.749 102.322 50.9248 101.338 51.2822 100.488C51.6396 99.6328 52.1318 98.9766 52.7588 98.5195C53.3857 98.0625 54.1006 97.834 54.9033 97.834ZM54.9033 99.5918C54.4521 99.5918 54.0537 99.7441 53.708 100.049C53.3682 100.354 53.1045 100.799 52.917 101.385C52.7354 101.965 52.6445 102.65 52.6445 103.441C52.6445 104.244 52.7354 104.936 52.917 105.516C53.1045 106.096 53.3682 106.538 53.708 106.843C54.0537 107.147 54.4521 107.297 54.9033 107.291C55.3486 107.297 55.7412 107.147 56.0811 106.843C56.4209 106.538 56.6846 106.096 56.8721 105.516C57.0596 104.936 57.1533 104.244 57.1533 103.441C57.1533 102.645 57.0596 101.959 56.8721 101.385C56.6846 100.805 56.4209 100.362 56.0811 100.058C55.7412 99.7471 55.3486 99.5918 54.9033 99.5918ZM74.2041 108.706H66.6455V98.168H74.2041V108.706ZM68.5791 107.15H72.2969V99.6973H68.5791V107.15ZM79.0205 112.591H77.043V96.6738H79.0205V112.591ZM98.875 108.17H96.915V96.6914H98.875V108.17ZM99.3232 112.266H88.3633V110.666H99.3232V112.266ZM90.332 111.29H88.3633V107.01H90.332V111.29ZM90.2178 97.7285C91.0146 97.7285 91.7383 97.9014 92.3887 98.2471C93.0449 98.5869 93.5605 99.0586 93.9355 99.6621C94.3105 100.26 94.498 100.937 94.498 101.692C94.498 102.466 94.3105 103.157 93.9355 103.767C93.5605 104.37 93.0479 104.842 92.3975 105.182C91.7471 105.521 91.0205 105.691 90.2178 105.691C89.415 105.691 88.6885 105.521 88.0381 105.182C87.3936 104.842 86.8809 104.37 86.5 103.767C86.125 103.157 85.9375 102.466 85.9375 101.692C85.9375 100.937 86.125 100.26 86.5 99.6621C86.8809 99.0586 87.3936 98.5869 88.0381 98.2471C88.6885 97.9014 89.415 97.7285 90.2178 97.7285ZM90.2178 99.4424C89.7666 99.4424 89.3594 99.5361 88.9961 99.7236C88.6387 99.9053 88.3574 100.169 88.1523 100.515C87.9473 100.854 87.8447 101.247 87.8447 101.692C87.8447 102.155 87.9473 102.56 88.1523 102.905C88.3574 103.251 88.6387 103.518 88.9961 103.705C89.3594 103.893 89.7666 103.983 90.2178 103.978C90.6631 103.983 91.0645 103.893 91.4219 103.705C91.7793 103.518 92.0576 103.251 92.2568 102.905C92.4619 102.56 92.5645 102.155 92.5645 101.692C92.5645 101.247 92.4619 100.854 92.2568 100.515C92.0576 100.169 91.7793 99.9053 91.4219 99.7236C91.0645 99.5361 90.6631 99.4424 90.2178 99.4424ZM106.521 100.488C106.516 101.766 106.34 102.981 105.994 104.136C105.654 105.284 105.15 106.307 104.482 107.203C103.82 108.1 103.029 108.782 102.109 109.251L100.896 107.669C101.729 107.276 102.446 106.705 103.05 105.955C103.659 105.199 104.122 104.35 104.438 103.406C104.761 102.463 104.925 101.49 104.931 100.488V97.9482H106.521V100.488ZM106.873 100.488C106.873 101.455 107.025 102.39 107.33 103.292C107.641 104.194 108.086 105.006 108.666 105.727C109.252 106.447 109.943 107.001 110.74 107.388L109.562 108.943C108.666 108.492 107.898 107.836 107.26 106.975C106.621 106.113 106.135 105.129 105.801 104.021C105.473 102.908 105.312 101.73 105.317 100.488V97.9482H106.873V100.488ZM113.649 112.547H111.698V96.6738H113.649V112.547ZM116.102 104.566H113.21V102.905H116.102V104.566ZM129.979 112.591H128.002V96.6738H129.979V112.591ZM121.419 97.834C122.216 97.834 122.928 98.0625 123.555 98.5195C124.182 98.9766 124.671 99.6328 125.022 100.488C125.374 101.338 125.55 102.322 125.55 103.441C125.55 104.572 125.374 105.562 125.022 106.412C124.671 107.262 124.182 107.918 123.555 108.381C122.928 108.838 122.216 109.066 121.419 109.066C120.616 109.066 119.901 108.838 119.274 108.381C118.647 107.918 118.155 107.262 117.798 106.412C117.44 105.562 117.265 104.572 117.271 103.441C117.265 102.322 117.44 101.338 117.798 100.488C118.155 99.6328 118.647 98.9766 119.274 98.5195C119.901 98.0625 120.616 97.834 121.419 97.834ZM121.419 99.5918C120.968 99.5918 120.569 99.7441 120.224 100.049C119.884 100.354 119.62 100.799 119.433 101.385C119.251 101.965 119.16 102.65 119.16 103.441C119.16 104.244 119.251 104.936 119.433 105.516C119.62 106.096 119.884 106.538 120.224 106.843C120.569 107.147 120.968 107.297 121.419 107.291C121.864 107.297 122.257 107.147 122.597 106.843C122.937 106.538 123.2 106.096 123.388 105.516C123.575 104.936 123.669 104.244 123.669 103.441C123.669 102.645 123.575 101.959 123.388 101.385C123.2 100.805 122.937 100.362 122.597 100.058C122.257 99.7471 121.864 99.5918 121.419 99.5918ZM145.229 106.562H134.084V105.015H145.229V106.562ZM146.846 110.631H132.326V109.04H146.846V110.631ZM145.088 99.5127H136.07V105.437H134.084V97.9131H145.088V99.5127ZM144.728 102.949H135.481V101.411H144.728V102.949ZM163.8 99.6973H153.622V98.124H163.8V99.6973ZM166.639 110.508H152.172V108.917H166.639V110.508ZM157.357 109.462H155.406V103.846H157.357V109.462ZM165.188 99.8379C165.188 100.705 165.177 101.461 165.153 102.105C165.136 102.744 165.083 103.479 164.995 104.312C164.913 105.138 164.784 106.025 164.608 106.975L162.684 106.79C162.854 105.894 162.977 105.047 163.053 104.25C163.135 103.447 163.185 102.741 163.202 102.132C163.226 101.517 163.237 100.758 163.237 99.8555V99.75V98.124H165.188V99.75V99.8379ZM161.304 109.462H159.379V103.846H161.304V109.462ZM180.314 109.084H178.354V96.6738H180.314V109.084ZM182.459 103.626H179.594V102.009H182.459V103.626ZM180.868 112.266H169.855V110.666H180.868V112.266ZM171.824 111.149H169.855V108.258H171.824V111.149ZM173.529 106.614H171.578V104.347H173.529V106.614ZM167.579 105.911C169.454 105.905 171.218 105.867 172.87 105.797C174.528 105.727 176.084 105.58 177.537 105.357L177.687 106.72C176.286 106.983 174.833 107.162 173.327 107.256C171.827 107.35 170.128 107.411 168.229 107.44C168.142 107.44 168.068 107.44 168.01 107.44C167.951 107.44 167.878 107.44 167.79 107.44L167.579 105.911ZM177.106 99.4775H167.983V98.0625H177.106V99.4775ZM172.536 99.9961C173.304 100.002 173.978 100.102 174.558 100.295C175.138 100.488 175.586 100.772 175.902 101.147C176.219 101.517 176.377 101.959 176.377 102.475C176.377 102.967 176.219 103.395 175.902 103.758C175.586 104.121 175.138 104.402 174.558 104.602C173.978 104.801 173.304 104.9 172.536 104.9C171.769 104.9 171.098 104.801 170.523 104.602C169.949 104.402 169.501 104.121 169.179 103.758C168.862 103.395 168.704 102.967 168.704 102.475C168.704 101.965 168.862 101.522 169.179 101.147C169.501 100.772 169.949 100.488 170.523 100.295C171.098 100.102 171.769 100.002 172.536 99.9961ZM172.536 101.332C172.126 101.332 171.771 101.376 171.473 101.464C171.18 101.546 170.957 101.675 170.805 101.851C170.652 102.021 170.576 102.229 170.576 102.475C170.576 102.697 170.652 102.891 170.805 103.055C170.957 103.219 171.18 103.348 171.473 103.441C171.771 103.529 172.126 103.573 172.536 103.573C172.946 103.573 173.298 103.529 173.591 103.441C173.89 103.348 174.115 103.219 174.268 103.055C174.426 102.891 174.505 102.697 174.505 102.475C174.505 102.229 174.429 102.021 174.276 101.851C174.124 101.675 173.898 101.546 173.6 101.464C173.301 101.376 172.946 101.332 172.536 101.332ZM173.529 98.7041H171.578V96.6299H173.529V98.7041ZM190.519 96.9287C191.714 96.9287 192.739 97.0312 193.595 97.2363C194.456 97.4414 195.109 97.749 195.555 98.1592C196 98.5635 196.223 99.0557 196.223 99.6357C196.223 100.228 196 100.729 195.555 101.139C195.109 101.549 194.459 101.859 193.604 102.07C192.748 102.275 191.72 102.381 190.519 102.387C189.306 102.381 188.271 102.275 187.416 102.07C186.561 101.859 185.907 101.549 185.456 101.139C185.005 100.729 184.779 100.228 184.779 99.6357C184.779 99.0557 185.005 98.5635 185.456 98.1592C185.907 97.749 186.561 97.4414 187.416 97.2363C188.277 97.0312 189.312 96.9287 190.519 96.9287ZM190.519 98.3613C189.704 98.3613 189.021 98.4111 188.471 98.5107C187.926 98.6104 187.513 98.7568 187.231 98.9502C186.956 99.1377 186.821 99.3662 186.827 99.6357C186.821 99.9287 186.956 100.172 187.231 100.365C187.513 100.553 187.92 100.693 188.453 100.787C188.992 100.881 189.681 100.928 190.519 100.928C191.351 100.928 192.036 100.881 192.575 100.787C193.12 100.693 193.53 100.553 193.806 100.365C194.081 100.172 194.219 99.9287 194.219 99.6357C194.219 99.3662 194.081 99.1377 193.806 98.9502C193.53 98.7568 193.114 98.6104 192.558 98.5107C192.007 98.4111 191.327 98.3613 190.519 98.3613ZM197.752 104.804H183.285V103.239H197.752V104.804ZM195.959 109.752H186.924V111.343H184.99V108.372H194.025V107.309H184.981V105.867H195.959V109.752ZM196.39 112.424H184.99V110.93H196.39V112.424ZM208.413 109.348H206.488V104.795H208.413V109.348ZM214.293 109.348H212.324V104.795H214.293V109.348ZM217.65 110.64H203.131V109.031H217.65V110.64ZM210.364 97.5264C211.495 97.5264 212.509 97.7021 213.405 98.0537C214.302 98.3994 215.005 98.8916 215.515 99.5303C216.024 100.169 216.279 100.901 216.279 101.728C216.279 102.56 216.024 103.292 215.515 103.925C215.011 104.558 214.308 105.05 213.405 105.401C212.509 105.747 211.495 105.92 210.364 105.92C209.222 105.92 208.202 105.747 207.306 105.401C206.415 105.05 205.715 104.558 205.205 103.925C204.701 103.292 204.449 102.56 204.449 101.728C204.449 100.901 204.701 100.169 205.205 99.5303C205.715 98.8916 206.415 98.3994 207.306 98.0537C208.202 97.7021 209.222 97.5264 210.364 97.5264ZM210.364 99.0908C209.567 99.085 208.867 99.1875 208.264 99.3984C207.66 99.6094 207.191 99.917 206.857 100.321C206.529 100.72 206.365 101.188 206.365 101.728C206.365 102.267 206.529 102.738 206.857 103.143C207.191 103.541 207.66 103.852 208.264 104.074C208.867 104.291 209.567 104.399 210.364 104.399C211.144 104.399 211.835 104.288 212.438 104.065C213.042 103.843 213.511 103.532 213.845 103.134C214.185 102.735 214.354 102.267 214.354 101.728C214.354 101.188 214.185 100.72 213.845 100.321C213.511 99.917 213.042 99.6094 212.438 99.3984C211.835 99.1875 211.144 99.085 210.364 99.0908ZM224.014 100.058C224.014 100.995 223.841 101.868 223.495 102.677C223.155 103.485 222.648 104.191 221.975 104.795C221.301 105.393 220.492 105.832 219.549 106.113L218.626 104.602C219.435 104.355 220.123 103.998 220.691 103.529C221.266 103.061 221.702 102.53 222.001 101.938C222.3 101.341 222.449 100.714 222.449 100.058V99.4248H224.014V100.058ZM224.383 100.058C224.383 100.655 224.535 101.227 224.84 101.771C225.145 102.316 225.584 102.803 226.158 103.23C226.738 103.658 227.436 103.98 228.25 104.197L227.318 105.7C226.369 105.442 225.555 105.038 224.875 104.487C224.195 103.937 223.677 103.28 223.319 102.519C222.968 101.757 222.792 100.937 222.792 100.058V99.4248H224.383V100.058ZM227.714 99.9785H219.118V98.4316H227.714V99.9785ZM224.409 99.0293H222.449V96.6035H224.409V99.0293ZM230.526 102.615H227.23V101.033H230.526V102.615ZM231.985 106.289H230.034V96.6738H231.985V106.289ZM226.615 106.605C227.729 106.605 228.692 106.72 229.507 106.948C230.321 107.171 230.945 107.508 231.379 107.959C231.818 108.404 232.038 108.938 232.038 109.559C232.038 110.18 231.818 110.716 231.379 111.167C230.945 111.618 230.321 111.958 229.507 112.187C228.692 112.421 227.729 112.538 226.615 112.538C225.502 112.538 224.538 112.421 223.724 112.187C222.915 111.958 222.291 111.618 221.852 111.167C221.418 110.716 221.201 110.18 221.201 109.559C221.201 108.938 221.418 108.404 221.852 107.959C222.291 107.508 222.915 107.171 223.724 106.948C224.538 106.72 225.502 106.605 226.615 106.605ZM226.615 108.1C225.877 108.105 225.247 108.164 224.726 108.275C224.21 108.381 223.817 108.542 223.548 108.759C223.278 108.976 223.144 109.242 223.144 109.559C223.144 109.875 223.278 110.145 223.548 110.367C223.817 110.584 224.21 110.751 224.726 110.868C225.247 110.979 225.877 111.038 226.615 111.044C227.354 111.038 227.983 110.979 228.505 110.868C229.026 110.751 229.419 110.584 229.683 110.367C229.952 110.145 230.087 109.875 230.087 109.559C230.087 109.242 229.952 108.976 229.683 108.759C229.419 108.542 229.026 108.381 228.505 108.275C227.989 108.164 227.359 108.105 226.615 108.1ZM247.823 106.491H245.96V96.6914H247.823V106.491ZM246.47 102.457H243.719V100.866H246.47V102.457ZM244.448 106.298H242.62V96.9199H244.448V106.298ZM242.058 99.8643H234.156V98.2998H242.058V99.8643ZM238.129 100.462C238.797 100.462 239.392 100.576 239.913 100.805C240.435 101.033 240.842 101.355 241.135 101.771C241.428 102.188 241.574 102.668 241.574 103.213C241.574 103.752 241.428 104.229 241.135 104.646C240.842 105.062 240.432 105.387 239.904 105.621C239.383 105.85 238.791 105.964 238.129 105.964C237.473 105.964 236.884 105.85 236.362 105.621C235.841 105.387 235.434 105.062 235.141 104.646C234.854 104.229 234.71 103.752 234.71 103.213C234.71 102.668 234.854 102.188 235.141 101.771C235.434 101.355 235.838 101.033 236.354 100.805C236.875 100.576 237.467 100.462 238.129 100.462ZM238.129 101.877C237.795 101.877 237.502 101.93 237.25 102.035C236.998 102.135 236.802 102.287 236.661 102.492C236.521 102.691 236.45 102.932 236.45 103.213C236.45 103.488 236.521 103.726 236.661 103.925C236.802 104.118 236.998 104.271 237.25 104.382C237.502 104.493 237.795 104.549 238.129 104.549C238.463 104.549 238.756 104.493 239.008 104.382C239.26 104.271 239.456 104.118 239.597 103.925C239.737 103.726 239.808 103.488 239.808 103.213C239.808 102.932 239.737 102.691 239.597 102.492C239.456 102.287 239.26 102.135 239.008 102.035C238.756 101.93 238.463 101.877 238.129 101.877ZM239.087 99.3633H237.145V96.7617H239.087V99.3633ZM239.737 107.37C239.731 108.097 239.591 108.791 239.315 109.453C239.046 110.115 238.636 110.698 238.085 111.202C237.54 111.712 236.875 112.102 236.09 112.371L235.167 110.903C235.817 110.698 236.374 110.411 236.837 110.042C237.3 109.667 237.648 109.251 237.883 108.794C238.117 108.331 238.237 107.856 238.243 107.37V106.966H239.737V107.37ZM240.168 107.37C240.162 107.874 240.256 108.363 240.449 108.838C240.648 109.307 240.953 109.737 241.363 110.13C241.773 110.522 242.289 110.833 242.91 111.062L242.11 112.512C241.331 112.236 240.689 111.832 240.186 111.299C239.682 110.771 239.31 110.171 239.069 109.497C238.835 108.823 238.721 108.114 238.727 107.37V106.966H240.168V107.37ZM245.485 107.37C245.479 108.05 245.356 108.729 245.116 109.409C244.882 110.089 244.51 110.704 244 111.255C243.496 111.812 242.866 112.23 242.11 112.512L241.302 111.062C241.905 110.81 242.412 110.479 242.822 110.068C243.238 109.658 243.546 109.219 243.745 108.75C243.95 108.281 244.056 107.821 244.062 107.37V106.966H245.485V107.37ZM246.004 107.37C245.998 107.886 246.109 108.378 246.338 108.847C246.566 109.31 246.909 109.723 247.366 110.086C247.829 110.449 248.395 110.722 249.062 110.903L248.166 112.371C247.363 112.113 246.689 111.735 246.145 111.237C245.605 110.739 245.201 110.162 244.932 109.506C244.662 108.844 244.527 108.132 244.527 107.37V106.966H246.004V107.37ZM254.134 97.834C254.919 97.834 255.619 98.0625 256.234 98.5195C256.855 98.9766 257.336 99.6299 257.676 100.479C258.021 101.329 258.194 102.316 258.194 103.441C258.194 104.578 258.021 105.571 257.676 106.421C257.336 107.265 256.855 107.918 256.234 108.381C255.619 108.838 254.919 109.066 254.134 109.066C253.337 109.066 252.631 108.838 252.016 108.381C251.4 107.918 250.92 107.265 250.574 106.421C250.229 105.571 250.056 104.578 250.056 103.441C250.056 102.316 250.229 101.329 250.574 100.479C250.92 99.6299 251.4 98.9766 252.016 98.5195C252.631 98.0625 253.337 97.834 254.134 97.834ZM254.134 99.5918C253.694 99.5918 253.311 99.7471 252.982 100.058C252.654 100.362 252.396 100.805 252.209 101.385C252.021 101.965 251.928 102.65 251.928 103.441C251.928 104.244 252.021 104.936 252.209 105.516C252.396 106.096 252.654 106.538 252.982 106.843C253.311 107.147 253.694 107.297 254.134 107.291C254.567 107.297 254.951 107.147 255.285 106.843C255.625 106.538 255.886 106.096 256.067 105.516C256.249 104.936 256.34 104.244 256.34 103.441C256.34 102.65 256.249 101.965 256.067 101.385C255.886 100.799 255.625 100.354 255.285 100.049C254.951 99.7441 254.567 99.5918 254.134 99.5918ZM263.107 112.591H261.174V96.6738H263.107V112.591ZM262.018 104.101H257.597V102.519H262.018V104.101ZM270.64 109.348H268.715V104.795H270.64V109.348ZM276.52 109.348H274.551V104.795H276.52V109.348ZM279.877 110.64H265.357V109.031H279.877V110.64ZM272.591 97.5264C273.722 97.5264 274.735 97.7021 275.632 98.0537C276.528 98.3994 277.231 98.8916 277.741 99.5303C278.251 100.169 278.506 100.901 278.506 101.728C278.506 102.56 278.251 103.292 277.741 103.925C277.237 104.558 276.534 105.05 275.632 105.401C274.735 105.747 273.722 105.92 272.591 105.92C271.448 105.92 270.429 105.747 269.532 105.401C268.642 105.05 267.941 104.558 267.432 103.925C266.928 103.292 266.676 102.56 266.676 101.728C266.676 100.901 266.928 100.169 267.432 99.5303C267.941 98.8916 268.642 98.3994 269.532 98.0537C270.429 97.7021 271.448 97.5264 272.591 97.5264ZM272.591 99.0908C271.794 99.085 271.094 99.1875 270.49 99.3984C269.887 99.6094 269.418 99.917 269.084 100.321C268.756 100.72 268.592 101.188 268.592 101.728C268.592 102.267 268.756 102.738 269.084 103.143C269.418 103.541 269.887 103.852 270.49 104.074C271.094 104.291 271.794 104.399 272.591 104.399C273.37 104.399 274.062 104.288 274.665 104.065C275.269 103.843 275.737 103.532 276.071 103.134C276.411 102.735 276.581 102.267 276.581 101.728C276.581 101.188 276.411 100.72 276.071 100.321C275.737 99.917 275.269 99.6094 274.665 99.3984C274.062 99.1875 273.37 99.085 272.591 99.0908ZM282.839 111.141C282.587 111.141 282.355 111.079 282.145 110.956C281.939 110.833 281.775 110.666 281.652 110.455C281.529 110.244 281.471 110.016 281.477 109.77C281.471 109.529 281.529 109.307 281.652 109.102C281.775 108.891 281.939 108.727 282.145 108.609C282.355 108.486 282.587 108.425 282.839 108.425C283.079 108.425 283.302 108.486 283.507 108.609C283.718 108.727 283.885 108.891 284.008 109.102C284.131 109.307 284.192 109.529 284.192 109.77C284.192 110.016 284.131 110.244 284.008 110.455C283.885 110.666 283.718 110.833 283.507 110.956C283.302 111.079 283.079 111.141 282.839 111.141ZM105.81 135.648H91.29V134.04H105.81V135.648ZM99.5166 134.532H97.5566V130.401H99.5166V134.532ZM99.1562 124.46C99.1562 125.55 98.8779 126.552 98.3213 127.466C97.7646 128.38 96.9941 129.147 96.0098 129.769C95.0312 130.39 93.9238 130.817 92.6875 131.052L91.9141 129.505C92.9629 129.329 93.915 128.989 94.7705 128.485C95.626 127.976 96.2939 127.372 96.7744 126.675C97.2549 125.978 97.4951 125.239 97.4951 124.46V123.748H99.1562V124.46ZM99.5342 124.46C99.5342 125.239 99.7773 125.975 100.264 126.666C100.75 127.357 101.424 127.949 102.285 128.441C103.152 128.934 104.131 129.262 105.221 129.426L104.447 130.964C103.188 130.735 102.06 130.316 101.063 129.707C100.073 129.098 99.2969 128.345 98.7344 127.448C98.1777 126.546 97.9023 125.55 97.9082 124.46V123.748H99.5342V124.46ZM104.544 124.557H92.4854V122.966H104.544V124.557ZM118.844 124.021H108.631V122.447H118.844V124.021ZM121.366 129.769H106.847V128.187H121.366V129.769ZM119.582 123.687C119.582 124.606 119.553 125.433 119.494 126.165C119.441 126.897 119.307 127.732 119.09 128.67L117.121 128.6C117.279 127.973 117.394 127.381 117.464 126.824C117.54 126.268 117.587 125.775 117.604 125.348C117.622 124.914 117.631 124.401 117.631 123.81V123.687V122.447H119.582V123.687ZM119.564 137.362H108.578V131.623H119.564V137.362ZM110.503 135.789H117.622V133.152H110.503V135.789ZM130.463 130.56H122.939V123.036H130.463V130.56ZM124.864 129.013H128.547V124.601H124.864V129.013ZM134.928 133.284H132.977V121.683H134.928V133.284ZM137.151 127.958H134.348V126.341H137.151V127.958ZM135.552 137.266H124.75V135.666H135.552V137.266ZM126.692 136.422H124.75V132.15H126.692V136.422ZM155.512 137.547H153.534V121.674H155.512V137.547ZM150.774 123.361C150.769 125.02 150.528 126.54 150.054 127.923C149.579 129.3 148.794 130.568 147.698 131.729C146.608 132.889 145.167 133.894 143.374 134.743L142.337 133.179C143.866 132.452 145.108 131.626 146.063 130.7C147.019 129.769 147.719 128.729 148.164 127.58C148.609 126.432 148.832 125.137 148.832 123.695V123.361H150.774ZM149.711 124.908H143.146V123.361H149.711V124.908ZM170.242 137.591H168.291V121.674H170.242V137.591ZM172.694 129.312H169.803V127.703H172.694V129.312ZM159.757 132.071C161.233 132.071 162.528 132.036 163.642 131.966C164.755 131.89 165.88 131.749 167.017 131.544L167.236 133.196C166.076 133.401 164.934 133.536 163.809 133.601C162.684 133.665 161.333 133.694 159.757 133.688H158.447V132.071H159.757ZM165.883 124.768H160.398V132.862H158.447V123.177H165.883V124.768ZM186.651 137.591H184.709V121.674H186.651V137.591ZM185.096 126.728H181.879V125.137H185.096V126.728ZM175.155 132.37C176.456 132.37 177.628 132.341 178.671 132.282C179.714 132.218 180.798 132.104 181.923 131.939L182.09 133.539C180.953 133.715 179.863 133.835 178.82 133.899C177.777 133.958 176.556 133.984 175.155 133.979H173.934V132.37H175.155ZM180.974 128.995H175.876V132.748H173.934V127.457H179.049V124.618H173.881V123.045H180.974V128.995ZM185.025 131.061H181.8V129.452H185.025V131.061ZM201.021 123.924C201.021 124.855 200.755 125.708 200.222 126.481C199.694 127.249 198.95 127.894 197.989 128.415C197.028 128.937 195.93 129.288 194.693 129.47L193.955 127.94C195.01 127.8 195.944 127.527 196.759 127.123C197.573 126.719 198.203 126.238 198.648 125.682C199.094 125.119 199.316 124.533 199.316 123.924V123.379H201.021V123.924ZM201.566 123.924C201.566 124.533 201.786 125.119 202.226 125.682C202.671 126.238 203.301 126.719 204.115 127.123C204.93 127.527 205.867 127.8 206.928 127.94L206.225 129.47C204.977 129.288 203.869 128.937 202.902 128.415C201.941 127.894 201.194 127.249 200.661 126.481C200.128 125.708 199.861 124.855 199.861 123.924V123.379H201.566V123.924ZM201.364 137.556H199.439V131.632H201.364V137.556ZM207.675 132.106H193.208V130.533H207.675V132.106ZM206.348 124.108H194.518V122.57H206.348V124.108ZM217.905 128.758H215.058V127.149H217.905V128.758ZM213.335 125.928C213.335 127.123 213.2 128.263 212.931 129.347C212.667 130.431 212.263 131.406 211.718 132.273C211.173 133.135 210.502 133.806 209.705 134.286L208.501 132.836C209.239 132.385 209.857 131.796 210.355 131.069C210.854 130.337 211.223 129.534 211.463 128.661C211.703 127.788 211.826 126.877 211.832 125.928V123.089H213.335V125.928ZM213.722 125.849C213.722 126.757 213.827 127.624 214.038 128.45C214.255 129.276 214.589 130.038 215.04 130.735C215.491 131.427 216.062 131.989 216.754 132.423L215.682 133.935C214.891 133.46 214.237 132.801 213.722 131.957C213.206 131.113 212.828 130.176 212.588 129.145C212.354 128.113 212.239 127.015 212.245 125.849V123.089H213.722V125.849ZM222.467 137.547H220.586V121.674H222.467V137.547ZM219.153 136.8H217.325V121.946H219.153V136.8ZM229.604 134.348H227.679V129.795H229.604V134.348ZM235.483 134.348H233.515V129.795H235.483V134.348ZM238.841 135.64H224.321V134.031H238.841V135.64ZM231.555 122.526C232.686 122.526 233.699 122.702 234.596 123.054C235.492 123.399 236.195 123.892 236.705 124.53C237.215 125.169 237.47 125.901 237.47 126.728C237.47 127.56 237.215 128.292 236.705 128.925C236.201 129.558 235.498 130.05 234.596 130.401C233.699 130.747 232.686 130.92 231.555 130.92C230.412 130.92 229.393 130.747 228.496 130.401C227.605 130.05 226.905 129.558 226.396 128.925C225.892 128.292 225.64 127.56 225.64 126.728C225.64 125.901 225.892 125.169 226.396 124.53C226.905 123.892 227.605 123.399 228.496 123.054C229.393 122.702 230.412 122.526 231.555 122.526ZM231.555 124.091C230.758 124.085 230.058 124.188 229.454 124.398C228.851 124.609 228.382 124.917 228.048 125.321C227.72 125.72 227.556 126.188 227.556 126.728C227.556 127.267 227.72 127.738 228.048 128.143C228.382 128.541 228.851 128.852 229.454 129.074C230.058 129.291 230.758 129.399 231.555 129.399C232.334 129.399 233.025 129.288 233.629 129.065C234.232 128.843 234.701 128.532 235.035 128.134C235.375 127.735 235.545 127.267 235.545 126.728C235.545 126.188 235.375 125.72 235.035 125.321C234.701 124.917 234.232 124.609 233.629 124.398C233.025 124.188 232.334 124.085 231.555 124.091ZM241.803 136.141C241.551 136.141 241.319 136.079 241.108 135.956C240.903 135.833 240.739 135.666 240.616 135.455C240.493 135.244 240.435 135.016 240.44 134.77C240.435 134.529 240.493 134.307 240.616 134.102C240.739 133.891 240.903 133.727 241.108 133.609C241.319 133.486 241.551 133.425 241.803 133.425C242.043 133.425 242.266 133.486 242.471 133.609C242.682 133.727 242.849 133.891 242.972 134.102C243.095 134.307 243.156 134.529 243.156 134.77C243.156 135.016 243.095 135.244 242.972 135.455C242.849 135.666 242.682 135.833 242.471 135.956C242.266 136.079 242.043 136.141 241.803 136.141Z" fill="white"/>
<g filter="url(#filter0_d_1976_11686)">
<rect x="-36" y="166" width="53" height="33" rx="16.5" fill="white" fill-opacity="0.05" shape-rendering="crispEdges"/>
<rect x="-35.5" y="166.5" width="52" height="32" rx="16" stroke="white" stroke-opacity="0.08" shape-rendering="crispEdges"/>
<path d="M-13.3555 179.5H-19.6426V178.469H-13.3555V179.5ZM-16.4961 179.904C-15.9883 179.908 -15.5391 179.99 -15.1484 180.15C-14.7578 180.311 -14.4551 180.537 -14.2402 180.83C-14.0215 181.123 -13.9102 181.461 -13.9062 181.844C-13.9102 182.227 -14.0215 182.564 -14.2402 182.857C-14.4551 183.15 -14.7598 183.379 -15.1543 183.543C-15.5449 183.703 -15.9922 183.783 -16.4961 183.783C-17 183.783 -17.4492 183.703 -17.8438 183.543C-18.2383 183.379 -18.5449 183.15 -18.7637 182.857C-18.9824 182.564 -19.0918 182.227 -19.0918 181.844C-19.0918 181.461 -18.9824 181.123 -18.7637 180.83C-18.5449 180.537 -18.2402 180.311 -17.8496 180.15C-17.4551 179.99 -17.0039 179.908 -16.4961 179.904ZM-16.4961 180.889C-16.7617 180.893 -16.9961 180.934 -17.1992 181.012C-17.4023 181.086 -17.5586 181.195 -17.668 181.34C-17.7773 181.48 -17.832 181.648 -17.832 181.844C-17.832 182.039 -17.7773 182.207 -17.668 182.348C-17.5586 182.484 -17.4043 182.59 -17.2051 182.664C-17.002 182.738 -16.7656 182.775 -16.4961 182.775C-16.2266 182.775 -15.9902 182.738 -15.7871 182.664C-15.584 182.59 -15.4258 182.484 -15.3125 182.348C-15.1992 182.207 -15.1426 182.039 -15.1426 181.844C-15.1426 181.648 -15.1992 181.48 -15.3125 181.34C-15.4258 181.195 -15.584 181.086 -15.7871 181.012C-15.9902 180.934 -16.2266 180.893 -16.4961 180.889ZM-11.293 184.088H-12.5938V177.449H-11.293V184.088ZM-9.81055 181.334H-11.6621V180.262H-9.81055V181.334ZM-11.293 188.031H-12.5938V185.617H-18.3535V184.574H-11.293V188.031ZM-15.8398 179.043H-17.1465V177.402H-15.8398V179.043ZM-1.31445 179.025H-8.08203V177.971H-1.31445V179.025ZM0.408203 183.039H-9.27148V182.008H0.408203V183.039ZM-3.73438 185.4H-5.0293V182.623H-3.73438V185.4ZM-0.78125 178.855C-0.78125 179.543 -0.800781 180.154 -0.839844 180.689C-0.875 181.221 -0.966797 181.83 -1.11523 182.518L-2.42188 182.377C-2.31641 181.932 -2.24023 181.512 -2.19336 181.117C-2.14258 180.719 -2.11133 180.365 -2.09961 180.057C-2.08789 179.748 -2.08203 179.379 -2.08203 178.949V178.855V177.971H-0.78125V178.855ZM-0.599609 187.844H-8.11719V186.777H-0.599609V187.844ZM-6.81055 187.041H-8.11719V184.445H-6.81055V187.041Z" fill="#FF8833"/>
</g>
<g filter="url(#filter1_d_1976_11686)">
<rect x="25" y="166" width="100" height="33" rx="16.5" fill="white" fill-opacity="0.05" shape-rendering="crispEdges"/>
<rect x="25.5" y="166.5" width="99" height="32" rx="16" stroke="white" stroke-opacity="0.08" shape-rendering="crispEdges"/>
<path d="M44.4277 179.412C44.4277 179.998 44.3359 180.564 44.1523 181.111C43.9688 181.654 43.6914 182.143 43.3203 182.576C42.9492 183.006 42.498 183.334 41.9668 183.561L41.2578 182.553C41.7227 182.35 42.1172 182.078 42.4414 181.738C42.7656 181.398 43.0059 181.029 43.1621 180.631C43.3184 180.229 43.3984 179.822 43.4023 179.412V178.105H44.4277V179.412ZM44.6621 179.412C44.6621 179.807 44.7383 180.188 44.8906 180.555C45.0469 180.918 45.2773 181.248 45.582 181.545C45.8906 181.838 46.2695 182.07 46.7188 182.242L46.0273 183.232C45.5 183.033 45.0566 182.74 44.6973 182.354C44.3418 181.967 44.0742 181.521 43.8945 181.018C43.7188 180.514 43.6328 179.979 43.6367 179.412V178.105H44.6621V179.412ZM50.4102 183.959H49.168V177.461H50.4102V183.959ZM49.5312 181.193H47.7207V180.133H49.5312V181.193ZM48.1133 183.625H46.9004V177.654H48.1133V183.625ZM46.8359 184.129C47.5664 184.129 48.2051 184.207 48.752 184.363C49.2988 184.516 49.7207 184.738 50.0176 185.031C50.3145 185.324 50.4629 185.674 50.4629 186.08C50.4629 186.482 50.3145 186.828 50.0176 187.117C49.7207 187.41 49.2988 187.635 48.752 187.791C48.2051 187.947 47.5664 188.025 46.8359 188.025C46.0938 188.025 45.4492 187.947 44.9023 187.791C44.3555 187.635 43.9355 187.41 43.6426 187.117C43.3496 186.828 43.2051 186.482 43.209 186.08C43.2051 185.674 43.3496 185.324 43.6426 185.031C43.9355 184.738 44.3555 184.516 44.9023 184.363C45.4492 184.207 46.0938 184.129 46.8359 184.129ZM46.8359 185.107C46.3438 185.107 45.9238 185.145 45.5762 185.219C45.2285 185.293 44.9629 185.404 44.7793 185.553C44.5996 185.697 44.5098 185.873 44.5098 186.08C44.5098 186.287 44.5996 186.463 44.7793 186.607C44.9629 186.748 45.2285 186.855 45.5762 186.93C45.9238 187.004 46.3438 187.041 46.8359 187.041C47.3203 187.041 47.7363 187.004 48.084 186.93C48.4316 186.855 48.6973 186.748 48.8809 186.607C49.0645 186.463 49.1582 186.287 49.1621 186.08C49.1582 185.873 49.0645 185.697 48.8809 185.553C48.6973 185.404 48.4297 185.293 48.0781 185.219C47.7305 185.145 47.3164 185.107 46.8359 185.107ZM60.1191 183.689H58.8125V177.449H60.1191V183.689ZM61.5488 181.117H59.6387V180.021H61.5488V181.117ZM60.1191 186.391H54.3594V187.352H53.0586V185.576H58.8184V184.979H53.041V184.1H60.1191V186.391ZM60.4883 187.949H53.0586V187.064H60.4883V187.949ZM55.5957 183.162H54.2949V181.715H55.5957V183.162ZM51.6289 182.617C52.9609 182.617 54.1602 182.6 55.2266 182.564C56.293 182.525 57.3066 182.441 58.2676 182.312L58.3672 183.139C57.3672 183.307 56.3379 183.414 55.2793 183.461C54.2207 183.508 53.0508 183.531 51.7695 183.531L51.6289 182.617ZM57.9805 179.055H51.8984V178.164H57.9805V179.055ZM54.9336 179.312C55.4492 179.312 55.9004 179.367 56.2871 179.477C56.6738 179.582 56.9707 179.738 57.1777 179.945C57.3887 180.148 57.4941 180.393 57.4941 180.678C57.4941 180.975 57.3887 181.229 57.1777 181.439C56.9707 181.65 56.6738 181.812 56.2871 181.926C55.9043 182.039 55.4531 182.098 54.9336 182.102C54.4141 182.098 53.9629 182.039 53.5801 181.926C53.1973 181.812 52.9004 181.65 52.6895 181.439C52.4824 181.229 52.3789 180.975 52.3789 180.678C52.3789 180.393 52.4824 180.148 52.6895 179.945C52.9004 179.738 53.1973 179.582 53.5801 179.477C53.9668 179.367 54.418 179.312 54.9336 179.312ZM54.9336 180.133C54.6523 180.133 54.4141 180.154 54.2188 180.197C54.0273 180.236 53.8809 180.297 53.7793 180.379C53.6777 180.461 53.627 180.561 53.627 180.678C53.627 180.803 53.6777 180.908 53.7793 180.994C53.8809 181.076 54.0293 181.143 54.2246 181.193C54.4238 181.24 54.6602 181.264 54.9336 181.264C55.207 181.264 55.4414 181.24 55.6367 181.193C55.8359 181.143 55.9863 181.076 56.0879 180.994C56.1934 180.908 56.2461 180.803 56.2461 180.678C56.2461 180.561 56.1953 180.461 56.0938 180.379C55.9922 180.297 55.8438 180.236 55.6484 180.197C55.4531 180.154 55.2148 180.133 54.9336 180.133ZM55.5957 178.662H54.2949V177.361H55.5957V178.662ZM73.8242 185.277H72.5234V177.449H73.8242V185.277ZM70.8711 179.289H65.2402V178.246H70.8711V179.289ZM65.0176 182.811C66.2129 182.807 67.3066 182.789 68.2988 182.758C69.2949 182.727 70.2266 182.662 71.0938 182.564L71.1465 183.525C70.252 183.666 69.2969 183.762 68.2812 183.812C67.2656 183.859 66.207 183.885 65.1055 183.889L64.959 182.811H65.0176ZM67.4258 182.975H66.166V179.16H67.4258V182.975ZM69.9277 182.975H68.6797V179.16H69.9277V182.975ZM73.2148 180.42H71.0293V179.371H73.2148V180.42ZM73.2148 182.512H71.0293V181.439H73.2148V182.512ZM74.0879 187.844H66.8574V186.777H74.0879V187.844ZM68.1699 187.545H66.8574V184.668H68.1699V187.545ZM78.7637 178.176C79.3145 178.176 79.8105 178.285 80.252 178.504C80.6973 178.723 81.0449 179.027 81.2949 179.418C81.5449 179.809 81.6699 180.25 81.6699 180.742C81.6699 181.238 81.5449 181.682 81.2949 182.072C81.0449 182.459 80.6973 182.762 80.252 182.98C79.8105 183.199 79.3145 183.309 78.7637 183.309C78.2129 183.309 77.7148 183.199 77.2695 182.98C76.8281 182.762 76.4805 182.459 76.2266 182.072C75.9766 181.682 75.8516 181.238 75.8516 180.742C75.8516 180.25 75.9766 179.809 76.2266 179.418C76.4805 179.027 76.8281 178.723 77.2695 178.504C77.7148 178.285 78.2129 178.176 78.7637 178.176ZM78.7637 179.307C78.4551 179.311 78.1777 179.371 77.9316 179.488C77.6855 179.602 77.4922 179.768 77.3516 179.986C77.2109 180.205 77.1406 180.457 77.1406 180.742C77.1406 181.031 77.2109 181.283 77.3516 181.498C77.4922 181.713 77.6855 181.879 77.9316 181.996C78.1777 182.113 78.4551 182.174 78.7637 182.178C79.0762 182.174 79.3555 182.113 79.6016 181.996C79.8516 181.879 80.0449 181.713 80.1816 181.498C80.3223 181.283 80.3926 181.031 80.3926 180.742C80.3926 180.457 80.3223 180.205 80.1816 179.986C80.0449 179.768 79.8516 179.602 79.6016 179.488C79.3555 179.371 79.0762 179.311 78.7637 179.307ZM84.1426 188.061H82.8535V177.449H84.1426V188.061ZM75.3711 184.773C76.6562 184.773 77.8652 184.752 78.998 184.709C80.1309 184.662 81.2031 184.566 82.2148 184.422L82.3145 185.371C81.584 185.508 80.8242 185.611 80.0352 185.682C79.2461 185.748 78.5039 185.791 77.8086 185.811C77.1172 185.83 76.3594 185.84 75.5352 185.84L75.3711 184.773ZM92.3164 179.992C92.3164 180.875 92.1953 181.707 91.9531 182.488C91.7148 183.27 91.3633 183.959 90.8984 184.557C90.4375 185.154 89.8848 185.605 89.2402 185.91L88.4434 184.82C89.0176 184.574 89.5156 184.203 89.9375 183.707C90.3594 183.207 90.6816 182.637 90.9043 181.996C91.127 181.352 91.2402 180.684 91.2441 179.992V178.299H92.3164V179.992ZM92.5566 179.992C92.5566 180.648 92.666 181.283 92.8848 181.896C93.1035 182.51 93.4199 183.059 93.834 183.543C94.248 184.023 94.7363 184.383 95.2988 184.621L94.5254 185.664C93.8926 185.371 93.3477 184.939 92.8906 184.369C92.4336 183.795 92.084 183.133 91.8418 182.383C91.5996 181.633 91.4785 180.836 91.4785 179.992V178.299H92.5566V179.992ZM97.3672 188.061H96.0488V177.449H97.3672V188.061ZM107.064 180.197H104.387V179.154H107.064V180.197ZM107.797 182.869H106.496V177.449H107.797V182.869ZM107.797 186.068H102.125V187.504H100.842V185.107H106.502V184.352H100.818V183.332H107.797V186.068ZM108.131 187.908H100.842V186.883H108.131V187.908ZM102.512 178.645C102.512 179.312 102.398 179.932 102.172 180.502C101.945 181.068 101.609 181.562 101.164 181.984C100.723 182.406 100.186 182.723 99.5527 182.934L98.8672 181.891C99.4219 181.723 99.8926 181.475 100.279 181.146C100.67 180.818 100.963 180.441 101.158 180.016C101.357 179.586 101.459 179.129 101.463 178.645V177.801H102.512V178.645ZM102.77 178.645C102.77 179.09 102.863 179.512 103.051 179.91C103.242 180.309 103.525 180.664 103.9 180.977C104.275 181.289 104.729 181.527 105.26 181.691L104.574 182.699C103.965 182.496 103.445 182.195 103.016 181.797C102.586 181.398 102.258 180.93 102.031 180.391C101.809 179.852 101.699 179.27 101.703 178.645V177.801H102.77V178.645Z" fill="#FF8833"/>
</g>
<g filter="url(#filter2_d_1976_11686)">
<rect x="133" y="166" width="74" height="33" rx="16.5" fill="white" fill-opacity="0.05" shape-rendering="crispEdges"/>
<rect x="133.5" y="166.5" width="73" height="32" rx="16" stroke="white" stroke-opacity="0.08" shape-rendering="crispEdges"/>
<path d="M158.199 188.031H156.881V177.449H158.199V188.031ZM155.041 178.574C155.037 179.68 154.877 180.693 154.561 181.615C154.244 182.533 153.721 183.379 152.99 184.152C152.264 184.926 151.303 185.596 150.107 186.162L149.416 185.119C150.436 184.635 151.264 184.084 151.9 183.467C152.537 182.846 153.004 182.152 153.301 181.387C153.598 180.621 153.746 179.758 153.746 178.797V178.574H155.041ZM154.332 179.605H149.955V178.574H154.332V179.605ZM168.57 188.031H167.252V177.449H168.57V188.031ZM165.992 179.547H159.986V178.486H165.992V179.547ZM159.705 184.469C160.936 184.465 162.119 184.441 163.256 184.398C164.396 184.355 165.465 184.275 166.461 184.158L166.537 185.125C165.525 185.289 164.479 185.398 163.396 185.453C162.314 185.504 161.127 185.533 159.834 185.541L159.705 184.469ZM162.271 184.75H161.006V179.295H162.271V184.75ZM164.973 184.75H163.695V179.295H164.973V184.75ZM173.855 179.992C173.855 180.875 173.734 181.707 173.492 182.488C173.254 183.27 172.902 183.959 172.438 184.557C171.977 185.154 171.424 185.605 170.779 185.91L169.982 184.82C170.557 184.574 171.055 184.203 171.477 183.707C171.898 183.207 172.221 182.637 172.443 181.996C172.666 181.352 172.779 180.684 172.783 179.992V178.299H173.855V179.992ZM174.096 179.992C174.096 180.648 174.205 181.283 174.424 181.896C174.643 182.51 174.959 183.059 175.373 183.543C175.787 184.023 176.275 184.383 176.838 184.621L176.064 185.664C175.432 185.371 174.887 184.939 174.43 184.369C173.973 183.795 173.623 183.133 173.381 182.383C173.139 181.633 173.018 180.836 173.018 179.992V178.299H174.096V179.992ZM178.906 188.061H177.588V177.449H178.906V188.061ZM188.604 180.197H185.926V179.154H188.604V180.197ZM189.336 182.869H188.035V177.449H189.336V182.869ZM189.336 186.068H183.664V187.504H182.381V185.107H188.041V184.352H182.357V183.332H189.336V186.068ZM189.67 187.908H182.381V186.883H189.67V187.908ZM184.051 178.645C184.051 179.312 183.938 179.932 183.711 180.502C183.484 181.068 183.148 181.562 182.703 181.984C182.262 182.406 181.725 182.723 181.092 182.934L180.406 181.891C180.961 181.723 181.432 181.475 181.818 181.146C182.209 180.818 182.502 180.441 182.697 180.016C182.896 179.586 182.998 179.129 183.002 178.645V177.801H184.051V178.645ZM184.309 178.645C184.309 179.09 184.402 179.512 184.59 179.91C184.781 180.309 185.064 180.664 185.439 180.977C185.814 181.289 186.268 181.527 186.799 181.691L186.113 182.699C185.504 182.496 184.984 182.195 184.555 181.797C184.125 181.398 183.797 180.93 183.57 180.391C183.348 179.852 183.238 179.27 183.242 178.645V177.801H184.309V178.645Z" fill="#FF8833"/>
</g>
<g filter="url(#filter3_d_1976_11686)">
<rect x="215" y="166" width="74" height="33" rx="16.5" fill="white" fill-opacity="0.05" shape-rendering="crispEdges"/>
<rect x="215.5" y="166.5" width="73" height="32" rx="16" stroke="white" stroke-opacity="0.08" shape-rendering="crispEdges"/>
<path d="M234.885 180.449C234.885 181.234 234.762 181.998 234.516 182.74C234.273 183.482 233.926 184.145 233.473 184.727C233.02 185.309 232.494 185.742 231.896 186.027L231.129 185.002C231.672 184.744 232.15 184.371 232.564 183.883C232.979 183.391 233.295 182.846 233.514 182.248C233.736 181.65 233.85 181.051 233.854 180.449V179.055H234.885V180.449ZM235.154 180.449C235.15 181.012 235.254 181.574 235.465 182.137C235.676 182.695 235.98 183.205 236.379 183.666C236.781 184.127 237.254 184.484 237.797 184.738L237.064 185.764C236.467 185.482 235.945 185.066 235.5 184.516C235.055 183.961 234.713 183.33 234.475 182.623C234.236 181.916 234.117 181.191 234.117 180.449V179.055H235.154V180.449ZM237.369 179.564H231.539V178.498H237.369V179.564ZM239.648 188.031H238.348V177.449H239.648V188.031ZM241.283 182.67H239.355V181.574H241.283V182.67ZM249.756 180.051H246.592V179.002H249.756V180.051ZM249.756 182.605H246.592V181.551H249.756V182.605ZM250.594 185.23H249.293V177.461H250.594V185.23ZM250.863 187.844H243.645V186.777H250.863V187.844ZM244.951 187.293H243.645V184.434H244.951V187.293ZM244.664 178.094C245.176 178.094 245.643 178.211 246.064 178.445C246.49 178.676 246.824 178.998 247.066 179.412C247.312 179.826 247.438 180.293 247.441 180.812C247.438 181.324 247.312 181.785 247.066 182.195C246.82 182.605 246.486 182.928 246.064 183.162C245.643 183.396 245.176 183.514 244.664 183.514C244.137 183.514 243.66 183.396 243.234 183.162C242.809 182.928 242.475 182.605 242.232 182.195C241.99 181.785 241.869 181.324 241.869 180.812C241.869 180.293 241.99 179.826 242.232 179.412C242.475 178.998 242.809 178.676 243.234 178.445C243.66 178.211 244.137 178.094 244.664 178.094ZM244.664 179.254C244.359 179.254 244.09 179.318 243.855 179.447C243.621 179.572 243.438 179.754 243.305 179.992C243.172 180.23 243.105 180.504 243.105 180.812C243.105 181.121 243.172 181.393 243.305 181.627C243.438 181.857 243.621 182.037 243.855 182.166C244.09 182.295 244.359 182.359 244.664 182.359C244.953 182.359 245.213 182.295 245.443 182.166C245.678 182.037 245.861 181.857 245.994 181.627C246.127 181.393 246.193 181.121 246.193 180.812C246.193 180.504 246.127 180.232 245.994 179.998C245.861 179.76 245.678 179.576 245.443 179.447C245.213 179.318 244.953 179.254 244.664 179.254ZM260.49 185.723H259.184V177.449H260.49V185.723ZM261.92 182.084H260.01V181.006H261.92V182.084ZM260.859 187.844H253.518V186.777H260.859V187.844ZM254.83 187.1H253.518V185.172H254.83V187.1ZM255.967 184.076H254.666V182.564H255.967V184.076ZM252 183.607C253.25 183.604 254.426 183.578 255.527 183.531C256.633 183.484 257.67 183.387 258.639 183.238L258.738 184.146C257.805 184.322 256.836 184.441 255.832 184.504C254.832 184.566 253.699 184.607 252.434 184.627C252.375 184.627 252.326 184.627 252.287 184.627C252.248 184.627 252.199 184.627 252.141 184.627L252 183.607ZM258.352 179.318H252.27V178.375H258.352V179.318ZM255.305 179.664C255.816 179.668 256.266 179.734 256.652 179.863C257.039 179.992 257.338 180.182 257.549 180.432C257.76 180.678 257.865 180.973 257.865 181.316C257.865 181.645 257.76 181.93 257.549 182.172C257.338 182.414 257.039 182.602 256.652 182.734C256.266 182.867 255.816 182.934 255.305 182.934C254.793 182.934 254.346 182.867 253.963 182.734C253.58 182.602 253.281 182.414 253.066 182.172C252.855 181.93 252.75 181.645 252.75 181.316C252.75 180.977 252.855 180.682 253.066 180.432C253.281 180.182 253.58 179.992 253.963 179.863C254.346 179.734 254.793 179.668 255.305 179.664ZM255.305 180.555C255.031 180.555 254.795 180.584 254.596 180.643C254.4 180.697 254.252 180.783 254.15 180.9C254.049 181.014 253.998 181.152 253.998 181.316C253.998 181.465 254.049 181.594 254.15 181.703C254.252 181.812 254.4 181.898 254.596 181.961C254.795 182.02 255.031 182.049 255.305 182.049C255.578 182.049 255.812 182.02 256.008 181.961C256.207 181.898 256.357 181.812 256.459 181.703C256.564 181.594 256.617 181.465 256.617 181.316C256.617 181.152 256.566 181.014 256.465 180.9C256.363 180.783 256.213 180.697 256.014 180.643C255.814 180.584 255.578 180.555 255.305 180.555ZM255.967 178.803H254.666V177.42H255.967V178.803ZM270.252 180.285H267.592V179.254H270.252V180.285ZM270.17 182.482H267.516V181.428H270.17V182.482ZM271.336 183.648H270.035V177.461H271.336V183.648ZM267.996 178.199C267.992 179.133 267.803 179.967 267.428 180.701C267.053 181.432 266.502 182.055 265.775 182.57C265.049 183.086 264.154 183.492 263.092 183.789L262.576 182.764C263.467 182.518 264.211 182.199 264.809 181.809C265.41 181.418 265.859 180.973 266.156 180.473C266.453 179.969 266.602 179.416 266.602 178.814V178.199H267.996ZM267.504 179.26H263.127V178.199H267.504V179.26ZM267.826 183.766C268.541 183.766 269.168 183.852 269.707 184.023C270.25 184.195 270.668 184.439 270.961 184.756C271.258 185.072 271.406 185.443 271.406 185.869C271.406 186.299 271.258 186.674 270.961 186.994C270.668 187.311 270.25 187.555 269.707 187.727C269.168 187.898 268.541 187.984 267.826 187.984C267.111 187.984 266.482 187.898 265.939 187.727C265.396 187.555 264.977 187.311 264.68 186.994C264.387 186.674 264.24 186.299 264.24 185.869C264.24 185.443 264.387 185.072 264.68 184.756C264.977 184.439 265.395 184.195 265.934 184.023C266.477 183.852 267.107 183.766 267.826 183.766ZM267.826 184.791C267.354 184.791 266.945 184.832 266.602 184.914C266.258 184.996 265.994 185.119 265.811 185.283C265.627 185.447 265.535 185.643 265.535 185.869C265.535 186.1 265.627 186.295 265.811 186.455C265.994 186.615 266.258 186.738 266.602 186.824C266.945 186.906 267.354 186.947 267.826 186.947C268.295 186.947 268.699 186.906 269.039 186.824C269.383 186.738 269.646 186.615 269.83 186.455C270.014 186.295 270.105 186.1 270.105 185.869C270.105 185.643 270.014 185.447 269.83 185.283C269.646 185.119 269.383 184.996 269.039 184.914C268.699 184.832 268.295 184.791 267.826 184.791Z" fill="#FF8833"/>
</g>
<g filter="url(#filter4_d_1976_11686)">
<rect x="297" y="166" width="74" height="33" rx="16.5" fill="white" fill-opacity="0.05" shape-rendering="crispEdges"/>
<rect x="297.5" y="166.5" width="73" height="32" rx="16" stroke="white" stroke-opacity="0.08" shape-rendering="crispEdges"/>
<path d="M318.566 178.949C318.566 179.57 318.389 180.139 318.033 180.654C317.682 181.166 317.186 181.596 316.545 181.943C315.904 182.291 315.172 182.525 314.348 182.646L313.855 181.627C314.559 181.533 315.182 181.352 315.725 181.082C316.268 180.812 316.688 180.492 316.984 180.121C317.281 179.746 317.43 179.355 317.43 178.949V178.586H318.566V178.949ZM318.93 178.949C318.93 179.355 319.076 179.746 319.369 180.121C319.666 180.492 320.086 180.812 320.629 181.082C321.172 181.352 321.797 181.533 322.504 181.627L322.035 182.646C321.203 182.525 320.465 182.291 319.82 181.943C319.18 181.596 318.682 181.166 318.326 180.654C317.971 180.139 317.793 179.57 317.793 178.949V178.586H318.93V178.949ZM318.795 188.037H317.512V184.088H318.795V188.037ZM323.002 184.404H313.357V183.355H323.002V184.404ZM322.117 179.072H314.23V178.047H322.117V179.072ZM331.756 180.35H328.908V179.283H331.756V180.35ZM331.797 182.605H328.908V181.557H331.797V182.605ZM332.594 185.277H331.293V177.461H332.594V185.277ZM332.822 187.844H325.609V186.777H332.822V187.844ZM326.934 187.357H325.609V184.504H326.934V187.357ZM325.51 179.863H327.877V178.158H329.16V183.561H324.203V178.158H325.51V179.863ZM327.877 182.523V180.865H325.51V182.523H327.877ZM342.49 185.723H341.184V177.449H342.49V185.723ZM343.92 182.084H342.01V181.006H343.92V182.084ZM342.859 187.844H335.518V186.777H342.859V187.844ZM336.83 187.1H335.518V185.172H336.83V187.1ZM337.967 184.076H336.666V182.564H337.967V184.076ZM334 183.607C335.25 183.604 336.426 183.578 337.527 183.531C338.633 183.484 339.67 183.387 340.639 183.238L340.738 184.146C339.805 184.322 338.836 184.441 337.832 184.504C336.832 184.566 335.699 184.607 334.434 184.627C334.375 184.627 334.326 184.627 334.287 184.627C334.248 184.627 334.199 184.627 334.141 184.627L334 183.607ZM340.352 179.318H334.27V178.375H340.352V179.318ZM337.305 179.664C337.816 179.668 338.266 179.734 338.652 179.863C339.039 179.992 339.338 180.182 339.549 180.432C339.76 180.678 339.865 180.973 339.865 181.316C339.865 181.645 339.76 181.93 339.549 182.172C339.338 182.414 339.039 182.602 338.652 182.734C338.266 182.867 337.816 182.934 337.305 182.934C336.793 182.934 336.346 182.867 335.963 182.734C335.58 182.602 335.281 182.414 335.066 182.172C334.855 181.93 334.75 181.645 334.75 181.316C334.75 180.977 334.855 180.682 335.066 180.432C335.281 180.182 335.58 179.992 335.963 179.863C336.346 179.734 336.793 179.668 337.305 179.664ZM337.305 180.555C337.031 180.555 336.795 180.584 336.596 180.643C336.4 180.697 336.252 180.783 336.15 180.9C336.049 181.014 335.998 181.152 335.998 181.316C335.998 181.465 336.049 181.594 336.15 181.703C336.252 181.812 336.4 181.898 336.596 181.961C336.795 182.02 337.031 182.049 337.305 182.049C337.578 182.049 337.812 182.02 338.008 181.961C338.207 181.898 338.357 181.812 338.459 181.703C338.564 181.594 338.617 181.465 338.617 181.316C338.617 181.152 338.566 181.014 338.465 180.9C338.363 180.783 338.213 180.697 338.014 180.643C337.814 180.584 337.578 180.555 337.305 180.555ZM337.967 178.803H336.666V177.42H337.967V178.803ZM352.252 180.285H349.592V179.254H352.252V180.285ZM352.17 182.482H349.516V181.428H352.17V182.482ZM353.336 183.648H352.035V177.461H353.336V183.648ZM349.996 178.199C349.992 179.133 349.803 179.967 349.428 180.701C349.053 181.432 348.502 182.055 347.775 182.57C347.049 183.086 346.154 183.492 345.092 183.789L344.576 182.764C345.467 182.518 346.211 182.199 346.809 181.809C347.41 181.418 347.859 180.973 348.156 180.473C348.453 179.969 348.602 179.416 348.602 178.814V178.199H349.996ZM349.504 179.26H345.127V178.199H349.504V179.26ZM349.826 183.766C350.541 183.766 351.168 183.852 351.707 184.023C352.25 184.195 352.668 184.439 352.961 184.756C353.258 185.072 353.406 185.443 353.406 185.869C353.406 186.299 353.258 186.674 352.961 186.994C352.668 187.311 352.25 187.555 351.707 187.727C351.168 187.898 350.541 187.984 349.826 187.984C349.111 187.984 348.482 187.898 347.939 187.727C347.396 187.555 346.977 187.311 346.68 186.994C346.387 186.674 346.24 186.299 346.24 185.869C346.24 185.443 346.387 185.072 346.68 184.756C346.977 184.439 347.395 184.195 347.934 184.023C348.477 183.852 349.107 183.766 349.826 183.766ZM349.826 184.791C349.354 184.791 348.945 184.832 348.602 184.914C348.258 184.996 347.994 185.119 347.811 185.283C347.627 185.447 347.535 185.643 347.535 185.869C347.535 186.1 347.627 186.295 347.811 186.455C347.994 186.615 348.258 186.738 348.602 186.824C348.945 186.906 349.354 186.947 349.826 186.947C350.295 186.947 350.699 186.906 351.039 186.824C351.383 186.738 351.646 186.615 351.83 186.455C352.014 186.295 352.105 186.1 352.105 185.869C352.105 185.643 352.014 185.447 351.83 185.283C351.646 185.119 351.383 184.996 351.039 184.914C350.699 184.832 350.295 184.791 349.826 184.791Z" fill="#FF8833"/>
</g>
<g filter="url(#filter5_d_1976_11686)">
<rect x="8.5" y="207" width="74" height="33" rx="16.5" fill="white" fill-opacity="0.05" shape-rendering="crispEdges"/>
<rect x="9" y="207.5" width="73" height="32" rx="16" stroke="white" stroke-opacity="0.08" shape-rendering="crispEdges"/>
<path d="M33.9102 226.33H32.668V218.461H33.9102V226.33ZM33.0254 222.586H31.1973V221.525H33.0254V222.586ZM31.5605 226.078H30.3535V218.654H31.5605V226.078ZM34.1973 228.844H26.8145V227.777H34.1973V228.844ZM28.1152 228.182H26.8145V225.586H28.1152V228.182ZM26.0176 223.799C26.8535 223.795 27.5488 223.775 28.1035 223.74C28.6621 223.701 29.2285 223.627 29.8027 223.518L29.9316 224.549C29.3262 224.658 28.7344 224.732 28.1562 224.771C27.582 224.807 26.8691 224.824 26.0176 224.824H25.3027V223.799H26.0176ZM29.3164 222.539H26.5625V224.361H25.3027V221.555H28.0625V220.359H25.2793V219.328H29.3164V222.539ZM43.8242 224.467H36.3945V223.418H43.8242V224.467ZM44.9082 227.701H35.2285V226.623H44.9082V227.701ZM43.7363 220.43H37.6895V223.863H36.3945V219.369H43.7363V220.43ZM50.9844 226.418H45.9629V219.475H50.9844V226.418ZM47.2402 225.381H49.6895V220.5H47.2402V225.381ZM53.8906 229.031H52.5898V218.449H53.8906V229.031ZM55.5254 223.617H53.5977V222.521H55.5254V223.617ZM63.8164 220.488H57.0898V219.428H63.8164V220.488ZM65.6152 227.689H55.9707V226.623H65.6152V227.689ZM64.5488 220.746C64.5527 221.406 64.5469 221.971 64.5312 222.439C64.5156 222.908 64.4727 223.436 64.4023 224.021C64.3359 224.607 64.2285 225.246 64.0801 225.938L62.7793 225.82C62.9316 225.184 63.043 224.58 63.1133 224.01C63.1875 223.436 63.2324 222.92 63.248 222.463C63.2637 222.006 63.2734 221.436 63.2773 220.752V220.693V219.428H64.5488V220.693V220.746ZM56.9492 223.652L56.7852 222.604L63.5645 222.346V223.312L56.9492 223.652Z" fill="#FF8833"/>
</g>
<g filter="url(#filter6_d_1976_11686)">
<rect x="90.5" y="207" width="53" height="33" rx="16.5" fill="white" fill-opacity="0.05" shape-rendering="crispEdges"/>
<rect x="91" y="207.5" width="52" height="32" rx="16" stroke="white" stroke-opacity="0.08" shape-rendering="crispEdges"/>
<path d="M114.609 220.465H107.824V219.416H114.609V220.465ZM116.502 227.672H106.857V226.611H116.502V227.672ZM110.314 226.975H109.014V223.23H110.314V226.975ZM115.535 220.559C115.535 221.137 115.527 221.641 115.512 222.07C115.5 222.496 115.465 222.986 115.406 223.541C115.352 224.092 115.266 224.684 115.148 225.316L113.865 225.193C113.979 224.596 114.061 224.031 114.111 223.5C114.166 222.965 114.199 222.494 114.211 222.088C114.227 221.678 114.234 221.172 114.234 220.57V220.5V219.416H115.535V220.5V220.559ZM112.945 226.975H111.662V223.23H112.945V226.975ZM126.873 224.994H117.205V223.963H126.873V224.994ZM122.684 224.355H121.383V222.721H122.684V224.355ZM125.795 223.184H118.441V222.17H125.795V223.184ZM125.719 219.744H119.748V222.727H118.441V218.725H125.719V219.744ZM125.455 221.42H119.367V220.465H125.455V221.42ZM122.039 225.58C122.812 225.576 123.473 225.641 124.02 225.773C124.57 225.906 124.988 226.104 125.273 226.365C125.562 226.623 125.707 226.936 125.707 227.303C125.707 227.678 125.562 227.992 125.273 228.246C124.988 228.504 124.572 228.697 124.025 228.826C123.479 228.959 122.816 229.025 122.039 229.025C121.25 229.025 120.58 228.959 120.029 228.826C119.482 228.697 119.064 228.504 118.775 228.246C118.49 227.992 118.348 227.678 118.348 227.303C118.348 226.936 118.49 226.623 118.775 226.365C119.064 226.104 119.484 225.906 120.035 225.773C120.586 225.641 121.254 225.576 122.039 225.58ZM122.039 226.547C121.5 226.543 121.055 226.568 120.703 226.623C120.352 226.678 120.088 226.764 119.912 226.881C119.736 226.994 119.65 227.135 119.654 227.303C119.65 227.475 119.736 227.615 119.912 227.725C120.088 227.834 120.352 227.916 120.703 227.971C121.055 228.025 121.5 228.053 122.039 228.053C122.566 228.053 123.004 228.025 123.352 227.971C123.699 227.916 123.961 227.834 124.137 227.725C124.312 227.615 124.4 227.475 124.4 227.303C124.4 227.135 124.312 226.994 124.137 226.881C123.961 226.764 123.699 226.678 123.352 226.623C123.004 226.568 122.566 226.543 122.039 226.547Z" fill="#FF8833"/>
</g>
<g filter="url(#filter7_d_1976_11686)">
<rect x="151.5" y="207" width="114" height="33" rx="16.5" fill="white" fill-opacity="0.05" shape-rendering="crispEdges"/>
<rect x="152" y="207.5" width="113" height="32" rx="16" stroke="white" stroke-opacity="0.08" shape-rendering="crispEdges"/>
<path d="M177.525 224.795H167.846V223.746H177.525V224.795ZM173.436 226.729H172.146V224.396H173.436V226.729ZM176.283 222.762H169.07V218.936H176.283V222.762ZM170.342 221.742H174.994V219.949H170.342V221.742ZM176.453 228.844H169.012V227.777H176.453V228.844ZM170.318 228.135H169.012V225.768H170.318V228.135ZM182.113 226.453H180.807V224.725H182.113V226.453ZM186.602 229.031H185.289V218.449H186.602V229.031ZM188.09 223.904H186.168V222.826H188.09V223.904ZM178.1 226.102C179.467 226.102 180.674 226.084 181.721 226.049C182.768 226.014 183.77 225.928 184.727 225.791L184.814 226.752C184.111 226.881 183.381 226.975 182.623 227.033C181.869 227.092 181.158 227.131 180.49 227.15C179.822 227.17 179.086 227.18 178.281 227.18L178.1 226.102ZM184.604 220.699H178.293V219.668H184.604V220.699ZM181.475 221.186C181.967 221.186 182.408 221.268 182.799 221.432C183.189 221.596 183.494 221.828 183.713 222.129C183.932 222.43 184.041 222.775 184.041 223.166C184.041 223.557 183.932 223.9 183.713 224.197C183.494 224.494 183.189 224.725 182.799 224.889C182.408 225.053 181.967 225.135 181.475 225.135C180.971 225.135 180.523 225.053 180.133 224.889C179.742 224.725 179.438 224.494 179.219 224.197C179.004 223.9 178.898 223.557 178.902 223.166C178.898 222.775 179.004 222.43 179.219 222.129C179.438 221.828 179.742 221.596 180.133 221.432C180.523 221.268 180.971 221.186 181.475 221.186ZM181.475 222.182C181.205 222.182 180.969 222.221 180.766 222.299C180.566 222.377 180.41 222.492 180.297 222.645C180.188 222.793 180.133 222.967 180.133 223.166C180.133 223.369 180.188 223.543 180.297 223.688C180.41 223.832 180.566 223.943 180.766 224.021C180.965 224.1 181.201 224.137 181.475 224.133C181.736 224.137 181.967 224.1 182.166 224.021C182.365 223.943 182.52 223.832 182.629 223.688C182.742 223.543 182.799 223.369 182.799 223.166C182.799 222.967 182.742 222.793 182.629 222.645C182.52 222.492 182.365 222.377 182.166 222.299C181.967 222.221 181.736 222.182 181.475 222.182ZM182.113 220.406H180.807V218.496H182.113V220.406ZM197.096 223.518H191.998V219.105H197.096V223.518ZM193.275 222.498H195.812V220.137H193.275V222.498ZM200.26 224.479H198.965V218.449H200.26V224.479ZM197.219 225.961C197.215 226.469 197.041 226.938 196.697 227.367C196.357 227.797 195.873 228.154 195.244 228.439C194.615 228.729 193.891 228.918 193.07 229.008L192.625 228.018C193.309 227.955 193.914 227.816 194.441 227.602C194.973 227.387 195.379 227.135 195.66 226.846C195.945 226.553 196.088 226.258 196.088 225.961V225.791H197.219V225.961ZM197.441 225.961C197.441 226.25 197.58 226.541 197.857 226.834C198.139 227.123 198.541 227.375 199.064 227.59C199.588 227.805 200.189 227.947 200.869 228.018L200.436 229.008C199.615 228.918 198.893 228.725 198.268 228.428C197.643 228.135 197.16 227.773 196.82 227.344C196.48 226.914 196.312 226.453 196.316 225.961V225.791H197.441V225.961ZM200.477 226.084H193.059V225.111H200.477V226.084ZM197.412 225.574H196.105V224.186H197.412V225.574ZM212.512 221.754H209.459V220.693H212.512V221.754ZM212.512 225.047H209.459V223.998H212.512V225.047ZM207.578 219.223C208.102 219.223 208.568 219.375 208.979 219.68C209.393 219.984 209.713 220.42 209.939 220.986C210.17 221.553 210.285 222.211 210.285 222.961C210.285 223.719 210.17 224.381 209.939 224.947C209.713 225.51 209.393 225.945 208.979 226.254C208.568 226.559 208.102 226.711 207.578 226.711C207.047 226.711 206.576 226.559 206.166 226.254C205.756 225.945 205.436 225.51 205.205 224.947C204.975 224.381 204.859 223.719 204.859 222.961C204.859 222.211 204.975 221.553 205.205 220.986C205.436 220.42 205.756 219.984 206.166 219.68C206.576 219.375 207.047 219.223 207.578 219.223ZM207.578 220.395C207.285 220.395 207.029 220.498 206.811 220.705C206.592 220.908 206.42 221.203 206.295 221.59C206.17 221.977 206.107 222.434 206.107 222.961C206.107 223.496 206.17 223.957 206.295 224.344C206.42 224.73 206.592 225.025 206.811 225.229C207.029 225.432 207.285 225.531 207.578 225.527C207.867 225.531 208.123 225.432 208.346 225.229C208.572 225.025 208.746 224.73 208.867 224.344C208.988 223.957 209.049 223.496 209.049 222.961C209.049 222.434 208.988 221.977 208.867 221.59C208.746 221.199 208.572 220.902 208.346 220.699C208.123 220.496 207.867 220.395 207.578 220.395ZM213.561 229.061H212.271V218.449H213.561V229.061ZM223.352 229.025H222.051V218.449H223.352V229.025ZM224.922 223.67H223.018V222.592H224.922V223.67ZM220.557 219.557C220.553 220.635 220.391 221.639 220.07 222.568C219.75 223.494 219.232 224.346 218.518 225.123C217.803 225.9 216.877 226.57 215.74 227.133L215.008 226.125C215.961 225.645 216.754 225.094 217.387 224.473C218.02 223.848 218.492 223.148 218.805 222.375C219.117 221.598 219.273 220.734 219.273 219.785V219.557H220.557ZM219.936 220.629H215.559V219.557H219.936V220.629ZM232.047 220.992C232.047 221.875 231.926 222.707 231.684 223.488C231.445 224.27 231.094 224.959 230.629 225.557C230.168 226.154 229.615 226.605 228.971 226.91L228.174 225.82C228.748 225.574 229.246 225.203 229.668 224.707C230.09 224.207 230.412 223.637 230.635 222.996C230.857 222.352 230.971 221.684 230.975 220.992V219.299H232.047V220.992ZM232.287 220.992C232.287 221.648 232.396 222.283 232.615 222.896C232.834 223.51 233.15 224.059 233.564 224.543C233.979 225.023 234.467 225.383 235.029 225.621L234.256 226.664C233.623 226.371 233.078 225.939 232.621 225.369C232.164 224.795 231.814 224.133 231.572 223.383C231.33 222.633 231.209 221.836 231.209 220.992V219.299H232.287V220.992ZM237.098 229.061H235.779V218.449H237.098V229.061ZM246.795 221.197H244.117V220.154H246.795V221.197ZM247.527 223.869H246.227V218.449H247.527V223.869ZM247.527 227.068H241.855V228.504H240.572V226.107H246.232V225.352H240.549V224.332H247.527V227.068ZM247.861 228.908H240.572V227.883H247.861V228.908ZM242.242 219.645C242.242 220.312 242.129 220.932 241.902 221.502C241.676 222.068 241.34 222.562 240.895 222.984C240.453 223.406 239.916 223.723 239.283 223.934L238.598 222.891C239.152 222.723 239.623 222.475 240.01 222.146C240.4 221.818 240.693 221.441 240.889 221.016C241.088 220.586 241.189 220.129 241.193 219.645V218.801H242.242V219.645ZM242.5 219.645C242.5 220.09 242.594 220.512 242.781 220.91C242.973 221.309 243.256 221.664 243.631 221.977C244.006 222.289 244.459 222.527 244.99 222.691L244.305 223.699C243.695 223.496 243.176 223.195 242.746 222.797C242.316 222.398 241.988 221.93 241.762 221.391C241.539 220.852 241.43 220.27 241.434 219.645V218.801H242.5V219.645Z" fill="#FF8833"/>
</g>
<g filter="url(#filter8_d_1976_11686)">
<rect x="273.5" y="207" width="53" height="33" rx="16.5" fill="white" fill-opacity="0.05" shape-rendering="crispEdges"/>
<rect x="274" y="207.5" width="52" height="32" rx="16" stroke="white" stroke-opacity="0.08" shape-rendering="crispEdges"/>
<path d="M298.207 226.195H296.906V218.455H298.207V226.195ZM299.689 222.633H297.82V221.555H299.689V222.633ZM298.623 228.844H291.422V227.777H298.623V228.844ZM292.717 228.24H291.422V225.387H292.717V228.24ZM292.822 219.152C293.357 219.152 293.842 219.268 294.275 219.498C294.713 219.725 295.055 220.041 295.301 220.447C295.551 220.85 295.678 221.307 295.682 221.818C295.678 222.326 295.551 222.783 295.301 223.189C295.055 223.592 294.713 223.908 294.275 224.139C293.842 224.369 293.357 224.484 292.822 224.484C292.295 224.484 291.812 224.369 291.375 224.139C290.938 223.908 290.594 223.59 290.344 223.184C290.094 222.777 289.969 222.322 289.969 221.818C289.969 221.307 290.094 220.85 290.344 220.447C290.594 220.041 290.936 219.725 291.369 219.498C291.807 219.268 292.291 219.152 292.822 219.152ZM292.822 220.295C292.529 220.295 292.262 220.357 292.02 220.482C291.781 220.604 291.592 220.781 291.451 221.016C291.314 221.246 291.246 221.514 291.246 221.818C291.246 222.119 291.314 222.385 291.451 222.615C291.592 222.842 291.781 223.02 292.02 223.148C292.262 223.277 292.529 223.342 292.822 223.342C293.123 223.342 293.393 223.279 293.631 223.154C293.873 223.025 294.062 222.846 294.199 222.615C294.34 222.385 294.41 222.119 294.41 221.818C294.41 221.514 294.34 221.246 294.199 221.016C294.062 220.781 293.873 220.604 293.631 220.482C293.393 220.357 293.123 220.295 292.822 220.295ZM308.49 222.322H305.912V221.262H308.49V222.322ZM309.094 226.201H307.793V218.461H309.094V226.201ZM309.363 228.844H302.145V227.777H309.363V228.844ZM303.451 228.375H302.145V225.516H303.451V228.375ZM303.855 220.559C303.855 221.227 303.74 221.854 303.51 222.439C303.279 223.021 302.939 223.533 302.49 223.975C302.045 224.416 301.506 224.746 300.873 224.965L300.199 223.91C300.746 223.73 301.215 223.469 301.605 223.125C301.996 222.777 302.291 222.383 302.49 221.941C302.689 221.5 302.789 221.039 302.789 220.559V219.814H303.855V220.559ZM304.113 220.57C304.113 221.004 304.209 221.426 304.4 221.836C304.596 222.246 304.879 222.615 305.25 222.943C305.625 223.271 306.076 223.523 306.604 223.699L305.953 224.736C305.336 224.529 304.811 224.215 304.377 223.793C303.943 223.371 303.613 222.885 303.387 222.334C303.164 221.779 303.053 221.191 303.053 220.57V219.814H304.113V220.57ZM306.311 220.277H300.58V219.223H306.311V220.277Z" fill="#FF8833"/>
</g>
</g>
<defs>
<filter id="filter0_d_1976_11686" x="-46" y="156" width="73" height="53" filterUnits="userSpaceOnUse" color-interpolation-filters="sRGB">
<feFlood flood-opacity="0" result="BackgroundImageFix"/>
<feColorMatrix in="SourceAlpha" type="matrix" values="0 0 0 0 0 0 0 0 0 0 0 0 0 0 0 0 0 0 127 0" result="hardAlpha"/>
<feOffset/>
<feGaussianBlur stdDeviation="5"/>
<feComposite in2="hardAlpha" operator="out"/>
<feColorMatrix type="matrix" values="0 0 0 0 0 0 0 0 0 0 0 0 0 0 0 0 0 0 0.1 0"/>
<feBlend mode="normal" in2="BackgroundImageFix" result="effect1_dropShadow_1976_11686"/>
<feBlend mode="normal" in="SourceGraphic" in2="effect1_dropShadow_1976_11686" result="shape"/>
</filter>
<filter id="filter1_d_1976_11686" x="15" y="156" width="120" height="53" filterUnits="userSpaceOnUse" color-interpolation-filters="sRGB">
<feFlood flood-opacity="0" result="BackgroundImageFix"/>
<feColorMatrix in="SourceAlpha" type="matrix" values="0 0 0 0 0 0 0 0 0 0 0 0 0 0 0 0 0 0 127 0" result="hardAlpha"/>
<feOffset/>
<feGaussianBlur stdDeviation="5"/>
<feComposite in2="hardAlpha" operator="out"/>
<feColorMatrix type="matrix" values="0 0 0 0 0 0 0 0 0 0 0 0 0 0 0 0 0 0 0.1 0"/>
<feBlend mode="normal" in2="BackgroundImageFix" result="effect1_dropShadow_1976_11686"/>
<feBlend mode="normal" in="SourceGraphic" in2="effect1_dropShadow_1976_11686" result="shape"/>
</filter>
<filter id="filter2_d_1976_11686" x="123" y="156" width="94" height="53" filterUnits="userSpaceOnUse" color-interpolation-filters="sRGB">
<feFlood flood-opacity="0" result="BackgroundImageFix"/>
<feColorMatrix in="SourceAlpha" type="matrix" values="0 0 0 0 0 0 0 0 0 0 0 0 0 0 0 0 0 0 127 0" result="hardAlpha"/>
<feOffset/>
<feGaussianBlur stdDeviation="5"/>
<feComposite in2="hardAlpha" operator="out"/>
<feColorMatrix type="matrix" values="0 0 0 0 0 0 0 0 0 0 0 0 0 0 0 0 0 0 0.1 0"/>
<feBlend mode="normal" in2="BackgroundImageFix" result="effect1_dropShadow_1976_11686"/>
<feBlend mode="normal" in="SourceGraphic" in2="effect1_dropShadow_1976_11686" result="shape"/>
</filter>
<filter id="filter3_d_1976_11686" x="205" y="156" width="94" height="53" filterUnits="userSpaceOnUse" color-interpolation-filters="sRGB">
<feFlood flood-opacity="0" result="BackgroundImageFix"/>
<feColorMatrix in="SourceAlpha" type="matrix" values="0 0 0 0 0 0 0 0 0 0 0 0 0 0 0 0 0 0 127 0" result="hardAlpha"/>
<feOffset/>
<feGaussianBlur stdDeviation="5"/>
<feComposite in2="hardAlpha" operator="out"/>
<feColorMatrix type="matrix" values="0 0 0 0 0 0 0 0 0 0 0 0 0 0 0 0 0 0 0.1 0"/>
<feBlend mode="normal" in2="BackgroundImageFix" result="effect1_dropShadow_1976_11686"/>
<feBlend mode="normal" in="SourceGraphic" in2="effect1_dropShadow_1976_11686" result="shape"/>
</filter>
<filter id="filter4_d_1976_11686" x="287" y="156" width="94" height="53" filterUnits="userSpaceOnUse" color-interpolation-filters="sRGB">
<feFlood flood-opacity="0" result="BackgroundImageFix"/>
<feColorMatrix in="SourceAlpha" type="matrix" values="0 0 0 0 0 0 0 0 0 0 0 0 0 0 0 0 0 0 127 0" result="hardAlpha"/>
<feOffset/>
<feGaussianBlur stdDeviation="5"/>
<feComposite in2="hardAlpha" operator="out"/>
<feColorMatrix type="matrix" values="0 0 0 0 0 0 0 0 0 0 0 0 0 0 0 0 0 0 0.1 0"/>
<feBlend mode="normal" in2="BackgroundImageFix" result="effect1_dropShadow_1976_11686"/>
<feBlend mode="normal" in="SourceGraphic" in2="effect1_dropShadow_1976_11686" result="shape"/>
</filter>
<filter id="filter5_d_1976_11686" x="-1.5" y="197" width="94" height="53" filterUnits="userSpaceOnUse" color-interpolation-filters="sRGB">
<feFlood flood-opacity="0" result="BackgroundImageFix"/>
<feColorMatrix in="SourceAlpha" type="matrix" values="0 0 0 0 0 0 0 0 0 0 0 0 0 0 0 0 0 0 127 0" result="hardAlpha"/>
<feOffset/>
<feGaussianBlur stdDeviation="5"/>
<feComposite in2="hardAlpha" operator="out"/>
<feColorMatrix type="matrix" values="0 0 0 0 0 0 0 0 0 0 0 0 0 0 0 0 0 0 0.1 0"/>
<feBlend mode="normal" in2="BackgroundImageFix" result="effect1_dropShadow_1976_11686"/>
<feBlend mode="normal" in="SourceGraphic" in2="effect1_dropShadow_1976_11686" result="shape"/>
</filter>
<filter id="filter6_d_1976_11686" x="80.5" y="197" width="73" height="53" filterUnits="userSpaceOnUse" color-interpolation-filters="sRGB">
<feFlood flood-opacity="0" result="BackgroundImageFix"/>
<feColorMatrix in="SourceAlpha" type="matrix" values="0 0 0 0 0 0 0 0 0 0 0 0 0 0 0 0 0 0 127 0" result="hardAlpha"/>
<feOffset/>
<feGaussianBlur stdDeviation="5"/>
<feComposite in2="hardAlpha" operator="out"/>
<feColorMatrix type="matrix" values="0 0 0 0 0 0 0 0 0 0 0 0 0 0 0 0 0 0 0.1 0"/>
<feBlend mode="normal" in2="BackgroundImageFix" result="effect1_dropShadow_1976_11686"/>
<feBlend mode="normal" in="SourceGraphic" in2="effect1_dropShadow_1976_11686" result="shape"/>
</filter>
<filter id="filter7_d_1976_11686" x="141.5" y="197" width="134" height="53" filterUnits="userSpaceOnUse" color-interpolation-filters="sRGB">
<feFlood flood-opacity="0" result="BackgroundImageFix"/>
<feColorMatrix in="SourceAlpha" type="matrix" values="0 0 0 0 0 0 0 0 0 0 0 0 0 0 0 0 0 0 127 0" result="hardAlpha"/>
<feOffset/>
<feGaussianBlur stdDeviation="5"/>
<feComposite in2="hardAlpha" operator="out"/>
<feColorMatrix type="matrix" values="0 0 0 0 0 0 0 0 0 0 0 0 0 0 0 0 0 0 0.1 0"/>
<feBlend mode="normal" in2="BackgroundImageFix" result="effect1_dropShadow_1976_11686"/>
<feBlend mode="normal" in="SourceGraphic" in2="effect1_dropShadow_1976_11686" result="shape"/>
</filter>
<filter id="filter8_d_1976_11686" x="263.5" y="197" width="73" height="53" filterUnits="userSpaceOnUse" color-interpolation-filters="sRGB">
<feFlood flood-opacity="0" result="BackgroundImageFix"/>
<feColorMatrix in="SourceAlpha" type="matrix" values="0 0 0 0 0 0 0 0 0 0 0 0 0 0 0 0 0 0 127 0" result="hardAlpha"/>
<feOffset/>
<feGaussianBlur stdDeviation="5"/>
<feComposite in2="hardAlpha" operator="out"/>
<feColorMatrix type="matrix" values="0 0 0 0 0 0 0 0 0 0 0 0 0 0 0 0 0 0 0.1 0"/>
<feBlend mode="normal" in2="BackgroundImageFix" result="effect1_dropShadow_1976_11686"/>
<feBlend mode="normal" in="SourceGraphic" in2="effect1_dropShadow_1976_11686" result="shape"/>
</filter>
<linearGradient id="paint0_linear_1976_11686" x1="167.5" y1="0" x2="167.5" y2="280" gradientUnits="userSpaceOnUse">
<stop stop-color="#642E07"/>
<stop offset="1" stop-color="#222222"/>
</linearGradient>
<clipPath id="clip0_1976_11686">
<rect width="335" height="280" rx="12" fill="white"/>
</clipPath>
</defs>
</svg>
