<svg width="16" height="16" viewBox="0 0 16 16" fill="none" xmlns="http://www.w3.org/2000/svg">
<path fill-rule="evenodd" clip-rule="evenodd" d="M10.2223 1.32373L13.6662 1.90489C14.6287 2.06732 15.3334 2.90086 15.3334 3.87701V12.4226C15.3334 13.6602 14.2209 14.6007 13.0006 14.3948L10.2223 13.9259L5.77786 14.6759L2.33395 14.0948C1.37141 13.9323 0.666748 13.0988 0.666748 12.1226V3.57701C0.666748 2.33949 1.77928 1.39897 2.99954 1.60489L5.77786 2.07373L10.2223 1.32373ZM5.11119 3.31341L2.77768 2.91963C2.37092 2.85099 2.00008 3.1645 2.00008 3.57701V12.1226C2.00008 12.448 2.23497 12.7259 2.55582 12.78L5.11119 13.2112V3.31341ZM6.44453 13.2112L9.55564 12.6862V2.78841L6.44453 3.31341V13.2112ZM10.889 2.78841V12.6862L13.2225 13.08C13.6292 13.1487 14.0001 12.8351 14.0001 12.4226V3.87701C14.0001 3.55162 13.7652 3.27378 13.4443 3.21963L10.889 2.78841Z" fill="#5B5B5B"/>
</svg>
