<svg width="20" height="20" viewBox="0 0 20 20" fill="none" xmlns="http://www.w3.org/2000/svg">
<path fill-rule="evenodd" clip-rule="evenodd" d="M1.91107 1.91058C2.23651 1.58514 2.76414 1.58514 3.08958 1.91058L10.0004 8.82137L16.9111 1.91067C17.2365 1.58524 17.7641 1.58524 18.0896 1.91067C18.415 2.23611 18.415 2.76375 18.0896 3.08919L11.1789 9.99988L18.0896 16.9106C18.415 17.236 18.415 17.7637 18.0896 18.0891C17.7641 18.4145 17.2365 18.4145 16.9111 18.0891L10.0004 11.1784L3.08958 18.0892C2.76414 18.4146 2.23651 18.4146 1.91107 18.0892C1.58563 17.7637 1.58563 17.2361 1.91107 16.9107L8.82186 9.99988L1.91107 3.08909C1.58563 2.76366 1.58563 2.23602 1.91107 1.91058Z" fill="#1E1E1E"/>
</svg>
