<svg width="16" height="16" viewBox="0 0 16 16" fill="none" xmlns="http://www.w3.org/2000/svg">
<rect x="1.33301" y="6.88916" width="2.73504" height="6.83761" rx="0.683761" stroke="#5B5B5B" stroke-width="1.33333"/>
<path d="M4.06836 7.23079V7.23079C5.12687 7.23079 6.10573 6.66856 6.63908 5.75424L6.65734 5.72294C6.86629 5.36474 6.99679 4.96624 7.0402 4.55382L7.1721 3.30081C7.25403 2.5225 7.91034 1.93164 8.69295 1.93164V1.93164C9.53754 1.93164 10.2222 2.61631 10.2222 3.46089V6.84956C10.2222 6.87129 10.2398 6.88891 10.2615 6.88891H12.5019C13.6064 6.88891 14.4211 7.92034 14.1653 8.99474L13.2074 13.0176C13.0608 13.6336 12.5103 14.0684 11.8771 14.0684H8.17092H6.15654C5.90869 14.0684 5.66549 14.001 5.45296 13.8735L4.06836 13.0428" stroke="#5B5B5B" stroke-width="1.33333"/>
</svg>
