<svg width="101" height="100" viewBox="0 0 101 100" fill="none" xmlns="http://www.w3.org/2000/svg">
<rect x="2.5" y="43.4884" width="77.6279" height="43.382" rx="5.95253" transform="rotate(-9.2238 2.5 43.4884)" fill="#FF6A00"/>
<path d="M25.9894 55.9322L28.9194 55.4564C31.63 55.0162 33.0133 56.2067 33.3135 58.0555L33.3492 58.2749C33.6469 60.1081 32.6478 61.8784 30.0313 62.3033L27.775 62.6697L28.3475 66.1951C28.4442 66.7905 28.0174 67.1331 27.4847 67.2197C26.952 67.3062 26.4387 67.1161 26.342 66.5207L24.8688 57.4489C24.7085 56.4618 24.9867 56.095 25.9894 55.9322ZM26.9354 57.4992L27.5002 60.9776L29.4901 60.6544C30.8062 60.4407 31.5366 59.8879 31.3229 58.5718L31.2949 58.3994C31.0939 57.1616 30.2414 56.9624 29.0976 57.1481L26.9354 57.4992Z" fill="white"/>
<path d="M37.8824 53.9043C38.4152 53.8178 38.8556 53.9554 39.2547 54.6303L44.2557 63.1454C44.5875 63.7026 44.3843 64.2341 43.8927 64.4747C43.4011 64.7154 42.8137 64.7625 42.4693 64.127L41.1535 61.7676L37.2051 62.4088L36.6979 65.1285C36.5778 65.7752 36.0553 65.9244 35.5259 65.8334C34.9965 65.7425 34.664 65.3784 34.7892 64.763L36.8261 55.0247C36.9754 54.2607 37.3654 53.9883 37.8824 53.9043ZM38.2582 56.4163C38.1876 57.0711 38.1259 57.4831 37.9922 58.2446L37.5308 60.6513L40.2884 60.2035L39.1047 58.0639C38.7187 57.3708 38.5039 56.9393 38.2582 56.4163Z" fill="white"/>
<path d="M48.3271 52.1278C49.4552 51.9446 50.4258 51.98 51.2572 52.247C51.7497 52.4082 51.9747 52.9024 51.7978 53.3975C51.6234 53.9082 51.2182 54.0866 50.749 53.9698C50.0451 53.7947 49.4789 53.774 48.6485 53.9089C47.2854 54.1303 46.6791 54.9524 46.786 55.6104L46.8013 55.7044C46.9285 56.4878 47.4257 56.777 49.4008 56.8583C52.1039 56.9661 53.3085 57.8479 53.5807 59.5244L53.6036 59.6654C53.9497 61.7963 52.7147 63.2029 49.9884 63.6457C48.7037 63.8543 47.329 63.7077 46.4146 63.3255C45.8624 63.0935 45.742 62.5502 45.9528 62.0657C46.1767 61.563 46.5976 61.3821 47.1109 61.5721C47.916 61.8756 48.8498 61.9812 49.7899 61.8286C51.2313 61.5945 51.7482 60.9155 51.6236 60.1478L51.6058 60.0381C51.4633 59.1607 50.7496 58.8263 49.1972 58.7729C46.4809 58.6833 45.1574 58.1584 44.819 56.0746L44.8012 55.9649C44.5163 54.2101 45.6949 52.5553 48.3271 52.1278Z" fill="white"/>
<path d="M58.135 50.5351C59.2631 50.3519 60.2337 50.3873 61.0651 50.6543C61.5576 50.8155 61.7826 51.3097 61.6057 51.8048C61.4313 52.3155 61.0261 52.4939 60.5569 52.3771C59.853 52.202 59.2868 52.1813 58.4564 52.3162C57.0933 52.5375 56.487 53.3597 56.5939 54.0177L56.6092 54.1117C56.7364 54.8951 57.2336 55.1843 59.2087 55.2655C61.9118 55.3734 63.1164 56.2552 63.3886 57.9317L63.4115 58.0727C63.7576 60.2036 62.5226 61.6102 59.7963 62.0529C58.5116 62.2616 57.1369 62.1149 56.2225 61.7327C55.6703 61.5008 55.5499 60.9575 55.7607 60.473C55.9846 59.9703 56.4055 59.7894 56.9188 59.9794C57.7239 60.2828 58.6577 60.3885 59.5978 60.2358C61.0392 60.0018 61.5561 59.3228 61.4315 58.5551L61.4137 58.4454C61.2712 57.568 60.5575 57.2336 59.005 57.1801C56.2888 57.0905 54.9653 56.5657 54.6269 54.4819L54.6091 54.3722C54.3242 52.6174 55.5028 50.9626 58.135 50.5351Z" fill="white"/>
<path d="M97.7217 28.5784C97.9598 27.8537 97.1995 27.2047 96.5211 27.5537L92.3747 29.6872L87.9178 28.2226C87.193 27.9845 86.5441 28.7448 86.8931 29.4232L89.0351 33.5861L87.5719 38.0388C87.3338 38.7635 88.0941 39.4125 88.7724 39.0634L92.9459 36.916L97.3781 38.3725C98.1028 38.6106 98.7518 37.8503 98.4027 37.1719L96.2638 33.0149L97.7217 28.5784Z" fill="#A8A8F6"/>
<path d="M78.3968 14.0753C77.9776 13.4379 76.9965 13.6294 76.8477 14.3776L75.9365 18.9591L72.0276 21.5299C71.3902 21.9491 71.5817 22.9302 72.3299 23.079L76.9116 23.9904L79.4878 27.9074C79.907 28.5448 80.8881 28.3533 81.037 27.6051L81.951 23.0096L85.8596 20.4389C86.497 20.0197 86.3055 19.0386 85.5573 18.8898L80.9621 17.9758L78.3968 14.0753Z" fill="#91C2EF"/>
</svg>
