<svg width="65" height="64" viewBox="0 0 65 64" fill="none" xmlns="http://www.w3.org/2000/svg">
<rect x="9.74463" y="9.24463" width="45.5111" height="45.5111" rx="22.7556" fill="#FF6A00"/>
<path fill-rule="evenodd" clip-rule="evenodd" d="M32.4999 19.9111C33.2853 19.9111 33.9221 20.5479 33.9221 21.3334V36.9778C33.9221 37.7633 33.2853 38.4 32.4999 38.4C31.7144 38.4 31.0776 37.7633 31.0776 36.9778V21.3334C31.0776 20.5479 31.7144 19.9111 32.4999 19.9111Z" fill="white"/>
<path fill-rule="evenodd" clip-rule="evenodd" d="M32.4999 41.2446C33.2853 41.2446 33.9221 41.8658 33.9221 42.6322L33.9221 42.7015C33.9221 43.4679 33.2853 44.0891 32.4999 44.0891C31.7144 44.0891 31.0776 43.4679 31.0776 42.7015L31.0776 42.6322C31.0776 41.8658 31.7144 41.2446 32.4999 41.2446Z" fill="white"/>
</svg>
