<svg width="24" height="24" viewBox="0 0 24 24" fill="none" xmlns="http://www.w3.org/2000/svg">
<path d="M17.4598 10.6242C17.4371 8.09365 19.5267 6.8787 19.619 6.82238C18.4447 5.103 16.6139 4.86337 15.9645 4.83461C14.4057 4.67765 12.9224 5.75361 12.134 5.75361C11.3456 5.75361 10.1234 4.86097 8.83418 4.88613C7.13278 4.9089 5.57036 5.87463 4.69449 7.39032C2.93078 10.4505 4.24158 14.9867 5.96336 17.4682C6.80208 18.6831 7.80256 20.0478 9.11695 19.9987C10.3858 19.9496 10.8651 19.1804 12.3964 19.1804C13.9276 19.1804 14.3578 19.9987 15.6985 19.9783C17.0608 19.9496 17.9247 18.7346 18.7563 17.5197C19.7196 16.1094 20.1198 14.7447 20.1426 14.6728C20.1126 14.662 17.485 13.6532 17.4586 10.6242H17.4598Z" fill="white"/>
<path d="M14.9398 3.19194C15.6396 2.34722 16.1104 1.17062 15.981 0C14.9758 0.0383416 13.7572 0.672176 13.0371 1.51329C12.3889 2.26455 11.8198 3.46512 11.9743 4.61057C13.0946 4.69564 14.2437 4.03905 14.9398 3.19194Z" fill="white"/>
</svg>
