<svg width="76" height="77" viewBox="0 0 76 77" fill="none" xmlns="http://www.w3.org/2000/svg">
<rect y="0.5" width="76" height="76" rx="38" fill="#F2F2F2"/>
<rect x="12" y="12.5" width="52" height="52" rx="26" fill="#CFCFCF"/>
<path fill-rule="evenodd" clip-rule="evenodd" d="M43.618 31.4678C40.0843 28.6376 34.9117 28.8603 31.636 32.136C28.3603 35.4117 28.1376 40.5843 30.9678 44.118L43.618 31.4678ZM45.0322 32.882L32.382 45.5322C35.9157 48.3624 41.0883 48.1397 44.364 44.864C47.6397 41.5883 47.8624 36.4157 45.0322 32.882ZM30.2218 30.7218C34.5176 26.4261 41.4824 26.4261 45.7782 30.7218C50.0739 35.0176 50.0739 41.9824 45.7782 46.2782C41.4824 50.5739 34.5176 50.5739 30.2218 46.2782C25.9261 41.9824 25.9261 35.0176 30.2218 30.7218Z" fill="white"/>
</svg>
