<svg width="20" height="20" viewBox="0 0 20 20" fill="none" xmlns="http://www.w3.org/2000/svg">
<path fill-rule="evenodd" clip-rule="evenodd" d="M0.833374 9.99984C0.833374 9.5396 1.20647 9.1665 1.66671 9.1665H18.3334C18.7936 9.1665 19.1667 9.5396 19.1667 9.99984C19.1667 10.4601 18.7936 10.8332 18.3334 10.8332H1.66671C1.20647 10.8332 0.833374 10.4601 0.833374 9.99984Z" fill="#1E1E1E"/>
<path fill-rule="evenodd" clip-rule="evenodd" d="M8.92263 2.74408C9.24807 3.06951 9.24807 3.59715 8.92263 3.92259L2.84522 10L8.92263 16.0774C9.24807 16.4028 9.24807 16.9305 8.92263 17.2559C8.59719 17.5814 8.06956 17.5814 7.74412 17.2559L1.07745 10.5893C0.752015 10.2638 0.752015 9.73618 1.07745 9.41074L7.74412 2.74408C8.06956 2.41864 8.59719 2.41864 8.92263 2.74408Z" fill="#1E1E1E"/>
</svg>
